<svg width="18" height="20" viewBox="0 0 18 20" fill="none" xmlns="http://www.w3.org/2000/svg">
<g id="Group">
<path id="Vector" d="M8.80982 12.2177C10.657 12.2177 12.1545 10.7202 12.1545 8.87299C12.1545 7.02578 10.657 5.52832 8.80982 5.52832C6.96261 5.52832 5.46515 7.02578 5.46515 8.87299C5.46515 10.7202 6.96261 12.2177 8.80982 12.2177Z" stroke="white" stroke-width="1.5" stroke-miterlimit="10"/>
<path id="Vector_2" d="M16.5304 10.4116C15.9284 14.6259 12.3775 16.9672 10.3093 17.9929C9.3784 18.4556 8.29138 18.4723 7.35488 18.0152C5.09165 16.9059 1 14.1967 1 9.15181C1 4.6811 4.76276 1.08558 9.29479 1.3643C13.8435 1.63745 17.1771 5.90191 16.5304 10.4116Z" stroke="white" stroke-width="1.5" stroke-miterlimit="10"/>
</g>
</svg>
