<svg width="24" height="25" viewBox="0 0 24 25" fill="none" xmlns="http://www.w3.org/2000/svg">
<path fill-rule="evenodd" clip-rule="evenodd" d="M19.3802 5.74863C19.7508 5.37741 20.3515 5.37741 20.7221 5.74863C21.0926 6.11985 21.0926 6.72173 20.7221 7.09295L18.7 9.11877C18.3292 9.49023 17.7274 9.4905 17.3563 9.11938C16.9856 8.74874 16.9854 8.14789 17.3557 7.77691L19.3802 5.74863ZM15.3073 9.82898C15.6781 9.45752 16.2799 9.45724 16.651 9.82836C17.0217 10.199 17.022 10.7999 16.6517 11.1708L8.64535 19.1918C8.27481 19.563 7.67403 19.563 7.30349 19.1918L3.27791 15.1588C2.90736 14.7876 2.90736 14.1858 3.27791 13.8145C3.64845 13.4433 4.24922 13.4433 4.61977 13.8145L7.97442 17.1753L15.3073 9.82898Z" fill="#006624"/>
</svg>
