<svg width="24" height="25" viewBox="0 0 24 25" fill="none" xmlns="http://www.w3.org/2000/svg">
<g id=".far.fa-clock">
<path id="Vector" d="M12 0.470215C5.37097 0.470215 0 5.84118 0 12.4702C0 19.0992 5.37097 24.4702 12 24.4702C18.629 24.4702 24 19.0992 24 12.4702C24 5.84118 18.629 0.470215 12 0.470215ZM12 22.1476C6.65323 22.1476 2.32258 17.817 2.32258 12.4702C2.32258 7.12344 6.65323 2.7928 12 2.7928C17.3468 2.7928 21.6774 7.12344 21.6774 12.4702C21.6774 17.817 17.3468 22.1476 12 22.1476ZM14.9903 17.096L10.8823 14.1105C10.7323 13.9992 10.6452 13.8251 10.6452 13.6412V5.69602C10.6452 5.37667 10.9065 5.11538 11.2258 5.11538H12.7742C13.0935 5.11538 13.3548 5.37667 13.3548 5.69602V12.5525L16.5871 14.9041C16.8484 15.0928 16.9016 15.4557 16.7129 15.717L15.8032 16.9702C15.6145 17.2267 15.2516 17.2847 14.9903 17.096Z" fill="#072D15"/>
</g>
</svg>
