<svg width="24" height="25" viewBox="0 0 24 25" fill="none" xmlns="http://www.w3.org/2000/svg">
<g id=".far.fa-clock">
<path id="Vector" d="M12 24.4702C18.629 24.4702 24 19.0992 24 12.4702C24 5.84118 18.629 0.470215 12 0.470215C5.37097 0.470215 0 5.84118 0 12.4702C0 19.0992 5.37097 24.4702 12 24.4702ZM12 2.7928C17.3468 2.7928 21.6774 7.12344 21.6774 12.4702C21.6774 17.817 17.3468 22.1476 12 22.1476C6.65323 22.1476 2.32258 17.817 2.32258 12.4702C2.32258 7.12344 6.65323 2.7928 12 2.7928ZM9.00968 7.84441L13.1177 10.8299C13.2677 10.9412 13.3548 11.1154 13.3548 11.2992V19.2444C13.3548 19.5638 13.0935 19.8251 12.7742 19.8251H11.2258C10.9065 19.8251 10.6452 19.5638 10.6452 19.2444V12.388L7.4129 10.0363C7.15161 9.84764 7.09839 9.48473 7.2871 9.22344L8.19677 7.97021C8.38548 7.71376 8.74839 7.6557 9.00968 7.84441Z" fill="#072D15"/>
</g>
</svg>
