<svg width="24" height="25" viewBox="0 0 24 25" fill="none" xmlns="http://www.w3.org/2000/svg">
<g id="icon/outlined/application/copy">
<path id="Vector" d="M19.5 1.67017H6.9375C6.83437 1.67017 6.75 1.75454 6.75 1.85767V3.17017C6.75 3.27329 6.83437 3.35767 6.9375 3.35767H18.5625V19.4827C18.5625 19.5858 18.6469 19.6702 18.75 19.6702H20.0625C20.1656 19.6702 20.25 19.5858 20.25 19.4827V2.42017C20.25 2.00532 19.9148 1.67017 19.5 1.67017ZM16.5 4.67017H4.5C4.08516 4.67017 3.75 5.00532 3.75 5.42017V17.8584C3.75 18.0577 3.82969 18.2475 3.97031 18.3881L8.03203 22.4499C8.08359 22.5014 8.14219 22.5436 8.20547 22.5788V22.6233H8.30391C8.38594 22.6538 8.47266 22.6702 8.56172 22.6702H16.5C16.9148 22.6702 17.25 22.335 17.25 21.9202V5.42017C17.25 5.00532 16.9148 4.67017 16.5 4.67017ZM8.20312 20.2374L6.18516 18.217H8.20312V20.2374ZM15.5625 20.9827H9.70312V17.6545C9.70312 17.1366 9.28359 16.717 8.76562 16.717H5.4375V6.35767H15.5625V20.9827Z" fill="white"/>
</g>
</svg>
