<svg width="32" height="25" viewBox="0 0 32 25" fill="none" xmlns="http://www.w3.org/2000/svg">
<g id=".far.fa-credit-card">
<path id="Vector" d="M28.8518 0.470215H3.1482C1.7232 0.470215 0.571411 1.622 0.571411 3.04164V21.8988C0.571411 23.3184 1.7232 24.4702 3.1482 24.4702H28.8518C30.2768 24.4702 31.4286 23.3184 31.4286 21.8988V3.04164C31.4286 1.622 30.2768 0.470215 28.8518 0.470215ZM3.46963 3.04164H28.5303C28.7071 3.04164 28.8518 3.18629 28.8518 3.36307V5.61307H3.1482V3.36307C3.1482 3.18629 3.29284 3.04164 3.46963 3.04164ZM28.5303 21.8988H3.46963C3.29284 21.8988 3.1482 21.7541 3.1482 21.5774V12.4702H28.8518V21.5774C28.8518 21.7541 28.7071 21.8988 28.5303 21.8988ZM10.8571 16.5416V18.6845C10.8571 19.0381 10.5678 19.3274 10.2143 19.3274H6.35713C6.00355 19.3274 5.71427 19.0381 5.71427 18.6845V16.5416C5.71427 16.1881 6.00355 15.8988 6.35713 15.8988H10.2143C10.5678 15.8988 10.8571 16.1881 10.8571 16.5416ZM21.1428 16.5416V18.6845C21.1428 19.0381 20.8536 19.3274 20.5 19.3274H13.2143C12.8607 19.3274 12.5714 19.0381 12.5714 18.6845V16.5416C12.5714 16.1881 12.8607 15.8988 13.2143 15.8988H20.5C20.8536 15.8988 21.1428 16.1881 21.1428 16.5416Z" fill="#072D15"/>
</g>
</svg>
