<svg width="17" height="14" viewBox="0 0 17 14" fill="none" xmlns="http://www.w3.org/2000/svg">
<g id="Union">
<path d="M3.61574 3.52532C3.30952 3.33393 2.90613 3.42702 2.71475 3.73324C2.52336 4.03946 2.61645 4.44285 2.92267 4.63424L8.15344 7.90347C8.36546 8.03598 8.63449 8.03598 8.84651 7.90347L14.0773 4.63424C14.3835 4.44285 14.4766 4.03946 14.2852 3.73324C14.0938 3.42702 13.6905 3.33393 13.3842 3.52532L8.49998 6.57796L3.61574 3.52532Z" fill="white"/>
<path d="M5.62308 7.47978C5.91196 7.69644 5.97051 8.10628 5.75385 8.39516L3.79231 11.0105C3.57564 11.2994 3.16581 11.358 2.87692 11.1413C2.58804 10.9247 2.52949 10.5148 2.74615 10.2259L4.70769 7.61055C4.92436 7.32166 5.33419 7.26311 5.62308 7.47978Z" fill="white"/>
<path d="M11.2462 8.39516C11.0295 8.10628 11.088 7.69644 11.3769 7.47978C11.6658 7.26311 12.0756 7.32166 12.2923 7.61055L14.2538 10.2259C14.4705 10.5148 14.412 10.9247 14.1231 11.1413C13.8342 11.358 13.4244 11.2994 13.2077 11.0105L11.2462 8.39516Z" fill="white"/>
<path fill-rule="evenodd" clip-rule="evenodd" d="M2.61538 0.810547C1.17095 0.810547 0 1.98149 0 3.42593V11.2721C0 12.7165 1.17095 13.8875 2.61538 13.8875H14.3846C15.8291 13.8875 17 12.7165 17 11.2721V3.42593C17 1.98149 15.8291 0.810547 14.3846 0.810547H2.61538ZM1.30769 3.42593C1.30769 2.70371 1.89317 2.11824 2.61538 2.11824H14.3846C15.1068 2.11824 15.6923 2.70371 15.6923 3.42593V11.2721C15.6923 11.9943 15.1068 12.5798 14.3846 12.5798H2.61538C1.89317 12.5798 1.30769 11.9943 1.30769 11.2721V3.42593Z" fill="white"/>
</g>
</svg>
