<svg width="15" height="16" viewBox="0 0 15 16" fill="none" xmlns="http://www.w3.org/2000/svg">
<path id="icon / user" fill-rule="evenodd" clip-rule="evenodd" d="M14.625 13.2786V14.7953C14.625 15.2503 14.3 15.5536 13.8125 15.5536C13.325 15.5536 13 15.2503 13 14.7953V13.2786C13 11.9894 11.9438 11.0036 10.5625 11.0036H4.0625C2.68125 11.0036 1.625 11.9894 1.625 13.2786V14.7953C1.625 15.2503 1.3 15.5536 0.812501 15.5536C0.325 15.5536 0 15.2503 0 14.7953V13.2786C0 11.1553 1.7875 9.48694 4.0625 9.48694H10.5625C12.8375 9.48694 14.625 11.1553 14.625 13.2786ZM3.25001 4.17851C3.25001 2.05518 5.03751 0.386841 7.31252 0.386841C9.58752 0.386841 11.375 2.05518 11.375 4.17851C11.375 6.30185 9.58752 7.97018 7.31252 7.97018C5.03751 7.97018 3.25001 6.30185 3.25001 4.17851ZM4.87497 4.17844C4.87497 5.46761 5.93122 6.45345 7.31247 6.45345C8.69372 6.45345 9.74997 5.46761 9.74997 4.17844C9.74997 2.88928 8.69372 1.90344 7.31247 1.90344C5.93122 1.90344 4.87497 2.88928 4.87497 4.17844Z" fill="#0D0802"/>
</svg>
