<svg width="17" height="18" viewBox="0 0 17 18" fill="none" xmlns="http://www.w3.org/2000/svg">
<g id="phone-call 1" clip-path="url(#clip0_16_168)">
<g id="Page 1">
<g id="003   Call">
<path id="Shape" d="M7.03918 10.8062C5.41656 9.1869 5.05018 7.56762 4.96752 6.91886C4.94443 6.73947 5.00629 6.55958 5.13489 6.43214L6.44799 5.12233C6.64115 4.92969 6.67543 4.62946 6.53064 4.39839L4.43994 1.15867C4.27976 0.902805 3.95088 0.810461 3.68051 0.945437L0.324179 2.52289C0.105541 2.63032 -0.0230588 2.86214 0.00176507 3.10408C0.177627 4.77133 0.905989 8.86983 4.94202 12.8978C8.97806 16.9258 13.0844 17.6524 14.756 17.8279C14.9984 17.8527 15.2307 17.7244 15.3384 17.5062L16.9191 14.1568C17.0539 13.8875 16.9619 13.5602 16.7066 13.4001L13.4602 11.3142C13.2288 11.1696 12.9279 11.2036 12.7348 11.3961L11.4222 12.7065C11.2945 12.8349 11.1143 12.8966 10.9345 12.8736C10.2844 12.7911 8.6618 12.4255 7.03918 10.8062Z" fill="white"/>
<path id="Shape_2" d="M13.4825 9.93423C13.1587 9.93423 12.8963 9.67232 12.8963 9.34923C12.8935 6.92723 10.9267 4.96449 8.49972 4.96175C8.17597 4.96175 7.91351 4.69983 7.91351 4.37675C7.91351 4.05366 8.17597 3.79175 8.49972 3.79175C11.574 3.79513 14.0653 6.28132 14.0687 9.34923C14.0687 9.67232 13.8062 9.93423 13.4825 9.93423Z" fill="white"/>
<path id="Shape_3" d="M16.4135 9.93394C16.0898 9.93394 15.8273 9.67202 15.8273 9.34894C15.8228 5.31224 12.5448 2.04097 8.49972 2.03645C8.17597 2.03645 7.91351 1.77454 7.91351 1.45145C7.91351 1.12837 8.17597 0.866455 8.49972 0.866455C13.192 0.871614 16.9946 4.66633 16.9997 9.34894C16.9997 9.50409 16.938 9.65289 16.828 9.7626C16.7181 9.8723 16.569 9.93394 16.4135 9.93394Z" fill="white"/>
</g>
</g>
</g>
<defs>
<clipPath id="clip0_16_168">
<rect width="17" height="16.965" fill="white" transform="translate(0 0.866699)"/>
</clipPath>
</defs>
</svg>
