<svg width="26" height="23" viewBox="0 0 26 23" fill="none" xmlns="http://www.w3.org/2000/svg">
<g id="Group">
<path id="Vector" d="M20.3638 22.3491C20.1717 22.3491 19.9808 22.2923 19.8171 22.1813L13.6329 17.9863L10.316 20.373C10.0558 20.5601 9.72053 20.6072 9.41846 20.4992C9.11679 20.3909 8.88767 20.1411 8.80589 19.8312L7.14043 13.5196L1.18956 11.2441C0.814926 11.1008 0.566469 10.7424 0.563743 10.3413C0.561017 9.94021 0.804541 9.57843 1.17735 9.43005L23.8048 0.42644C23.9075 0.382823 24.0161 0.35764 24.1257 0.35089C24.1649 0.348553 24.2042 0.348554 24.2433 0.35076C24.4702 0.364261 24.6931 0.456685 24.867 0.627255C24.8851 0.64491 24.9022 0.662953 24.9184 0.681776C25.0625 0.846374 25.1417 1.04706 25.1566 1.25151C25.1602 1.30292 25.16 1.35497 25.1554 1.40702C25.1523 1.44415 25.147 1.48114 25.1395 1.51788L21.3201 21.5578C21.2587 21.8797 21.0396 22.1492 20.7368 22.2747C20.6168 22.3246 20.49 22.3491 20.3638 22.3491ZM14.1759 16.0018L19.6846 19.7384L22.6565 4.1451L11.9229 14.4736L14.1499 15.9843C14.1589 15.9899 14.1674 15.9958 14.1759 16.0018ZM9.59007 15.1709L10.3277 17.9657L11.9168 16.8222L9.83593 15.4107C9.73923 15.3452 9.65641 15.2637 9.59007 15.1709ZM4.21607 10.3165L8.30223 11.8788C8.59495 11.9907 8.81589 12.2368 8.89585 12.5398L9.41405 14.5037C9.43781 14.2772 9.54049 14.064 9.70729 13.9034L19.9349 4.06202L4.21607 10.3165Z" fill="white"/>
</g>
</svg>
