<svg width="22" height="23" viewBox="0 0 22 23" fill="none" xmlns="http://www.w3.org/2000/svg">
<g id="Group">
<path id="Vector" d="M10.7815 0.349121C4.83644 0.349121 0 5.18576 0 11.1307C0 13.4574 0.944375 15.5465 1.35049 16.3368C1.53957 16.7048 1.99133 16.8497 2.35919 16.6607C2.72715 16.4716 2.87218 16.02 2.6831 15.652C2.32693 14.9587 1.49832 13.1303 1.49832 11.1306C1.49822 6.01188 5.66266 1.84734 10.7815 1.84734C15.9008 1.84734 20.0655 6.01188 20.0655 11.1307C20.0655 16.2497 15.9008 20.4142 10.7815 20.4142C8.77945 20.4142 7.18864 19.7211 6.59754 19.4229C6.42225 19.3344 6.21919 19.3184 6.03222 19.3783L1.31364 20.8862C0.919605 21.0121 0.702164 21.4336 0.828114 21.8277C0.929793 22.1461 1.22444 22.349 1.54146 22.349C1.61707 22.349 1.69388 22.3375 1.76969 22.3133L6.20351 20.8964C7.13111 21.3269 8.76376 21.9124 10.7815 21.9124C16.7268 21.9124 21.5637 17.0758 21.5637 11.1307C21.5637 5.18576 16.7268 0.349121 10.7815 0.349121Z" fill="white"/>
<path id="Vector_2" d="M8.65596 9.2923C8.32785 9.5443 8.26622 10.0145 8.51812 10.3428C8.77012 10.6709 9.24026 10.7326 9.56857 10.4806C9.7982 10.3042 10.4082 9.83575 10.3189 8.99785C10.2638 8.49974 9.77782 7.81626 9.3798 7.33074C8.79739 6.62018 8.30438 6.19938 7.91724 6.08092C7.55447 5.96846 7.18271 5.98624 6.81196 6.13386C6.04926 6.4387 5.51101 6.9437 5.25531 7.59432C5.00631 8.22797 5.05155 8.93702 5.38645 9.64558C6.16822 11.2958 7.21308 12.721 8.49205 13.8818C8.49705 13.8865 8.50214 13.8911 8.50724 13.8957C9.80439 15.0424 11.3391 15.9258 13.0693 16.5219C13.3976 16.6347 13.7198 16.6909 14.0293 16.6909C14.418 16.6909 14.7867 16.6022 15.122 16.4254C15.7403 16.0994 16.1828 15.5088 16.4018 14.7159C16.5073 14.3316 16.4837 13.9604 16.333 13.6149C16.1713 13.2408 15.6988 12.7974 14.9283 12.2971C14.402 11.9553 13.6697 11.548 13.1664 11.548C13.1661 11.548 13.1657 11.548 13.1653 11.548C12.3257 11.5514 11.9271 12.2093 11.777 12.4571C11.5627 12.811 11.6758 13.2717 12.0296 13.486C12.3833 13.7004 12.8441 13.5874 13.0585 13.2334C13.1177 13.1355 13.1553 13.0836 13.1789 13.0564C13.602 13.1793 14.7337 13.9196 14.9656 14.2311C14.9694 14.2477 14.9699 14.2728 14.9575 14.3184C14.8836 14.5856 14.7309 14.9381 14.4232 15.1003C14.1356 15.2517 13.7927 15.1865 13.5565 15.1054C12.0171 14.575 10.6547 13.7927 9.50704 12.7802C9.50674 12.7799 9.50635 12.7796 9.50605 12.7792C8.3697 11.7497 7.43921 10.4797 6.74054 9.00494C6.63357 8.77841 6.53079 8.44491 6.64965 8.14257C6.7769 7.81876 7.1104 7.62818 7.36709 7.5256C7.41114 7.50803 7.43601 7.50533 7.45409 7.50773C7.78949 7.70399 8.64957 8.74645 8.81846 9.15347C8.79409 9.17974 8.74655 9.22268 8.65596 9.2923Z" fill="white"/>
</g>
</svg>
