<svg width="85" height="26" viewBox="0 0 85 26" fill="none" xmlns="http://www.w3.org/2000/svg">
<path d="M36.2163 8.53711C37.6262 8.53722 38.8911 9.10472 39.8071 10.0352C39.8346 10.0631 39.8347 10.1079 39.8071 10.1357L38.6313 11.3115C38.6179 11.3249 38.5995 11.333 38.5806 11.333C38.5618 11.3329 38.5441 11.3248 38.5308 11.3115C37.9419 10.7227 37.114 10.3575 36.2163 10.3574C35.3086 10.3574 34.4918 10.6748 33.9028 11.2568C33.3144 11.8385 32.9478 12.6901 32.9478 13.7695C32.9478 14.98 33.3158 15.8301 33.9019 16.3779C34.4889 16.9265 35.3046 17.1807 36.2163 17.1807C37.189 17.1805 38.0505 16.7675 38.6528 16.0918V14.7441H37.0474C37.0079 14.7441 36.9763 14.7122 36.9761 14.6729V13.0811C36.9762 13.0416 37.0079 13.0098 37.0474 13.0098H40.4019C40.4411 13.01 40.473 13.0418 40.4731 13.0811V18.8291C40.4731 18.8685 40.4412 18.9011 40.4019 18.9014H38.939C38.9021 18.9012 38.8711 18.8726 38.8677 18.8359L38.7944 18.0312C37.9945 18.733 37.1538 19.001 36.0005 19.001C34.6365 19.0009 33.4171 18.5256 32.5386 17.6309C31.6598 16.7357 31.1275 15.4264 31.1274 13.7695C31.1274 10.7492 33.4096 8.53711 36.2163 8.53711ZM26.3599 8.39453C26.3894 8.39451 26.4165 8.41199 26.4272 8.43945L30.4399 18.7598C30.4485 18.7818 30.4465 18.8076 30.4331 18.8271C30.4197 18.8466 30.3971 18.8574 30.3735 18.8574H28.5679C28.5382 18.8574 28.5111 18.8393 28.5005 18.8115L28.0737 17.6973H24.647L24.2339 18.8115C24.2234 18.8394 24.1963 18.8574 24.1665 18.8574H22.3608C22.3372 18.8574 22.3146 18.8466 22.3013 18.8271C22.288 18.8077 22.286 18.7827 22.2944 18.7607L26.2935 8.43945L26.3198 8.40625C26.3314 8.39846 26.3453 8.39456 26.3599 8.39453ZM49.2808 8.68066C49.3202 8.68089 49.3521 8.71349 49.3521 8.75293V10.4297C49.352 10.4691 49.3201 10.5008 49.2808 10.501H44.3354V12.8662H48.4351C48.4744 12.8664 48.5063 12.899 48.5063 12.9385V14.6006C48.5063 14.64 48.4745 14.6726 48.4351 14.6729H44.3354V17.0371H49.2808C49.3202 17.0373 49.3521 17.0699 49.3521 17.1094V18.7861C49.3521 18.8256 49.3202 18.8572 49.2808 18.8574H42.5864C42.5468 18.8574 42.5151 18.8257 42.5151 18.7861V8.75293C42.5151 8.71335 42.5468 8.68066 42.5864 8.68066H49.2808ZM52.6899 8.68066C52.7295 8.68066 52.7622 8.71335 52.7622 8.75293V17.0371H56.4028C56.4424 17.0372 56.4741 17.0698 56.4741 17.1094V18.7861C56.4741 18.8257 56.4424 18.8574 56.4028 18.8574H51.0132C50.9736 18.8574 50.9419 18.8257 50.9419 18.7861V8.75293C50.9419 8.71335 50.9736 8.68066 51.0132 8.68066H52.6899ZM61.061 8.39453C61.0904 8.39459 61.1166 8.41219 61.1274 8.43945L65.1411 18.7598C65.1497 18.7818 65.1467 18.8076 65.1333 18.8271C65.12 18.8463 65.0981 18.8573 65.0747 18.8574H63.2681C63.2385 18.8573 63.2122 18.8392 63.2017 18.8115L62.7749 17.6973H59.3472L58.9351 18.8115C58.9246 18.8394 58.8975 18.8574 58.8677 18.8574H57.062C57.0385 18.8574 57.0158 18.8465 57.0024 18.8271C56.9892 18.8078 56.9863 18.7827 56.9946 18.7607L60.9937 8.43945L61.02 8.40625C61.0317 8.39824 61.0462 8.39454 61.061 8.39453ZM69.5659 8.68066C69.5726 8.68076 69.5827 8.68128 69.5952 8.68164C69.6205 8.68238 69.6572 8.68363 69.7036 8.68652C69.797 8.69234 69.9299 8.70438 70.0894 8.72754C70.4079 8.77382 70.8343 8.86665 71.2612 9.05273C71.6879 9.2388 72.1182 9.51915 72.4419 9.94238C72.7665 10.3669 72.981 10.931 72.981 11.6768C72.9809 12.5839 72.6658 13.2225 72.2222 13.668C71.8071 14.0848 71.2827 14.3272 70.811 14.4697L73.4858 18.748C73.4996 18.7701 73.5004 18.7985 73.4878 18.8213C73.4751 18.8439 73.4512 18.8574 73.4253 18.8574H71.4614C71.4368 18.8574 71.414 18.8451 71.4009 18.8242L68.813 14.6729H67.9644V18.7861C67.9644 18.8257 67.9317 18.8574 67.8921 18.8574H66.2153C66.1758 18.8574 66.144 18.8257 66.144 18.7861V12.9385C66.144 12.8989 66.1758 12.8662 66.2153 12.8662H67.6753L66.1548 10.4678C66.1476 10.4564 66.1441 10.4432 66.144 10.4297V8.75293C66.144 8.71335 66.1758 8.68066 66.2153 8.68066H69.5659ZM59.9438 16.1055H62.1782L61.061 12.9102L59.9438 16.1055ZM25.2427 16.1055H27.4771L26.3599 12.9102L25.2427 16.1055ZM69.8052 12.8457C70.0247 12.8208 70.353 12.7569 70.6313 12.5928C70.9243 12.42 71.1606 12.1404 71.1606 11.6768C71.1606 11.3829 71.062 11.1662 70.9165 11.0039C70.7696 10.8401 70.5717 10.7278 70.3687 10.6523C70.1659 10.577 69.9619 10.5396 69.8081 10.5205C69.7316 10.511 69.6679 10.5063 69.6235 10.5039C69.6013 10.5027 69.5834 10.5022 69.5718 10.502C69.5662 10.5018 69.5619 10.501 69.5591 10.501H68.3364L69.8052 12.8457Z" fill="url(#paint0_linear_17_222)" stroke="url(#paint1_linear_17_222)" stroke-width="0.143339" stroke-linejoin="round"/>
<path d="M36.2163 8.59082C37.6115 8.59093 38.8628 9.15264 39.769 10.0732C39.7759 10.0803 39.776 10.0917 39.769 10.0986L38.5933 11.2734C38.5899 11.2767 38.5853 11.2793 38.5806 11.2793C38.576 11.2792 38.5711 11.2767 38.5679 11.2734C37.9692 10.675 37.1285 10.3038 36.2163 10.3037C35.296 10.3037 34.4649 10.6248 33.8647 11.2178C33.2647 11.8107 32.894 12.6772 32.894 13.7695C32.8941 14.9912 33.2654 15.8568 33.8647 16.417C34.4644 16.9775 35.2949 17.2344 36.2163 17.2344C37.2121 17.2343 38.0937 16.8082 38.7065 16.1123V14.6904H37.0474C37.0376 14.6904 37.03 14.6825 37.0298 14.6729V13.0811C37.0299 13.0713 37.0376 13.0635 37.0474 13.0635H40.4019C40.4114 13.0637 40.4193 13.0714 40.4194 13.0811V18.8291C40.4194 18.8388 40.4115 18.8464 40.4019 18.8467H38.939C38.9299 18.8465 38.9223 18.8401 38.9214 18.8311L38.8384 17.9199C38.0257 18.6649 37.1812 18.9473 36.0005 18.9473C34.649 18.9472 33.4439 18.4763 32.5767 17.5928C31.7093 16.7092 31.1812 15.4146 31.1812 13.7695C31.1812 10.7784 33.4398 8.59082 36.2163 8.59082ZM26.3765 8.45898L30.3901 18.7793C30.3922 18.7847 30.3914 18.7911 30.3882 18.7959C30.3849 18.8008 30.3794 18.8037 30.3735 18.8037H28.5679C28.5605 18.8037 28.553 18.7998 28.5503 18.793L28.1108 17.6436H24.6099L24.1841 18.792C24.1815 18.799 24.174 18.8037 24.1665 18.8037H22.3608C22.3549 18.8037 22.3495 18.8008 22.3462 18.7959C22.343 18.7911 22.3421 18.7847 22.3442 18.7793L26.3433 8.45898L26.3599 8.44824C26.3671 8.44824 26.3737 8.4523 26.3765 8.45898ZM49.2808 8.73438C49.2905 8.73459 49.2983 8.74317 49.2983 8.75293V10.4297C49.2983 10.4394 49.2904 10.447 49.2808 10.4473H44.2817V12.9199H48.4351C48.4448 12.9201 48.4526 12.9287 48.4526 12.9385V14.6006C48.4526 14.6103 48.4448 14.6179 48.4351 14.6182H44.2817V17.0908H49.2808C49.2905 17.091 49.2983 17.0996 49.2983 17.1094V18.7861C49.2983 18.7959 49.2905 18.8035 49.2808 18.8037H42.5864C42.5765 18.8037 42.5688 18.796 42.5688 18.7861V8.75293C42.5688 8.74303 42.5765 8.73438 42.5864 8.73438H49.2808ZM52.6899 8.73438C52.6998 8.73438 52.7085 8.74303 52.7085 8.75293V17.0908H56.4028C56.4127 17.0909 56.4204 17.0995 56.4204 17.1094V18.7861C56.4204 18.796 56.4127 18.8036 56.4028 18.8037H51.0132C51.0033 18.8037 50.9956 18.796 50.9956 18.7861V8.75293C50.9956 8.74303 51.0033 8.73438 51.0132 8.73438H52.6899ZM61.0776 8.45898L65.0913 18.7793C65.0934 18.7847 65.0925 18.7911 65.0894 18.7959C65.0861 18.8007 65.0805 18.8036 65.0747 18.8037H63.2681C63.2608 18.8036 63.2542 18.7997 63.2515 18.793L62.812 17.6436H59.311L58.8843 18.792C58.8817 18.799 58.8752 18.8037 58.8677 18.8037H57.062C57.0561 18.8037 57.0507 18.8008 57.0474 18.7959C57.0441 18.791 57.0433 18.7848 57.0454 18.7793L61.0444 8.45898L61.061 8.44824C61.0683 8.4483 61.0749 8.4523 61.0776 8.45898ZM69.5649 8.73438C69.5714 8.73447 69.5809 8.73499 69.5933 8.73535C69.618 8.73607 69.6546 8.73737 69.7007 8.74023C69.7928 8.74598 69.9241 8.7574 70.0815 8.78027C70.397 8.82611 70.8186 8.91797 71.2397 9.10156C71.6608 9.28515 72.0822 9.56142 72.3989 9.97559C72.7159 10.3901 72.9272 10.9421 72.9272 11.6768C72.9272 12.57 72.6174 13.1947 72.1841 13.6299C71.7578 14.0579 71.2125 14.3006 70.729 14.4385L73.4399 18.7764C73.4434 18.7819 73.4441 18.7892 73.4409 18.7949C73.4378 18.8006 73.4318 18.8037 73.4253 18.8037H71.4614C71.4553 18.8037 71.4491 18.8011 71.4458 18.7959L68.8423 14.6182H67.9106V18.7861C67.9106 18.796 67.902 18.8037 67.8921 18.8037H66.2153C66.2054 18.8037 66.1978 18.796 66.1978 18.7861V12.9385C66.1978 12.9286 66.2054 12.9199 66.2153 12.9199H67.7739L66.1997 10.4395L66.1938 10.4297H66.1978V8.75293C66.1978 8.74303 66.2054 8.73438 66.2153 8.73438H69.5649ZM59.8687 16.1592H62.2534L61.061 12.7471L59.8687 16.1592ZM25.1675 16.1592H27.5522L26.3599 12.7471L25.1675 16.1592ZM69.7788 12.9043C70.0008 12.8819 70.3568 12.8176 70.6587 12.6396C70.9644 12.4594 71.2143 12.1635 71.2144 11.6768C71.2144 11.3694 71.1108 11.1399 70.9565 10.9678C70.8019 10.7953 70.5952 10.6799 70.3872 10.6025C70.1793 10.5253 69.9713 10.4862 69.8149 10.4668C69.737 10.4571 69.672 10.4526 69.6265 10.4502C69.6039 10.449 69.5859 10.4485 69.5737 10.4482C69.5679 10.4481 69.5632 10.4473 69.5601 10.4473H68.2407L69.7788 12.9043Z" fill="url(#paint2_linear_17_222)" stroke="url(#paint3_linear_17_222)" stroke-width="0.0358347" stroke-linejoin="round"/>
<mask id="path-3-outside-1_17_222" maskUnits="userSpaceOnUse" x="21.2175" y="7.32275" width="53" height="12" fill="black">
<rect fill="white" x="21.2175" y="7.32275" width="53" height="12"/>
<path fill-rule="evenodd" clip-rule="evenodd" d="M28.5674 18.9298C28.508 18.9298 28.4548 18.8932 28.4336 18.8377L28.0245 17.7688H24.6967L24.3014 18.8363C24.2805 18.8925 24.2269 18.9298 24.1669 18.9298H22.3609C22.3136 18.9298 22.2693 18.9065 22.2426 18.8675C22.2159 18.8285 22.2101 18.7788 22.2272 18.7347L26.2264 8.4143C26.2477 8.35915 26.3008 8.32279 26.3599 8.32275C26.4191 8.32272 26.4722 8.35902 26.4936 8.41414L30.5071 18.7345C30.5243 18.7786 30.5185 18.8284 30.4918 18.8674C30.4651 18.9065 30.4208 18.9298 30.3735 18.9298H28.5674ZM24.597 17.6255H28.1231L28.5674 18.7865H30.3735L26.36 8.46609L22.3609 18.7865H24.1669L24.597 17.6255ZM26.36 12.6946L25.1416 16.1777H27.5784L26.36 12.6946ZM26.36 13.1287L25.3436 16.0344H27.3764L26.36 13.1287ZM36.9039 13.0816C36.9039 13.0024 36.9681 12.9383 37.0473 12.9383H40.4014C40.4806 12.9383 40.5448 13.0024 40.5448 13.0816V18.8295C40.5448 18.9087 40.4806 18.9728 40.4014 18.9728H38.9394C38.8652 18.9728 38.8033 18.9163 38.7966 18.8425L38.7361 18.177C37.9524 18.8244 37.1181 19.0732 36.0009 19.0732C34.6197 19.0732 33.3808 18.5914 32.4872 17.6811C31.5932 16.7705 31.0557 15.4423 31.0557 13.7696C31.0557 10.7103 33.369 8.46609 36.2159 8.46609C37.6458 8.46609 38.9294 9.04133 39.8585 9.98527C39.9138 10.0414 39.9134 10.1315 39.8577 10.1872L38.6824 11.3626C38.6264 11.4185 38.5356 11.4185 38.4797 11.3626C37.9038 10.7867 37.0943 10.4298 36.2159 10.4298C35.325 10.4298 34.5276 10.7402 33.9534 11.3076C33.3799 11.8743 33.0195 12.7069 33.0195 13.7696C33.0195 14.9653 33.3821 15.7944 33.9505 16.3256C34.5207 16.8587 35.3168 17.1094 36.2159 17.1094C37.1577 17.1094 37.9927 16.7144 38.581 16.0658V14.816H37.0473C36.9681 14.816 36.9039 14.7518 36.9039 14.6727V13.0816ZM38.7244 16.1204C38.108 16.8228 37.2193 17.2528 36.2159 17.2528C34.3668 17.2528 32.8761 16.2207 32.8761 13.7696C32.8761 11.5765 34.3668 10.2865 36.2159 10.2865C37.133 10.2865 37.9785 10.6589 38.5805 11.2606C38.5806 11.2608 38.5808 11.261 38.581 11.2612L39.7564 10.0859C39.7563 10.0858 39.7564 10.0859 39.7564 10.0859C39.738 10.0672 39.7194 10.0486 39.7007 10.0302C39.6854 10.015 39.6699 10 39.6544 9.98512C38.7605 9.12771 37.5547 8.60943 36.2159 8.60943C33.4495 8.60943 31.1991 10.7882 31.1991 13.7696C31.1991 17.0521 33.3061 18.9298 36.0009 18.9298C37.1262 18.9298 37.9437 18.6734 38.7203 18.0028C38.7648 17.9644 38.8091 17.9246 38.8534 17.8835L38.9394 18.8295H40.4014V13.0816H37.0473V14.6727H38.7244V16.1204ZM49.4237 10.4298C49.4237 10.509 49.3595 10.5732 49.2804 10.5732H44.4068V12.7949H48.4347C48.5138 12.7949 48.578 12.8591 48.578 12.9383V14.601C48.578 14.6802 48.5138 14.7443 48.4347 14.7443H44.4068V16.9661H49.2804C49.3595 16.9661 49.4237 17.0303 49.4237 17.1094V18.7865C49.4237 18.8657 49.3595 18.9298 49.2804 18.9298H42.5864C42.5073 18.9298 42.4431 18.8657 42.4431 18.7865V8.75277C42.4431 8.67361 42.5073 8.60943 42.5864 8.60943H49.2804C49.3595 8.60943 49.4237 8.67361 49.4237 8.75277V10.4298ZM49.2804 17.1094V18.7865H42.5864V8.75277H49.2804V10.4298H44.2635V12.9383H48.4347V14.601H44.2635V17.1094H49.2804ZM56.4027 17.1094V18.7865H51.0132V8.75277H52.6903V17.1094H56.4027ZM52.8336 16.9661H56.4027C56.4819 16.9661 56.5461 17.0303 56.5461 17.1094V18.7865C56.5461 18.8657 56.4819 18.9298 56.4027 18.9298H51.0132C50.934 18.9298 50.8699 18.8657 50.8699 18.7865V8.75277C50.8699 8.67361 50.934 8.60943 51.0132 8.60943H52.6903C52.7694 8.60943 52.8336 8.67361 52.8336 8.75277V16.9661ZM63.2683 18.9298C63.209 18.9298 63.1557 18.8932 63.1345 18.8377L62.7254 17.7688H59.3976L59.0023 18.8363C58.9814 18.8925 58.9278 18.9298 58.8678 18.9298H57.0618C57.0145 18.9298 56.9702 18.9065 56.9435 18.8675C56.9168 18.8285 56.911 18.7788 56.9281 18.7347L60.9273 8.4143C60.9486 8.35915 61.0017 8.32279 61.0608 8.32275C61.12 8.32272 61.1731 8.35902 61.1945 8.41414L65.208 18.7345C65.2252 18.7786 65.2194 18.8284 65.1927 18.8674C65.166 18.9065 65.1217 18.9298 65.0744 18.9298H63.2683ZM59.2979 17.6255H62.824L63.2683 18.7865H65.0744L61.0609 8.46609L57.0618 18.7865H58.8678L59.2979 17.6255ZM61.0609 12.6946L59.8425 16.1777H62.2793L61.0609 12.6946ZM61.0609 13.1287L60.0445 16.0344H62.0773L61.0609 13.1287ZM73.5506 18.856C73.5254 18.9016 73.4774 18.9298 73.4253 18.9298H71.4615C71.412 18.9298 71.366 18.9043 71.3399 18.8623L68.7732 14.7443H68.0357V18.7865C68.0357 18.8657 67.9715 18.9298 67.8924 18.9298H66.2153C66.1361 18.9298 66.072 18.8657 66.072 18.7865V12.9383C66.072 12.8591 66.1361 12.7949 66.2153 12.7949H67.5457L66.0943 10.5066C66.0797 10.4837 66.072 10.457 66.072 10.4298V8.75277C66.072 8.67361 66.1361 8.60943 66.2153 8.60943H69.5551V8.75277H66.2153V10.4298L67.8064 12.9383H66.2153V18.7865H67.8924V14.601H68.8527L71.4615 18.7865H73.4253L70.7018 14.429C70.7488 14.4159 70.7963 14.4018 70.8443 14.3866C71.7924 14.0865 72.9092 13.3687 72.9092 11.6769C72.9092 8.75277 69.5551 8.75277 69.5551 8.75277C69.5551 8.60943 69.5552 8.60943 69.5553 8.60943L69.5555 8.60943L69.5562 8.60943L69.5585 8.60945L69.5667 8.60953C69.5738 8.60963 69.5839 8.60983 69.5969 8.61021C69.623 8.61096 69.6606 8.61246 69.7081 8.61542C69.8032 8.62134 69.9381 8.63312 70.0998 8.65661C70.4224 8.70348 70.8549 8.79748 71.2894 8.98689C71.724 9.17632 72.1657 9.46348 72.499 9.89931C72.8338 10.3371 73.0526 10.9164 73.0526 11.6769C73.0526 12.6027 72.7299 13.2593 72.2726 13.7185C71.8731 14.1197 71.3775 14.3638 70.9227 14.5119L73.5468 18.7105C73.5744 18.7547 73.5759 18.8104 73.5506 18.856ZM69.5551 10.4298H68.2077L69.7701 12.9239C70.2145 12.8809 71.2322 12.6659 71.2322 11.6769C71.2322 10.4298 69.5551 10.4298 69.5551 10.4298ZM69.8436 12.7713C70.0559 12.7432 70.3474 12.6777 70.595 12.5317C70.8712 12.3688 71.0888 12.1101 71.0888 11.6769C71.0888 11.4007 70.9972 11.2009 70.8634 11.0516C70.7269 10.8993 70.5402 10.7931 70.3437 10.7201C70.1478 10.6472 69.9499 10.6102 69.7995 10.5916C69.7247 10.5823 69.6626 10.5777 69.6196 10.5754C69.5981 10.5743 69.5814 10.5737 69.5704 10.5734C69.5649 10.5733 69.5608 10.5732 69.5582 10.5732L69.5555 10.5732L69.5551 10.5732H68.4667L69.8436 12.7713Z"/>
</mask>
<path fill-rule="evenodd" clip-rule="evenodd" d="M28.5674 18.9298C28.508 18.9298 28.4548 18.8932 28.4336 18.8377L28.0245 17.7688H24.6967L24.3014 18.8363C24.2805 18.8925 24.2269 18.9298 24.1669 18.9298H22.3609C22.3136 18.9298 22.2693 18.9065 22.2426 18.8675C22.2159 18.8285 22.2101 18.7788 22.2272 18.7347L26.2264 8.4143C26.2477 8.35915 26.3008 8.32279 26.3599 8.32275C26.4191 8.32272 26.4722 8.35902 26.4936 8.41414L30.5071 18.7345C30.5243 18.7786 30.5185 18.8284 30.4918 18.8674C30.4651 18.9065 30.4208 18.9298 30.3735 18.9298H28.5674ZM24.597 17.6255H28.1231L28.5674 18.7865H30.3735L26.36 8.46609L22.3609 18.7865H24.1669L24.597 17.6255ZM26.36 12.6946L25.1416 16.1777H27.5784L26.36 12.6946ZM26.36 13.1287L25.3436 16.0344H27.3764L26.36 13.1287ZM36.9039 13.0816C36.9039 13.0024 36.9681 12.9383 37.0473 12.9383H40.4014C40.4806 12.9383 40.5448 13.0024 40.5448 13.0816V18.8295C40.5448 18.9087 40.4806 18.9728 40.4014 18.9728H38.9394C38.8652 18.9728 38.8033 18.9163 38.7966 18.8425L38.7361 18.177C37.9524 18.8244 37.1181 19.0732 36.0009 19.0732C34.6197 19.0732 33.3808 18.5914 32.4872 17.6811C31.5932 16.7705 31.0557 15.4423 31.0557 13.7696C31.0557 10.7103 33.369 8.46609 36.2159 8.46609C37.6458 8.46609 38.9294 9.04133 39.8585 9.98527C39.9138 10.0414 39.9134 10.1315 39.8577 10.1872L38.6824 11.3626C38.6264 11.4185 38.5356 11.4185 38.4797 11.3626C37.9038 10.7867 37.0943 10.4298 36.2159 10.4298C35.325 10.4298 34.5276 10.7402 33.9534 11.3076C33.3799 11.8743 33.0195 12.7069 33.0195 13.7696C33.0195 14.9653 33.3821 15.7944 33.9505 16.3256C34.5207 16.8587 35.3168 17.1094 36.2159 17.1094C37.1577 17.1094 37.9927 16.7144 38.581 16.0658V14.816H37.0473C36.9681 14.816 36.9039 14.7518 36.9039 14.6727V13.0816ZM38.7244 16.1204C38.108 16.8228 37.2193 17.2528 36.2159 17.2528C34.3668 17.2528 32.8761 16.2207 32.8761 13.7696C32.8761 11.5765 34.3668 10.2865 36.2159 10.2865C37.133 10.2865 37.9785 10.6589 38.5805 11.2606C38.5806 11.2608 38.5808 11.261 38.581 11.2612L39.7564 10.0859C39.7563 10.0858 39.7564 10.0859 39.7564 10.0859C39.738 10.0672 39.7194 10.0486 39.7007 10.0302C39.6854 10.015 39.6699 10 39.6544 9.98512C38.7605 9.12771 37.5547 8.60943 36.2159 8.60943C33.4495 8.60943 31.1991 10.7882 31.1991 13.7696C31.1991 17.0521 33.3061 18.9298 36.0009 18.9298C37.1262 18.9298 37.9437 18.6734 38.7203 18.0028C38.7648 17.9644 38.8091 17.9246 38.8534 17.8835L38.9394 18.8295H40.4014V13.0816H37.0473V14.6727H38.7244V16.1204ZM49.4237 10.4298C49.4237 10.509 49.3595 10.5732 49.2804 10.5732H44.4068V12.7949H48.4347C48.5138 12.7949 48.578 12.8591 48.578 12.9383V14.601C48.578 14.6802 48.5138 14.7443 48.4347 14.7443H44.4068V16.9661H49.2804C49.3595 16.9661 49.4237 17.0303 49.4237 17.1094V18.7865C49.4237 18.8657 49.3595 18.9298 49.2804 18.9298H42.5864C42.5073 18.9298 42.4431 18.8657 42.4431 18.7865V8.75277C42.4431 8.67361 42.5073 8.60943 42.5864 8.60943H49.2804C49.3595 8.60943 49.4237 8.67361 49.4237 8.75277V10.4298ZM49.2804 17.1094V18.7865H42.5864V8.75277H49.2804V10.4298H44.2635V12.9383H48.4347V14.601H44.2635V17.1094H49.2804ZM56.4027 17.1094V18.7865H51.0132V8.75277H52.6903V17.1094H56.4027ZM52.8336 16.9661H56.4027C56.4819 16.9661 56.5461 17.0303 56.5461 17.1094V18.7865C56.5461 18.8657 56.4819 18.9298 56.4027 18.9298H51.0132C50.934 18.9298 50.8699 18.8657 50.8699 18.7865V8.75277C50.8699 8.67361 50.934 8.60943 51.0132 8.60943H52.6903C52.7694 8.60943 52.8336 8.67361 52.8336 8.75277V16.9661ZM63.2683 18.9298C63.209 18.9298 63.1557 18.8932 63.1345 18.8377L62.7254 17.7688H59.3976L59.0023 18.8363C58.9814 18.8925 58.9278 18.9298 58.8678 18.9298H57.0618C57.0145 18.9298 56.9702 18.9065 56.9435 18.8675C56.9168 18.8285 56.911 18.7788 56.9281 18.7347L60.9273 8.4143C60.9486 8.35915 61.0017 8.32279 61.0608 8.32275C61.12 8.32272 61.1731 8.35902 61.1945 8.41414L65.208 18.7345C65.2252 18.7786 65.2194 18.8284 65.1927 18.8674C65.166 18.9065 65.1217 18.9298 65.0744 18.9298H63.2683ZM59.2979 17.6255H62.824L63.2683 18.7865H65.0744L61.0609 8.46609L57.0618 18.7865H58.8678L59.2979 17.6255ZM61.0609 12.6946L59.8425 16.1777H62.2793L61.0609 12.6946ZM61.0609 13.1287L60.0445 16.0344H62.0773L61.0609 13.1287ZM73.5506 18.856C73.5254 18.9016 73.4774 18.9298 73.4253 18.9298H71.4615C71.412 18.9298 71.366 18.9043 71.3399 18.8623L68.7732 14.7443H68.0357V18.7865C68.0357 18.8657 67.9715 18.9298 67.8924 18.9298H66.2153C66.1361 18.9298 66.072 18.8657 66.072 18.7865V12.9383C66.072 12.8591 66.1361 12.7949 66.2153 12.7949H67.5457L66.0943 10.5066C66.0797 10.4837 66.072 10.457 66.072 10.4298V8.75277C66.072 8.67361 66.1361 8.60943 66.2153 8.60943H69.5551V8.75277H66.2153V10.4298L67.8064 12.9383H66.2153V18.7865H67.8924V14.601H68.8527L71.4615 18.7865H73.4253L70.7018 14.429C70.7488 14.4159 70.7963 14.4018 70.8443 14.3866C71.7924 14.0865 72.9092 13.3687 72.9092 11.6769C72.9092 8.75277 69.5551 8.75277 69.5551 8.75277C69.5551 8.60943 69.5552 8.60943 69.5553 8.60943L69.5555 8.60943L69.5562 8.60943L69.5585 8.60945L69.5667 8.60953C69.5738 8.60963 69.5839 8.60983 69.5969 8.61021C69.623 8.61096 69.6606 8.61246 69.7081 8.61542C69.8032 8.62134 69.9381 8.63312 70.0998 8.65661C70.4224 8.70348 70.8549 8.79748 71.2894 8.98689C71.724 9.17632 72.1657 9.46348 72.499 9.89931C72.8338 10.3371 73.0526 10.9164 73.0526 11.6769C73.0526 12.6027 72.7299 13.2593 72.2726 13.7185C71.8731 14.1197 71.3775 14.3638 70.9227 14.5119L73.5468 18.7105C73.5744 18.7547 73.5759 18.8104 73.5506 18.856ZM69.5551 10.4298H68.2077L69.7701 12.9239C70.2145 12.8809 71.2322 12.6659 71.2322 11.6769C71.2322 10.4298 69.5551 10.4298 69.5551 10.4298ZM69.8436 12.7713C70.0559 12.7432 70.3474 12.6777 70.595 12.5317C70.8712 12.3688 71.0888 12.1101 71.0888 11.6769C71.0888 11.4007 70.9972 11.2009 70.8634 11.0516C70.7269 10.8993 70.5402 10.7931 70.3437 10.7201C70.1478 10.6472 69.9499 10.6102 69.7995 10.5916C69.7247 10.5823 69.6626 10.5777 69.6196 10.5754C69.5981 10.5743 69.5814 10.5737 69.5704 10.5734C69.5649 10.5733 69.5608 10.5732 69.5582 10.5732L69.5555 10.5732L69.5551 10.5732H68.4667L69.8436 12.7713Z" fill="url(#paint4_linear_17_222)"/>
<path d="M28.4336 18.8377L28.467 18.8249H28.467L28.4336 18.8377ZM28.0245 17.7688L28.0579 17.756C28.0526 17.7421 28.0393 17.733 28.0245 17.733V17.7688ZM24.6967 17.7688V17.733C24.6817 17.733 24.6683 17.7423 24.6631 17.7563L24.6967 17.7688ZM24.3014 18.8363L24.2678 18.8238L24.3014 18.8363ZM22.2272 18.7347L22.2606 18.7477H22.2606L22.2272 18.7347ZM26.2264 8.4143L26.193 8.40135V8.40135L26.2264 8.4143ZM26.3599 8.32275L26.36 8.35859L26.3599 8.32275ZM26.4936 8.41414L26.4602 8.42713V8.42713L26.4936 8.41414ZM30.5071 18.7345L30.5405 18.7216L30.5071 18.7345ZM30.4918 18.8674L30.5214 18.8877V18.8877L30.4918 18.8674ZM24.597 17.6255V17.5896C24.582 17.5896 24.5686 17.5989 24.5634 17.613L24.597 17.6255ZM28.1231 17.6255L28.1566 17.6126C28.1513 17.5988 28.1379 17.5896 28.1231 17.5896V17.6255ZM28.5674 18.7865L28.534 18.7993C28.5393 18.8132 28.5526 18.8223 28.5674 18.8223V18.7865ZM30.3735 18.7865V18.8223C30.3853 18.8223 30.3964 18.8165 30.4031 18.8067C30.4098 18.797 30.4112 18.7845 30.4069 18.7735L30.3735 18.7865ZM26.36 8.46609L26.3934 8.4531C26.3881 8.43932 26.3748 8.43025 26.36 8.43026C26.3452 8.43027 26.332 8.43936 26.3266 8.45314L26.36 8.46609ZM22.3609 18.7865L22.3275 18.7735C22.3232 18.7846 22.3246 18.797 22.3313 18.8067C22.338 18.8165 22.349 18.8223 22.3609 18.8223V18.7865ZM24.1669 18.7865V18.8223C24.1819 18.8223 24.1953 18.813 24.2005 18.7989L24.1669 18.7865ZM26.36 12.6946L26.3939 12.6828C26.3888 12.6684 26.3753 12.6588 26.36 12.6588C26.3448 12.6588 26.3312 12.6684 26.3262 12.6828L26.36 12.6946ZM25.1416 16.1777L25.1078 16.1659C25.104 16.1769 25.1057 16.189 25.1124 16.1985C25.1191 16.2079 25.13 16.2136 25.1416 16.2136V16.1777ZM27.5784 16.1777V16.2136C27.59 16.2136 27.6009 16.2079 27.6076 16.1985C27.6144 16.189 27.6161 16.1769 27.6122 16.1659L27.5784 16.1777ZM25.3436 16.0344L25.3098 16.0226C25.306 16.0335 25.3077 16.0457 25.3144 16.0551C25.3211 16.0646 25.332 16.0702 25.3436 16.0702V16.0344ZM26.36 13.1287L26.3939 13.1169C26.3888 13.1025 26.3753 13.0929 26.36 13.0929C26.3448 13.0929 26.3312 13.1025 26.3262 13.1169L26.36 13.1287ZM27.3764 16.0344V16.0702C27.388 16.0702 27.3989 16.0646 27.4056 16.0551C27.4124 16.0457 27.4141 16.0335 27.4102 16.0226L27.3764 16.0344ZM38.7966 18.8425L38.8323 18.8392L38.7966 18.8425ZM38.7361 18.177L38.7718 18.1738C38.7706 18.1605 38.7622 18.1491 38.7499 18.144C38.7376 18.1388 38.7235 18.1409 38.7133 18.1494L38.7361 18.177ZM32.4872 17.6811L32.5127 17.656L32.4872 17.6811ZM39.8585 9.98527L39.833 10.0104L39.8585 9.98527ZM39.8577 10.1872L39.8324 10.1618L39.8577 10.1872ZM38.6824 11.3626L38.7077 11.3879V11.3879L38.6824 11.3626ZM38.4797 11.3626L38.4543 11.3879V11.3879L38.4797 11.3626ZM33.9534 11.3076L33.9786 11.3331L33.9534 11.3076ZM33.9505 16.3256L33.975 16.2995L33.9505 16.3256ZM38.581 16.0658L38.6076 16.0898C38.6135 16.0832 38.6168 16.0747 38.6168 16.0658H38.581ZM38.581 14.816H38.6168C38.6168 14.7962 38.6008 14.7802 38.581 14.7802V14.816ZM38.7244 16.1204L38.7513 16.144C38.757 16.1375 38.7602 16.1291 38.7602 16.1204H38.7244ZM38.5805 11.2606L38.5551 11.286L38.5551 11.286L38.5805 11.2606ZM38.581 11.2612L38.5557 11.2866C38.5697 11.3005 38.5924 11.3005 38.6064 11.2865L38.581 11.2612ZM39.7007 10.0302L39.6756 10.0557V10.0557L39.7007 10.0302ZM39.6544 9.98512L39.6296 10.011V10.011L39.6544 9.98512ZM38.7203 18.0028L38.6969 17.9757L38.7203 18.0028ZM38.8534 17.8835L38.889 17.8802C38.8878 17.8666 38.8789 17.8549 38.8662 17.85C38.8534 17.8451 38.839 17.8479 38.829 17.8572L38.8534 17.8835ZM38.9394 18.8295L38.9037 18.8327C38.9054 18.8512 38.9208 18.8653 38.9394 18.8653V18.8295ZM40.4014 18.8295V18.8653C40.4212 18.8653 40.4373 18.8493 40.4373 18.8295H40.4014ZM40.4014 13.0816H40.4373C40.4373 13.0618 40.4212 13.0458 40.4014 13.0458V13.0816ZM37.0473 13.0816V13.0458C37.0275 13.0458 37.0115 13.0618 37.0115 13.0816H37.0473ZM37.0473 14.6727H37.0115C37.0115 14.6925 37.0275 14.7085 37.0473 14.7085V14.6727ZM38.7244 14.6727H38.7602C38.7602 14.6529 38.7441 14.6368 38.7244 14.6368V14.6727ZM44.4068 10.5732V10.5373C44.3871 10.5373 44.371 10.5534 44.371 10.5732H44.4068ZM44.4068 12.7949H44.371C44.371 12.8147 44.3871 12.8308 44.4068 12.8308V12.7949ZM44.4068 14.7443V14.7085C44.3871 14.7085 44.371 14.7245 44.371 14.7443H44.4068ZM44.4068 16.9661H44.371C44.371 16.9859 44.3871 17.0019 44.4068 17.0019V16.9661ZM49.2804 17.1094H49.3162C49.3162 17.0896 49.3002 17.0736 49.2804 17.0736V17.1094ZM49.2804 18.7865V18.8223C49.3002 18.8223 49.3162 18.8063 49.3162 18.7865H49.2804ZM42.5864 18.7865H42.5506C42.5506 18.8063 42.5667 18.8223 42.5864 18.8223V18.7865ZM42.5864 8.75277V8.71694C42.5667 8.71694 42.5506 8.73298 42.5506 8.75277H42.5864ZM49.2804 8.75277H49.3162C49.3162 8.73298 49.3002 8.71694 49.2804 8.71694V8.75277ZM49.2804 10.4298V10.4657C49.3002 10.4657 49.3162 10.4496 49.3162 10.4298H49.2804ZM44.2635 10.4298V10.394C44.2437 10.394 44.2277 10.41 44.2277 10.4298H44.2635ZM44.2635 12.9383H44.2277C44.2277 12.9581 44.2437 12.9741 44.2635 12.9741V12.9383ZM48.4347 12.9383H48.4705C48.4705 12.9185 48.4545 12.9024 48.4347 12.9024V12.9383ZM48.4347 14.601V14.6368C48.4545 14.6368 48.4705 14.6208 48.4705 14.601H48.4347ZM44.2635 14.601V14.5652C44.2437 14.5652 44.2277 14.5812 44.2277 14.601H44.2635ZM44.2635 17.1094H44.2277C44.2277 17.1292 44.2437 17.1453 44.2635 17.1453V17.1094ZM56.4027 17.1094H56.4386C56.4386 17.0896 56.4225 17.0736 56.4027 17.0736V17.1094ZM56.4027 18.7865V18.8223C56.4225 18.8223 56.4386 18.8063 56.4386 18.7865H56.4027ZM51.0132 18.7865H50.9774C50.9774 18.8063 50.9934 18.8223 51.0132 18.8223V18.7865ZM51.0132 8.75277V8.71694C50.9934 8.71694 50.9774 8.73298 50.9774 8.75277H51.0132ZM52.6903 8.75277H52.7261C52.7261 8.73298 52.7101 8.71694 52.6903 8.71694V8.75277ZM52.6903 17.1094H52.6544C52.6544 17.1292 52.6705 17.1453 52.6903 17.1453V17.1094ZM52.8336 16.9661H52.7978C52.7978 16.9859 52.8138 17.0019 52.8336 17.0019V16.9661ZM63.1345 18.8377L63.101 18.8505L63.101 18.8505L63.1345 18.8377ZM62.7254 17.7688L62.7588 17.756C62.7535 17.7421 62.7402 17.733 62.7254 17.733V17.7688ZM59.3976 17.7688V17.733C59.3826 17.733 59.3692 17.7423 59.364 17.7563L59.3976 17.7688ZM59.0023 18.8363L58.9687 18.8238L59.0023 18.8363ZM56.9281 18.7347L56.9615 18.7477V18.7477L56.9281 18.7347ZM60.9273 8.4143L60.9607 8.42725L60.9607 8.42725L60.9273 8.4143ZM61.0608 8.32275L61.0609 8.35859L61.0608 8.32275ZM61.1945 8.41414L61.2279 8.40115L61.2279 8.40115L61.1945 8.41414ZM65.208 18.7345L65.1746 18.7475V18.7475L65.208 18.7345ZM65.1927 18.8674L65.2223 18.8877L65.2223 18.8877L65.1927 18.8674ZM59.2979 17.6255V17.5896C59.2829 17.5896 59.2695 17.5989 59.2643 17.613L59.2979 17.6255ZM62.824 17.6255L62.8575 17.6126C62.8522 17.5988 62.8388 17.5896 62.824 17.5896V17.6255ZM63.2683 18.7865L63.2349 18.7993C63.2402 18.8132 63.2535 18.8223 63.2683 18.8223V18.7865ZM65.0744 18.7865V18.8223C65.0862 18.8223 65.0973 18.8165 65.104 18.8067C65.1107 18.797 65.1121 18.7845 65.1078 18.7735L65.0744 18.7865ZM61.0609 8.46609L61.0943 8.4531C61.089 8.43932 61.0757 8.43025 61.0609 8.43026C61.0461 8.43027 61.0329 8.43936 61.0275 8.45314L61.0609 8.46609ZM57.0618 18.7865L57.0284 18.7735C57.0241 18.7846 57.0255 18.797 57.0322 18.8067C57.0389 18.8165 57.0499 18.8223 57.0618 18.8223V18.7865ZM58.8678 18.7865V18.8223C58.8828 18.8223 58.8962 18.813 58.9014 18.7989L58.8678 18.7865ZM61.0609 12.6946L61.0948 12.6828C61.0897 12.6684 61.0762 12.6588 61.0609 12.6588C61.0457 12.6588 61.0321 12.6684 61.0271 12.6828L61.0609 12.6946ZM59.8425 16.1777L59.8087 16.1659C59.8049 16.1769 59.8066 16.189 59.8133 16.1985C59.82 16.2079 59.8309 16.2136 59.8425 16.2136V16.1777ZM62.2793 16.1777V16.2136C62.2909 16.2136 62.3018 16.2079 62.3085 16.1985C62.3153 16.189 62.317 16.1769 62.3131 16.1659L62.2793 16.1777ZM60.0445 16.0344L60.0107 16.0226C60.0069 16.0335 60.0086 16.0457 60.0153 16.0551C60.022 16.0646 60.0329 16.0702 60.0445 16.0702V16.0344ZM61.0609 13.1287L61.0948 13.1169C61.0897 13.1025 61.0762 13.0929 61.0609 13.0929C61.0457 13.0929 61.0321 13.1025 61.0271 13.1169L61.0609 13.1287ZM62.0773 16.0344V16.0702C62.0889 16.0702 62.0998 16.0646 62.1065 16.0551C62.1133 16.0457 62.115 16.0335 62.1111 16.0226L62.0773 16.0344ZM73.5506 18.856L73.582 18.8734V18.8734L73.5506 18.856ZM71.3399 18.8623L71.3095 18.8813V18.8813L71.3399 18.8623ZM68.7732 14.7443L68.8036 14.7254C68.7971 14.7149 68.7856 14.7085 68.7732 14.7085V14.7443ZM68.0357 14.7443V14.7085C68.0159 14.7085 67.9999 14.7245 67.9999 14.7443H68.0357ZM67.5457 12.7949V12.8308C67.5588 12.8308 67.5708 12.8236 67.5771 12.8122C67.5834 12.8007 67.583 12.7868 67.576 12.7757L67.5457 12.7949ZM66.0943 10.5066L66.064 10.5258V10.5258L66.0943 10.5066ZM69.5551 8.60943H69.5909C69.5909 8.58964 69.5749 8.5736 69.5551 8.5736V8.60943ZM66.2153 8.75277V8.71694C66.1955 8.71694 66.1795 8.73298 66.1795 8.75277H66.2153ZM66.2153 10.4298H66.1795C66.1795 10.4366 66.1814 10.4433 66.185 10.449L66.2153 10.4298ZM67.8064 12.9383V12.9741C67.8194 12.9741 67.8315 12.967 67.8378 12.9555C67.8441 12.9441 67.8436 12.9301 67.8366 12.9191L67.8064 12.9383ZM66.2153 12.9383V12.9024C66.1955 12.9024 66.1795 12.9185 66.1795 12.9383H66.2153ZM66.2153 18.7865H66.1795C66.1795 18.8063 66.1955 18.8223 66.2153 18.8223V18.7865ZM67.8924 18.7865V18.8223C67.9122 18.8223 67.9282 18.8063 67.9282 18.7865H67.8924ZM67.8924 14.601V14.5652C67.8726 14.5652 67.8565 14.5812 67.8565 14.601H67.8924ZM68.8527 14.601L68.8832 14.582C68.8766 14.5715 68.8651 14.5652 68.8527 14.5652V14.601ZM71.4615 18.7865L71.4311 18.8055C71.4376 18.816 71.4491 18.8223 71.4615 18.8223V18.7865ZM73.4253 18.7865V18.8223C73.4383 18.8223 73.4503 18.8153 73.4566 18.8039C73.4629 18.7925 73.4625 18.7786 73.4556 18.7675L73.4253 18.7865ZM70.7018 14.429L70.6922 14.3945C70.6813 14.3975 70.6725 14.4055 70.6684 14.416C70.6643 14.4266 70.6654 14.4384 70.6714 14.448L70.7018 14.429ZM70.8443 14.3866L70.8335 14.3524L70.8443 14.3866ZM69.5553 8.60943L69.5553 8.5736L69.5553 8.5736L69.5553 8.60943ZM69.5555 8.60943L69.5556 8.5736L69.5555 8.5736L69.5555 8.60943ZM69.5562 8.60943L69.5564 8.5736L69.5563 8.5736L69.5562 8.60943ZM69.5585 8.60945L69.5589 8.57361L69.5587 8.57361L69.5585 8.60945ZM69.5667 8.60953L69.5672 8.5737L69.5671 8.5737L69.5667 8.60953ZM69.5969 8.61021L69.5959 8.64603L69.5969 8.61021ZM69.7081 8.61542L69.7059 8.65119L69.7081 8.61542ZM70.0998 8.65661L70.0946 8.69207L70.0998 8.65661ZM71.2894 8.98689L71.2751 9.01974L71.2894 8.98689ZM72.499 9.89931L72.4706 9.92108V9.92108L72.499 9.89931ZM72.2726 13.7185L72.2472 13.6932V13.6932L72.2726 13.7185ZM70.9227 14.5119L70.9116 14.4779C70.9011 14.4813 70.8928 14.4893 70.889 14.4997C70.8852 14.5101 70.8865 14.5216 70.8923 14.5309L70.9227 14.5119ZM73.5468 18.7105L73.5772 18.6915V18.6915L73.5468 18.7105ZM69.5551 10.4298V10.4657V10.4298ZM68.2077 10.4298V10.394C68.1947 10.394 68.1827 10.4011 68.1764 10.4125C68.1701 10.4239 68.1704 10.4378 68.1773 10.4489L68.2077 10.4298ZM69.7701 12.9239L69.7397 12.943C69.747 12.9545 69.76 12.9609 69.7736 12.9596L69.7701 12.9239ZM70.595 12.5317L70.5768 12.5008L70.595 12.5317ZM69.8436 12.7713L69.8132 12.7903C69.8207 12.8022 69.8344 12.8086 69.8483 12.8068L69.8436 12.7713ZM70.8634 11.0516L70.8901 11.0277L70.8634 11.0516ZM70.3437 10.7201L70.3562 10.6865L70.3437 10.7201ZM69.7995 10.5916L69.7951 10.6271L69.7995 10.5916ZM69.6196 10.5754L69.6177 10.6112L69.6196 10.5754ZM69.5704 10.5734L69.5695 10.6093L69.5704 10.5734ZM69.5582 10.5732L69.5586 10.5374L69.5585 10.5374L69.5582 10.5732ZM69.5555 10.5732L69.5558 10.5373L69.5557 10.5373L69.5555 10.5732ZM69.5551 10.5732L69.5553 10.5373H69.5551V10.5732ZM68.4667 10.5732V10.5373C68.4536 10.5373 68.4416 10.5444 68.4353 10.5558C68.429 10.5672 68.4294 10.5812 68.4363 10.5922L68.4667 10.5732ZM28.4336 18.8377L28.4001 18.8505C28.4266 18.9199 28.4932 18.9657 28.5674 18.9657V18.9298V18.894C28.5229 18.894 28.483 18.8665 28.467 18.8249L28.4336 18.8377ZM28.0245 17.7688L27.991 17.7816L28.4001 18.8505L28.4336 18.8377L28.467 18.8249L28.0579 17.756L28.0245 17.7688ZM24.6967 17.7688V17.8046H28.0245V17.7688V17.733H24.6967V17.7688ZM24.3014 18.8363L24.335 18.8487L24.7303 17.7812L24.6967 17.7688L24.6631 17.7563L24.2678 18.8238L24.3014 18.8363ZM24.1669 18.9298V18.9657C24.2419 18.9657 24.3089 18.919 24.335 18.8487L24.3014 18.8363L24.2678 18.8238C24.2521 18.866 24.2119 18.894 24.1669 18.894V18.9298ZM22.3609 18.9298V18.9657H24.1669V18.9298V18.894H22.3609V18.9298ZM22.2426 18.8675L22.213 18.8877C22.2465 18.9365 22.3018 18.9657 22.3609 18.9657V18.9298V18.894C22.3254 18.894 22.2922 18.8765 22.2722 18.8472L22.2426 18.8675ZM22.2272 18.7347L22.1938 18.7218C22.1724 18.7769 22.1796 18.839 22.213 18.8877L22.2426 18.8675L22.2722 18.8472C22.2521 18.818 22.2478 18.7807 22.2606 18.7477L22.2272 18.7347ZM26.2264 8.4143L26.193 8.40135L22.1938 18.7218L22.2272 18.7347L22.2606 18.7477L26.2598 8.42725L26.2264 8.4143ZM26.3599 8.32275L26.3599 8.28692C26.286 8.28696 26.2197 8.33242 26.193 8.40135L26.2264 8.4143L26.2598 8.42725C26.2758 8.38589 26.3156 8.35862 26.36 8.35859L26.3599 8.32275ZM26.4936 8.41414L26.527 8.40115C26.5002 8.33225 26.4339 8.28687 26.3599 8.28692L26.3599 8.32275L26.36 8.35859C26.4043 8.35856 26.4441 8.38578 26.4602 8.42713L26.4936 8.41414ZM30.5071 18.7345L30.5405 18.7216L26.527 8.40115L26.4936 8.41414L26.4602 8.42713L30.4737 18.7475L30.5071 18.7345ZM30.4918 18.8674L30.5214 18.8877C30.5548 18.8388 30.5619 18.7767 30.5405 18.7216L30.5071 18.7345L30.4737 18.7475C30.4866 18.7806 30.4823 18.8179 30.4622 18.8472L30.4918 18.8674ZM30.3735 18.9298V18.9657C30.4327 18.9657 30.488 18.9365 30.5214 18.8877L30.4918 18.8674L30.4622 18.8472C30.4422 18.8765 30.409 18.894 30.3735 18.894V18.9298ZM28.5674 18.9298V18.9657H30.3735V18.9298V18.894H28.5674V18.9298ZM24.597 17.6255V17.6613H28.1231V17.6255V17.5896H24.597V17.6255ZM28.1231 17.6255L28.0896 17.6383L28.534 18.7993L28.5674 18.7865L28.6009 18.7737L28.1566 17.6126L28.1231 17.6255ZM24.1669 18.7865L24.2005 18.7989L24.6306 17.6379L24.597 17.6255L24.5634 17.613L24.1333 18.7741L24.1669 18.7865ZM25.3436 16.0344L25.3775 16.0462L26.3939 13.1406L26.36 13.1287L26.3262 13.1169L25.3098 16.0226L25.3436 16.0344ZM27.3764 16.0344V15.9986H25.3436V16.0344V16.0702H27.3764V16.0344ZM26.36 13.1287L26.3262 13.1406L27.3426 16.0462L27.3764 16.0344L27.4102 16.0226L26.3939 13.1169L26.36 13.1287ZM37.0473 12.9383V12.9024C36.9483 12.9024 36.8681 12.9827 36.8681 13.0816H36.9039H36.9398C36.9398 13.0222 36.9879 12.9741 37.0473 12.9741V12.9383ZM40.4014 12.9383V12.9024H37.0473V12.9383V12.9741H40.4014V12.9383ZM40.5448 13.0816H40.5806C40.5806 12.9827 40.5004 12.9024 40.4014 12.9024V12.9383V12.9741C40.4608 12.9741 40.5089 13.0222 40.5089 13.0816H40.5448ZM40.5448 18.8295H40.5806V13.0816H40.5448H40.5089V18.8295H40.5448ZM40.4014 18.9728V19.0087C40.5004 19.0087 40.5806 18.9285 40.5806 18.8295H40.5448H40.5089C40.5089 18.8889 40.4608 18.937 40.4014 18.937V18.9728ZM38.9394 18.9728V19.0087H40.4014V18.9728V18.937H38.9394V18.9728ZM38.7966 18.8425L38.7609 18.8457C38.7693 18.938 38.8467 19.0087 38.9394 19.0087V18.9728V18.937C38.8838 18.937 38.8373 18.8946 38.8323 18.8392L38.7966 18.8425ZM38.7361 18.177L38.7004 18.1803L38.7609 18.8457L38.7966 18.8425L38.8323 18.8392L38.7718 18.1738L38.7361 18.177ZM36.0009 19.0732V19.109C37.1246 19.109 37.9675 18.8584 38.7589 18.2047L38.7361 18.177L38.7133 18.1494C37.9373 18.7904 37.1117 19.0373 36.0009 19.0373V19.0732ZM32.4872 17.6811L32.4616 17.7062C33.3627 18.6242 34.6112 19.109 36.0009 19.109V19.0732V19.0373C34.6281 19.0373 33.3989 18.5586 32.5127 17.656L32.4872 17.6811ZM31.0557 13.7696H31.0199C31.0199 15.4502 31.5601 16.7879 32.4616 17.7062L32.4872 17.6811L32.5127 17.656C31.6264 16.7531 31.0916 15.4345 31.0916 13.7696H31.0557ZM36.2159 8.46609V8.43026C33.3489 8.43026 31.0199 10.6909 31.0199 13.7696H31.0557H31.0916C31.0916 10.7298 33.3891 8.50193 36.2159 8.50193V8.46609ZM39.8585 9.98527L39.8841 9.96013C38.9483 9.00954 37.6557 8.43026 36.2159 8.43026V8.46609V8.50193C37.6359 8.50193 38.9104 9.07311 39.833 10.0104L39.8585 9.98527ZM39.8577 10.1872L39.8831 10.2125C39.9527 10.1429 39.9531 10.0303 39.8841 9.96013L39.8585 9.98527L39.833 10.0104C39.8744 10.0525 39.8742 10.1201 39.8324 10.1618L39.8577 10.1872ZM38.6824 11.3626L38.7077 11.3879L39.8831 10.2125L39.8577 10.1872L39.8324 10.1618L38.657 11.3372L38.6824 11.3626ZM38.4797 11.3626L38.4543 11.3879C38.5243 11.4579 38.6377 11.4579 38.7077 11.3879L38.6824 11.3626L38.657 11.3372C38.615 11.3792 38.547 11.3792 38.505 11.3372L38.4797 11.3626ZM36.2159 10.4298V10.4657C37.0846 10.4657 37.885 10.8186 38.4543 11.3879L38.4797 11.3626L38.505 11.3372C37.9226 10.7548 37.1041 10.394 36.2159 10.394V10.4298ZM33.9534 11.3076L33.9786 11.3331C34.5454 10.773 35.3334 10.4657 36.2159 10.4657V10.4298V10.394C35.3166 10.394 34.5098 10.7074 33.9282 11.2821L33.9534 11.3076ZM33.0195 13.7696H33.0553C33.0553 12.7153 33.4126 11.8923 33.9786 11.3331L33.9534 11.3076L33.9282 11.2821C33.3471 11.8563 32.9836 12.6984 32.9836 13.7696H33.0195ZM33.9505 16.3256L33.975 16.2995C33.4155 15.7765 33.0553 14.9578 33.0553 13.7696H33.0195H32.9836C32.9836 14.9727 33.3488 15.8123 33.926 16.3518L33.9505 16.3256ZM36.2159 17.1094V17.0736C35.3232 17.0736 34.5368 16.8246 33.975 16.2995L33.9505 16.3256L33.926 16.3518C34.5047 16.8927 35.3104 17.1453 36.2159 17.1453V17.1094ZM38.581 16.0658L38.5545 16.0417C37.9728 16.683 37.1473 17.0736 36.2159 17.0736V17.1094V17.1453C37.1681 17.1453 38.0127 16.7457 38.6076 16.0898L38.581 16.0658ZM38.581 14.816H38.5452V16.0658H38.581H38.6168V14.816H38.581ZM37.0473 14.816V14.8518H38.581V14.816V14.7802H37.0473V14.816ZM36.9039 14.6727H36.8681C36.8681 14.7716 36.9483 14.8518 37.0473 14.8518V14.816V14.7802C36.9879 14.7802 36.9398 14.732 36.9398 14.6727H36.9039ZM36.9039 13.0816H36.8681V14.6727H36.9039H36.9398V13.0816H36.9039ZM38.7244 16.1204L38.6974 16.0968C38.0877 16.7916 37.2087 17.2169 36.2159 17.2169V17.2528V17.2886C37.2299 17.2886 38.1283 16.8539 38.7513 16.144L38.7244 16.1204ZM36.2159 17.2528V17.2169C35.2977 17.2169 34.4725 16.9607 33.8771 16.4042C33.2821 15.8481 32.912 14.9877 32.912 13.7696H32.8761H32.8403C32.8403 15.0027 33.2155 15.8839 33.8282 16.4565C34.4404 17.0288 35.285 17.2886 36.2159 17.2886V17.2528ZM32.8761 13.7696H32.912C32.912 12.6815 33.2816 11.8203 33.8778 11.2311C34.4742 10.6418 35.2998 10.3223 36.2159 10.3223V10.2865V10.2507C35.283 10.2507 34.4387 10.5762 33.8274 11.1802C33.216 11.7843 32.8403 12.6646 32.8403 13.7696H32.8761ZM36.2159 10.2865V10.3223C37.1233 10.3223 37.9597 10.6908 38.5551 11.286L38.5805 11.2606L38.6058 11.2353C37.9972 10.6271 37.1427 10.2507 36.2159 10.2507V10.2865ZM38.5805 11.2606L38.5551 11.286C38.5552 11.2861 38.5553 11.2862 38.5554 11.2863C38.5555 11.2864 38.5556 11.2865 38.5557 11.2866L38.581 11.2612L38.6063 11.2358C38.6062 11.2358 38.6062 11.2357 38.6061 11.2356C38.606 11.2355 38.6059 11.2354 38.6058 11.2353L38.5805 11.2606ZM39.7564 10.0859L39.7823 10.0611C39.7823 10.0611 39.7823 10.0611 39.7823 10.0611C39.7823 10.0611 39.7823 10.0611 39.7823 10.0611C39.7823 10.0611 39.7823 10.0611 39.7823 10.0611C39.7823 10.0611 39.7823 10.0611 39.7823 10.0611C39.7823 10.0611 39.7823 10.0611 39.7823 10.0611C39.7316 10.0599 39.7304 10.1106 39.7304 10.1106C39.7304 10.1106 39.7304 10.1106 39.7304 10.1106C39.7304 10.1106 39.7304 10.1106 39.7304 10.1106C39.7304 10.1106 39.7304 10.1106 39.7304 10.1106C39.7304 10.1106 39.7304 10.1106 39.7304 10.1106C39.7304 10.1106 39.7304 10.1106 39.7304 10.1106C39.7304 10.1106 39.7304 10.1106 39.7304 10.1106C39.7304 10.1106 39.7304 10.1106 39.7304 10.1106V10.1106C39.7304 10.1106 39.7304 10.1106 39.7304 10.1106C39.7304 10.1106 39.7304 10.1106 39.7304 10.1106C39.7304 10.1106 39.7304 10.1106 39.7304 10.1106V10.1106C39.7304 10.1106 39.7304 10.1106 39.7304 10.1106C39.7304 10.1106 39.7304 10.1106 39.7304 10.1106C39.7304 10.1106 39.7304 10.1106 39.7304 10.1106C39.7304 10.1106 39.7304 10.1106 39.7304 10.1106C39.7304 10.1106 39.7304 10.1106 39.7304 10.1106C39.7304 10.1106 39.7304 10.1106 39.7304 10.1106C39.7304 10.1106 39.7304 10.1106 39.7304 10.1106C39.7304 10.1106 39.7304 10.1106 39.7304 10.1106C39.7304 10.1106 39.7316 10.0599 39.7823 10.0612C39.7823 10.0612 39.7823 10.0612 39.7823 10.0612C39.7823 10.0612 39.7823 10.0612 39.7823 10.0612C39.7823 10.0612 39.7823 10.0612 39.7823 10.0612C39.7823 10.0612 39.7823 10.0612 39.7823 10.0612C39.7823 10.0612 39.7823 10.0612 39.7823 10.0612C39.7823 10.0611 39.7823 10.0612 39.7823 10.0611L39.7564 10.0859L39.7304 10.1106C39.7304 10.1106 39.7304 10.1106 39.7304 10.1106C39.7304 10.1106 39.7304 10.1106 39.7304 10.1106C39.7304 10.1106 39.7304 10.1106 39.7304 10.1106C39.7304 10.1106 39.7304 10.1106 39.7304 10.1106C39.7304 10.1106 39.7304 10.1106 39.7304 10.1106C39.7811 10.1118 39.7823 10.0612 39.7823 10.0612C39.7823 10.0612 39.7823 10.0612 39.7823 10.0612C39.7823 10.0612 39.7823 10.0612 39.7823 10.0612C39.7823 10.0612 39.7823 10.0612 39.7823 10.0612C39.7823 10.0612 39.7823 10.0612 39.7823 10.0611C39.7823 10.0611 39.7823 10.0611 39.7823 10.0611C39.7823 10.0611 39.7823 10.0611 39.7823 10.0611C39.7823 10.0611 39.7823 10.0611 39.7823 10.0611C39.7823 10.0611 39.7823 10.0611 39.7823 10.0611C39.7823 10.0611 39.7823 10.0612 39.7823 10.0611C39.7823 10.0611 39.7823 10.0611 39.7823 10.0611V10.0611C39.7823 10.0611 39.7823 10.0611 39.7823 10.0611C39.7823 10.0611 39.7823 10.0611 39.7823 10.0611C39.7823 10.0611 39.7823 10.0611 39.7823 10.0611C39.7823 10.0611 39.7823 10.0611 39.7823 10.0611C39.7823 10.0611 39.7823 10.0611 39.7823 10.0611C39.7823 10.0611 39.7823 10.0611 39.7823 10.0611C39.7823 10.0611 39.7823 10.0611 39.7823 10.0611C39.7823 10.0611 39.7823 10.0611 39.7823 10.0611C39.7823 10.0611 39.7811 10.1118 39.7304 10.1106C39.7304 10.1106 39.7304 10.1106 39.7304 10.1106C39.7304 10.1106 39.7304 10.1106 39.7304 10.1106C39.7304 10.1106 39.7304 10.1106 39.7304 10.1106C39.7304 10.1106 39.7304 10.1106 39.7304 10.1106C39.7304 10.1106 39.7304 10.1106 39.7304 10.1106L39.7564 10.0859ZM39.7564 10.0859L39.7819 10.0607C39.7634 10.0419 39.7447 10.0232 39.7259 10.0046L39.7007 10.0302L39.6756 10.0557C39.6941 10.0739 39.7125 10.0924 39.7308 10.111L39.7564 10.0859ZM39.7007 10.0302L39.7259 10.0046C39.7104 9.9894 39.6948 9.97428 39.6792 9.95926L39.6544 9.98512L39.6296 10.011C39.645 10.0258 39.6603 10.0407 39.6756 10.0557L39.7007 10.0302ZM39.6544 9.98512L39.6792 9.95926C38.7789 9.09562 37.5642 8.5736 36.2159 8.5736V8.60943V8.64527C37.5452 8.64527 38.7422 9.15979 39.6296 10.011L39.6544 9.98512ZM36.2159 8.60943V8.5736C33.4294 8.5736 31.1632 10.7687 31.1632 13.7696H31.1991H31.2349C31.2349 10.8076 33.4696 8.64527 36.2159 8.64527V8.60943ZM31.1991 13.7696H31.1632C31.1632 15.4187 31.6927 16.7183 32.5639 17.6058C33.435 18.4932 34.6451 18.9657 36.0009 18.9657V18.9298V18.894C34.662 18.894 33.4711 18.4277 32.615 17.5556C31.759 16.6835 31.2349 15.403 31.2349 13.7696H31.1991ZM36.0009 18.9298V18.9657C37.133 18.9657 37.9594 18.7072 38.7437 18.0299L38.7203 18.0028L38.6969 17.9757C37.928 18.6396 37.1193 18.894 36.0009 18.894V18.9298ZM38.7203 18.0028L38.7437 18.0299C38.7885 17.9912 38.8332 17.9511 38.8778 17.9097L38.8534 17.8835L38.829 17.8572C38.785 17.8981 38.741 17.9376 38.6969 17.9757L38.7203 18.0028ZM49.2804 10.5732V10.609C49.3793 10.609 49.4595 10.5288 49.4595 10.4298H49.4237H49.3879C49.3879 10.4892 49.3397 10.5373 49.2804 10.5373V10.5732ZM44.4068 10.5732V10.609H49.2804V10.5732V10.5373H44.4068V10.5732ZM44.4068 12.7949H44.4427V10.5732H44.4068H44.371V12.7949H44.4068ZM48.4347 12.7949V12.7591H44.4068V12.7949V12.8308H48.4347V12.7949ZM48.578 12.9383H48.6138C48.6138 12.8393 48.5336 12.7591 48.4347 12.7591V12.7949V12.8308C48.494 12.8308 48.5422 12.8789 48.5422 12.9383H48.578ZM48.578 14.601H48.6138V12.9383H48.578H48.5422V14.601H48.578ZM48.4347 14.7443V14.7802C48.5336 14.7802 48.6138 14.7 48.6138 14.601H48.578H48.5422C48.5422 14.6604 48.494 14.7085 48.4347 14.7085V14.7443ZM44.4068 14.7443V14.7802H48.4347V14.7443V14.7085H44.4068V14.7443ZM44.4068 16.9661H44.4427V14.7443H44.4068H44.371V16.9661H44.4068ZM49.2804 16.9661V16.9303H44.4068V16.9661V17.0019H49.2804V16.9661ZM49.4237 17.1094H49.4595C49.4595 17.0105 49.3793 16.9303 49.2804 16.9303V16.9661V17.0019C49.3397 17.0019 49.3879 17.0501 49.3879 17.1094H49.4237ZM49.4237 18.7865H49.4595V17.1094H49.4237H49.3879V18.7865H49.4237ZM49.2804 18.9298V18.9657C49.3793 18.9657 49.4595 18.8855 49.4595 18.7865H49.4237H49.3879C49.3879 18.8459 49.3397 18.894 49.2804 18.894V18.9298ZM42.5864 18.9298V18.9657H49.2804V18.9298V18.894H42.5864V18.9298ZM42.4431 18.7865H42.4073C42.4073 18.8855 42.4875 18.9657 42.5864 18.9657V18.9298V18.894C42.5271 18.894 42.4789 18.8459 42.4789 18.7865H42.4431ZM42.4431 8.75277H42.4073V18.7865H42.4431H42.4789V8.75277H42.4431ZM42.5864 8.60943V8.5736C42.4875 8.5736 42.4073 8.65382 42.4073 8.75277H42.4431H42.4789C42.4789 8.6934 42.5271 8.64527 42.5864 8.64527V8.60943ZM49.2804 8.60943V8.5736H42.5864V8.60943V8.64527H49.2804V8.60943ZM49.4237 8.75277H49.4595C49.4595 8.65382 49.3793 8.5736 49.2804 8.5736V8.60943V8.64527C49.3397 8.64527 49.3879 8.6934 49.3879 8.75277H49.4237ZM49.4237 10.4298H49.4595V8.75277H49.4237H49.3879V10.4298H49.4237ZM56.4027 16.9661V16.9303H52.8336V16.9661V17.0019H56.4027V16.9661ZM56.5461 17.1094H56.5819C56.5819 17.0105 56.5017 16.9303 56.4027 16.9303V16.9661V17.0019C56.4621 17.0019 56.5103 17.0501 56.5103 17.1094H56.5461ZM56.5461 18.7865H56.5819V17.1094H56.5461H56.5103V18.7865H56.5461ZM56.4027 18.9298V18.9657C56.5017 18.9657 56.5819 18.8855 56.5819 18.7865H56.5461H56.5103C56.5103 18.8459 56.4621 18.894 56.4027 18.894V18.9298ZM51.0132 18.9298V18.9657H56.4027V18.9298V18.894H51.0132V18.9298ZM50.8699 18.7865H50.834C50.834 18.8855 50.9142 18.9657 51.0132 18.9657V18.9298V18.894C50.9538 18.894 50.9057 18.8459 50.9057 18.7865H50.8699ZM50.8699 8.75277H50.834V18.7865H50.8699H50.9057V8.75277H50.8699ZM51.0132 8.60943V8.5736C50.9142 8.5736 50.834 8.65382 50.834 8.75277H50.8699H50.9057C50.9057 8.6934 50.9538 8.64527 51.0132 8.64527V8.60943ZM52.6903 8.60943V8.5736H51.0132V8.60943V8.64527H52.6903V8.60943ZM52.8336 8.75277H52.8694C52.8694 8.65382 52.7892 8.5736 52.6903 8.5736V8.60943V8.64527C52.7496 8.64527 52.7978 8.6934 52.7978 8.75277H52.8336ZM52.8336 16.9661H52.8694V8.75277H52.8336H52.7978V16.9661H52.8336ZM63.1345 18.8377L63.101 18.8505C63.1276 18.9199 63.1941 18.9657 63.2683 18.9657V18.9298V18.894C63.2238 18.894 63.1839 18.8665 63.1679 18.8249L63.1345 18.8377ZM62.7254 17.7688L62.6919 17.7816L63.101 18.8505L63.1345 18.8377L63.1679 18.8249L62.7588 17.756L62.7254 17.7688ZM59.3976 17.7688V17.8046H62.7254V17.7688V17.733H59.3976V17.7688ZM59.0023 18.8363L59.0359 18.8487L59.4312 17.7812L59.3976 17.7688L59.364 17.7563L58.9687 18.8238L59.0023 18.8363ZM58.8678 18.9298V18.9657C58.9428 18.9657 59.0098 18.919 59.0359 18.8487L59.0023 18.8363L58.9687 18.8238C58.953 18.866 58.9128 18.894 58.8678 18.894V18.9298ZM57.0618 18.9298V18.9657H58.8678V18.9298V18.894H57.0618V18.9298ZM56.9435 18.8675L56.9139 18.8877C56.9474 18.9365 57.0027 18.9657 57.0618 18.9657V18.9298V18.894C57.0263 18.894 56.9931 18.8765 56.9731 18.8472L56.9435 18.8675ZM56.9281 18.7347L56.8947 18.7218C56.8733 18.7769 56.8805 18.839 56.9139 18.8877L56.9435 18.8675L56.9731 18.8472C56.953 18.818 56.9487 18.7807 56.9615 18.7477L56.9281 18.7347ZM60.9273 8.4143L60.8939 8.40135L56.8947 18.7218L56.9281 18.7347L56.9615 18.7477L60.9607 8.42725L60.9273 8.4143ZM61.0608 8.32275L61.0608 8.28692C60.9869 8.28696 60.9206 8.33242 60.8939 8.40135L60.9273 8.4143L60.9607 8.42725C60.9767 8.38589 61.0165 8.35862 61.0609 8.35859L61.0608 8.32275ZM61.1945 8.41414L61.2279 8.40115C61.2011 8.33225 61.1348 8.28687 61.0608 8.28692L61.0608 8.32275L61.0609 8.35859C61.1052 8.35856 61.145 8.38578 61.1611 8.42713L61.1945 8.41414ZM65.208 18.7345L65.2414 18.7216L61.2279 8.40115L61.1945 8.41414L61.1611 8.42713L65.1746 18.7475L65.208 18.7345ZM65.1927 18.8674L65.2223 18.8877C65.2557 18.8388 65.2628 18.7767 65.2414 18.7216L65.208 18.7345L65.1746 18.7475C65.1875 18.7806 65.1832 18.8179 65.1632 18.8472L65.1927 18.8674ZM65.0744 18.9298V18.9657C65.1336 18.9657 65.1889 18.9365 65.2223 18.8877L65.1927 18.8674L65.1632 18.8472C65.1431 18.8765 65.1099 18.894 65.0744 18.894V18.9298ZM63.2683 18.9298V18.9657H65.0744V18.9298V18.894H63.2683V18.9298ZM59.2979 17.6255V17.6613H62.824V17.6255V17.5896H59.2979V17.6255ZM62.824 17.6255L62.7905 17.6383L63.2349 18.7993L63.2683 18.7865L63.3018 18.7737L62.8575 17.6126L62.824 17.6255ZM58.8678 18.7865L58.9014 18.7989L59.3315 17.6379L59.2979 17.6255L59.2643 17.613L58.8342 18.7741L58.8678 18.7865ZM60.0445 16.0344L60.0784 16.0462L61.0948 13.1406L61.0609 13.1287L61.0271 13.1169L60.0107 16.0226L60.0445 16.0344ZM62.0773 16.0344V15.9986H60.0445V16.0344V16.0702H62.0773V16.0344ZM61.0609 13.1287L61.0271 13.1406L62.0435 16.0462L62.0773 16.0344L62.1111 16.0226L61.0948 13.1169L61.0609 13.1287ZM73.4253 18.9298V18.9657C73.4904 18.9657 73.5504 18.9303 73.582 18.8734L73.5506 18.856L73.5193 18.8386C73.5003 18.8728 73.4643 18.894 73.4253 18.894V18.9298ZM71.4615 18.9298V18.9657H73.4253V18.9298V18.894H71.4615V18.9298ZM71.3399 18.8623L71.3095 18.8813C71.3422 18.9338 71.3997 18.9657 71.4615 18.9657V18.9298V18.894C71.4244 18.894 71.3899 18.8749 71.3703 18.8434L71.3399 18.8623ZM68.7732 14.7443L68.7428 14.7633L71.3095 18.8813L71.3399 18.8623L71.3703 18.8434L68.8036 14.7254L68.7732 14.7443ZM68.0357 14.7443V14.7802H68.7732V14.7443V14.7085H68.0357V14.7443ZM68.0357 18.7865H68.0715V14.7443H68.0357H67.9999V18.7865H68.0357ZM67.8924 18.9298V18.9657C67.9913 18.9657 68.0715 18.8855 68.0715 18.7865H68.0357H67.9999C67.9999 18.8459 67.9517 18.894 67.8924 18.894V18.9298ZM66.2153 18.9298V18.9657H67.8924V18.9298V18.894H66.2153V18.9298ZM66.072 18.7865H66.0361C66.0361 18.8855 66.1164 18.9657 66.2153 18.9657V18.9298V18.894C66.1559 18.894 66.1078 18.8459 66.1078 18.7865H66.072ZM66.072 12.9383H66.0361V18.7865H66.072H66.1078V12.9383H66.072ZM66.2153 12.7949V12.7591C66.1164 12.7591 66.0361 12.8393 66.0361 12.9383H66.072H66.1078C66.1078 12.8789 66.1559 12.8308 66.2153 12.8308V12.7949ZM67.5457 12.7949V12.7591H66.2153V12.7949V12.8308H67.5457V12.7949ZM66.0943 10.5066L66.064 10.5258L67.5154 12.8141L67.5457 12.7949L67.576 12.7757L66.1245 10.4874L66.0943 10.5066ZM66.072 10.4298H66.0361C66.0361 10.4638 66.0458 10.4971 66.064 10.5258L66.0943 10.5066L66.1245 10.4874C66.1136 10.4702 66.1078 10.4502 66.1078 10.4298H66.072ZM66.072 8.75277H66.0361V10.4298H66.072H66.1078V8.75277H66.072ZM66.2153 8.60943V8.5736C66.1164 8.5736 66.0361 8.65382 66.0361 8.75277H66.072H66.1078C66.1078 8.6934 66.1559 8.64527 66.2153 8.64527V8.60943ZM69.5551 8.60943V8.5736H66.2153V8.60943V8.64527H69.5551V8.60943ZM69.5551 8.75277H69.5909V8.60943H69.5551H69.5193V8.75277H69.5551ZM68.8527 14.601L68.8223 14.62L71.4311 18.8055L71.4615 18.7865L71.4919 18.7675L68.8832 14.582L68.8527 14.601ZM70.7018 14.429L70.7115 14.4635C70.7588 14.4503 70.8068 14.436 70.8551 14.4207L70.8443 14.3866L70.8335 14.3524C70.7859 14.3675 70.7388 14.3815 70.6922 14.3945L70.7018 14.429ZM70.8443 14.3866L70.8551 14.4207C71.3328 14.2696 71.8553 14.0125 72.2586 13.578C72.6627 13.1427 72.9451 12.5315 72.9451 11.6769H72.9092H72.8734C72.8734 12.514 72.5974 13.1076 72.2061 13.5292C71.814 13.9516 71.304 14.2035 70.8335 14.3524L70.8443 14.3866ZM72.9092 11.6769H72.9451C72.9451 10.9385 72.7331 10.3825 72.4136 9.96461C72.0945 9.54725 71.6696 9.26986 71.2465 9.08544C70.8234 8.90102 70.4008 8.80898 70.0843 8.763C69.926 8.73999 69.794 8.72848 69.7015 8.72272C69.6552 8.71983 69.6187 8.71839 69.5938 8.71766C69.5813 8.7173 69.5717 8.71712 69.5652 8.71703C69.562 8.71698 69.5595 8.71696 69.5578 8.71695C69.5569 8.71694 69.5563 8.71694 69.5558 8.71694C69.5556 8.71694 69.5554 8.71694 69.5553 8.71694C69.5553 8.71694 69.5552 8.71694 69.5552 8.71694C69.5551 8.71694 69.5551 8.71694 69.5551 8.75277C69.5551 8.78861 69.5551 8.78861 69.5551 8.78861C69.5551 8.78861 69.5552 8.78861 69.5552 8.78861C69.5553 8.78861 69.5554 8.78861 69.5556 8.78861C69.556 8.78861 69.5565 8.78861 69.5573 8.78862C69.5588 8.78863 69.5611 8.78865 69.5642 8.78869C69.5704 8.78878 69.5796 8.78895 69.5917 8.7893C69.6159 8.79001 69.6516 8.79142 69.697 8.79425C69.7879 8.79991 69.9179 8.81124 70.074 8.83392C70.3865 8.87932 70.8024 8.97004 71.2179 9.15113C71.6333 9.33222 72.0469 9.6031 72.3567 10.0081C72.6661 10.4127 72.8734 10.9532 72.8734 11.6769H72.9092ZM69.5553 8.60943L69.5553 8.5736C69.5553 8.5736 69.5552 8.5736 69.5551 8.5736C69.555 8.5736 69.5546 8.5736 69.5544 8.57361C69.5538 8.57362 69.5529 8.57366 69.5517 8.57377C69.5493 8.57401 69.5458 8.5746 69.5419 8.57617C69.5332 8.57968 69.5278 8.58574 69.5248 8.59058C69.5222 8.59475 69.5211 8.59847 69.5207 8.59999C69.5202 8.60181 69.5199 8.60329 69.5198 8.60405C69.5196 8.60557 69.5195 8.60678 69.5195 8.60715C69.5195 8.60768 69.5194 8.60812 69.5194 8.60838C69.5194 8.60925 69.5194 8.61031 69.5194 8.61136C69.5193 8.61375 69.5193 8.61835 69.5193 8.62729C69.5193 8.64524 69.5193 8.68111 69.5193 8.75277H69.5551H69.5909C69.5909 8.6811 69.591 8.64529 69.591 8.62741C69.591 8.61843 69.591 8.61407 69.591 8.61198C69.591 8.61079 69.5911 8.61073 69.591 8.61104C69.591 8.61116 69.591 8.6115 69.591 8.61195C69.591 8.61224 69.5909 8.6134 69.5907 8.61488C69.5906 8.61563 69.5903 8.61709 69.5898 8.6189C69.5894 8.62042 69.5883 8.62413 69.5857 8.6283C69.5827 8.63312 69.5773 8.63919 69.5686 8.64269C69.5612 8.64566 69.5543 8.64527 69.5552 8.64527L69.5553 8.60943ZM69.5555 8.60943L69.5555 8.5736L69.5553 8.5736L69.5553 8.60943L69.5552 8.64527L69.5555 8.64527L69.5555 8.60943ZM69.5562 8.60943L69.5563 8.5736L69.5556 8.5736L69.5555 8.60943L69.5554 8.64527L69.5561 8.64527L69.5562 8.60943ZM69.5585 8.60945L69.5587 8.57361L69.5564 8.5736L69.5562 8.60943L69.556 8.64527L69.5583 8.64528L69.5585 8.60945ZM69.5667 8.60953L69.5671 8.5737L69.5589 8.57361L69.5585 8.60945L69.5581 8.64528L69.5664 8.64537L69.5667 8.60953ZM69.5969 8.61021L69.598 8.57439C69.5848 8.574 69.5745 8.57381 69.5672 8.5737L69.5667 8.60953L69.5662 8.64537C69.5731 8.64546 69.5831 8.64565 69.5959 8.64603L69.5969 8.61021ZM69.7081 8.61542L69.7104 8.57965C69.6624 8.57667 69.6244 8.57515 69.598 8.57439L69.5969 8.61021L69.5959 8.64603C69.6216 8.64677 69.6588 8.64825 69.7059 8.65119L69.7081 8.61542ZM70.0998 8.65661L70.1049 8.62115C69.9422 8.5975 69.8062 8.58562 69.7104 8.57965L69.7081 8.61542L69.7059 8.65119C69.8001 8.65705 69.9341 8.66875 70.0946 8.69207L70.0998 8.65661ZM71.2894 8.98689L71.3038 8.95404C70.8654 8.76297 70.4296 8.66831 70.1049 8.62115L70.0998 8.65661L70.0946 8.69207C70.4152 8.73865 70.8444 8.83199 71.2751 9.01974L71.2894 8.98689ZM72.499 9.89931L72.5275 9.87754C72.1895 9.43556 71.7422 9.14514 71.3038 8.95404L71.2894 8.98689L71.2751 9.01974C71.7059 9.2075 72.142 9.49141 72.4706 9.92108L72.499 9.89931ZM73.0526 11.6769H73.0884C73.0884 10.909 72.8673 10.3219 72.5275 9.87754L72.499 9.89931L72.4706 9.92108C72.8002 10.3522 73.0167 10.9237 73.0167 11.6769H73.0526ZM72.2726 13.7185L72.298 13.7438C72.7621 13.2777 73.0884 12.612 73.0884 11.6769H73.0526H73.0167C73.0167 12.5934 72.6977 13.2408 72.2472 13.6932L72.2726 13.7185ZM70.9227 14.5119L70.9338 14.546C71.392 14.3967 71.8932 14.1502 72.298 13.7438L72.2726 13.7185L72.2472 13.6932C71.853 14.0891 71.363 14.3308 70.9116 14.4779L70.9227 14.5119ZM73.5468 18.7105L73.5772 18.6915L70.9531 14.493L70.9227 14.5119L70.8923 14.5309L73.5164 18.7295L73.5468 18.7105ZM73.5506 18.856L73.582 18.8734C73.6135 18.8164 73.6117 18.7468 73.5772 18.6915L73.5468 18.7105L73.5164 18.7295C73.5371 18.7627 73.5382 18.8044 73.5193 18.8386L73.5506 18.856ZM71.2322 11.6769H71.1963C71.1963 12.1561 70.9511 12.4465 70.6496 12.6243C70.3462 12.8032 69.9867 12.867 69.7667 12.8883L69.7701 12.9239L69.7736 12.9596C69.9978 12.9379 70.3694 12.8727 70.686 12.686C71.0044 12.4983 71.268 12.1867 71.268 11.6769H71.2322ZM69.5551 10.4298C69.5551 10.4657 69.5551 10.4657 69.5551 10.4657C69.5551 10.4657 69.5551 10.4657 69.5551 10.4657C69.5552 10.4657 69.5552 10.4657 69.5553 10.4657C69.5555 10.4657 69.5557 10.4657 69.5561 10.4657C69.5568 10.4657 69.558 10.4657 69.5595 10.4657C69.5625 10.4657 69.5671 10.4658 69.5731 10.466C69.585 10.4663 69.6027 10.4669 69.6253 10.4681C69.6704 10.4705 69.7351 10.4753 69.8127 10.4849C69.9682 10.5042 70.175 10.5426 70.3811 10.6193C70.5875 10.696 70.7914 10.8103 70.9434 10.9799C71.0948 11.1487 71.1963 11.374 71.1963 11.6769H71.2322H71.268C71.268 11.3562 71.1599 11.1139 70.9968 10.932C70.8344 10.7509 70.619 10.6313 70.4061 10.5521C70.1931 10.4729 69.9805 10.4335 69.8216 10.4138C69.742 10.4039 69.6756 10.399 69.6291 10.3965C69.6058 10.3953 69.5874 10.3946 69.5748 10.3943C69.5685 10.3942 69.5637 10.3941 69.5603 10.394C69.5587 10.394 69.5574 10.394 69.5565 10.394C69.5561 10.394 69.5558 10.394 69.5555 10.394C69.5554 10.394 69.5553 10.394 69.5552 10.394C69.5552 10.394 69.5552 10.394 69.5551 10.394C69.5551 10.394 69.5551 10.394 69.5551 10.4298ZM70.595 12.5317L70.5768 12.5008C70.3351 12.6433 70.049 12.708 69.8389 12.7357L69.8436 12.7713L69.8483 12.8068C70.0628 12.7784 70.3597 12.712 70.6132 12.5626L70.595 12.5317ZM71.0888 11.6769H71.053C71.053 12.0948 70.8445 12.343 70.5768 12.5008L70.595 12.5317L70.6132 12.5626C70.8979 12.3947 71.1247 12.1254 71.1247 11.6769H71.0888ZM70.8634 11.0516L70.8367 11.0755C70.9647 11.2183 71.053 11.4096 71.053 11.6769H71.0888H71.1247C71.1247 11.3918 71.0298 11.1835 70.8901 11.0277L70.8634 11.0516ZM70.3437 10.7201L70.3312 10.7537C70.5244 10.8255 70.7054 10.929 70.8367 11.0755L70.8634 11.0516L70.8901 11.0277C70.7484 10.8696 70.556 10.7608 70.3562 10.6865L70.3437 10.7201ZM69.7995 10.5916L69.7951 10.6271C69.9438 10.6456 70.1388 10.6821 70.3312 10.7537L70.3437 10.7201L70.3562 10.6865C70.1569 10.6124 69.956 10.5749 69.8039 10.556L69.7995 10.5916ZM69.6196 10.5754L69.6177 10.6112C69.66 10.6134 69.7213 10.618 69.7951 10.6271L69.7995 10.5916L69.8039 10.556C69.7282 10.5466 69.6652 10.5419 69.6215 10.5396L69.6196 10.5754ZM69.5704 10.5734L69.5695 10.6093C69.5802 10.6095 69.5965 10.6101 69.6177 10.6112L69.6196 10.5754L69.6215 10.5396C69.5996 10.5385 69.5826 10.5379 69.5713 10.5376L69.5704 10.5734ZM69.5582 10.5732L69.5578 10.609C69.5602 10.6091 69.5641 10.6091 69.5695 10.6093L69.5704 10.5734L69.5713 10.5376C69.5656 10.5375 69.5614 10.5374 69.5586 10.5374L69.5582 10.5732ZM69.5555 10.5732L69.5551 10.609L69.5579 10.609L69.5582 10.5732L69.5585 10.5374L69.5558 10.5373L69.5555 10.5732ZM69.5551 10.5732L69.5549 10.609L69.5552 10.609L69.5555 10.5732L69.5557 10.5373L69.5553 10.5373L69.5551 10.5732ZM69.8436 12.7713L69.874 12.7522L68.497 10.5542L68.4667 10.5732L68.4363 10.5922L69.8132 12.7903L69.8436 12.7713ZM28.5674 18.7865V18.8223H30.3735V18.7865V18.7507H28.5674V18.7865ZM30.3735 18.7865L30.4069 18.7735L26.3934 8.4531L26.36 8.46609L26.3266 8.47908L30.3401 18.7995L30.3735 18.7865ZM26.36 8.46609L26.3266 8.45314L22.3275 18.7735L22.3609 18.7865L22.3943 18.7994L26.3934 8.47904L26.36 8.46609ZM22.3609 18.7865V18.8223H24.1669V18.7865V18.7507H22.3609V18.7865ZM25.1416 16.1777L25.1755 16.1896L26.3939 12.7064L26.36 12.6946L26.3262 12.6828L25.1078 16.1659L25.1416 16.1777ZM27.5784 16.1777V16.1419H25.1416V16.1777V16.2136H27.5784V16.1777ZM26.36 12.6946L26.3262 12.7064L27.5446 16.1896L27.5784 16.1777L27.6122 16.1659L26.3939 12.6828L26.36 12.6946ZM38.581 11.2612L38.6064 11.2865L39.7817 10.1112L39.7564 10.0859L39.731 10.0605L38.5557 11.2359L38.581 11.2612ZM38.8534 17.8835L38.8177 17.8867L38.9037 18.8327L38.9394 18.8295L38.975 18.8263L38.889 17.8802L38.8534 17.8835ZM38.9394 18.8295V18.8653H40.4014V18.8295V18.7937H38.9394V18.8295ZM40.4014 18.8295H40.4373V13.0816H40.4014H40.3656V18.8295H40.4014ZM40.4014 13.0816V13.0458H37.0473V13.0816V13.1174H40.4014V13.0816ZM37.0473 13.0816H37.0115V14.6727H37.0473H37.0831V13.0816H37.0473ZM37.0473 14.6727V14.7085H38.7244V14.6727V14.6368H37.0473V14.6727ZM38.7244 14.6727H38.6885V16.1204H38.7244H38.7602V14.6727H38.7244ZM49.2804 17.1094V17.0736H44.2635V17.1094V17.1453H49.2804V17.1094ZM49.2804 18.7865H49.3162V17.1094H49.2804H49.2445V18.7865H49.2804ZM42.5864 18.7865V18.8223H49.2804V18.7865V18.7507H42.5864V18.7865ZM42.5864 8.75277H42.5506V18.7865H42.5864H42.6223V8.75277H42.5864ZM49.2804 8.75277V8.71694H42.5864V8.75277V8.78861H49.2804V8.75277ZM49.2804 10.4298H49.3162V8.75277H49.2804H49.2445V10.4298H49.2804ZM44.2635 10.4298V10.4657H49.2804V10.4298V10.394H44.2635V10.4298ZM44.2635 12.9383H44.2993V10.4298H44.2635H44.2277V12.9383H44.2635ZM48.4347 12.9383V12.9024H44.2635V12.9383V12.9741H48.4347V12.9383ZM48.4347 14.601H48.4705V12.9383H48.4347H48.3988V14.601H48.4347ZM44.2635 14.601V14.6368H48.4347V14.601V14.5652H44.2635V14.601ZM44.2635 17.1094H44.2993V14.601H44.2635H44.2277V17.1094H44.2635ZM56.4027 17.1094V17.0736H52.6903V17.1094V17.1453H56.4027V17.1094ZM56.4027 18.7865H56.4386V17.1094H56.4027H56.3669V18.7865H56.4027ZM51.0132 18.7865V18.8223H56.4027V18.7865V18.7507H51.0132V18.7865ZM51.0132 8.75277H50.9774V18.7865H51.0132H51.049V8.75277H51.0132ZM52.6903 8.75277V8.71694H51.0132V8.75277V8.78861H52.6903V8.75277ZM52.6903 17.1094H52.7261V8.75277H52.6903H52.6544V17.1094H52.6903ZM63.2683 18.7865V18.8223H65.0744V18.7865V18.7507H63.2683V18.7865ZM65.0744 18.7865L65.1078 18.7735L61.0943 8.4531L61.0609 8.46609L61.0275 8.47908L65.041 18.7995L65.0744 18.7865ZM61.0609 8.46609L61.0275 8.45314L57.0284 18.7735L57.0618 18.7865L57.0952 18.7994L61.0943 8.47904L61.0609 8.46609ZM57.0618 18.7865V18.8223H58.8678V18.7865V18.7507H57.0618V18.7865ZM59.8425 16.1777L59.8764 16.1896L61.0948 12.7064L61.0609 12.6946L61.0271 12.6828L59.8087 16.1659L59.8425 16.1777ZM62.2793 16.1777V16.1419H59.8425V16.1777V16.2136H62.2793V16.1777ZM61.0609 12.6946L61.0271 12.7064L62.2455 16.1896L62.2793 16.1777L62.3131 16.1659L61.0948 12.6828L61.0609 12.6946ZM69.5551 8.75277V8.71694H66.2153V8.75277V8.78861H69.5551V8.75277ZM66.2153 8.75277H66.1795V10.4298H66.2153H66.2511V8.75277H66.2153ZM66.2153 10.4298L66.185 10.449L67.7761 12.9575L67.8064 12.9383L67.8366 12.9191L66.2456 10.4106L66.2153 10.4298ZM67.8064 12.9383V12.9024H66.2153V12.9383V12.9741H67.8064V12.9383ZM66.2153 12.9383H66.1795V18.7865H66.2153H66.2511V12.9383H66.2153ZM66.2153 18.7865V18.8223H67.8924V18.7865V18.7507H66.2153V18.7865ZM67.8924 18.7865H67.9282V14.601H67.8924H67.8565V18.7865H67.8924ZM67.8924 14.601V14.6368H68.8527V14.601V14.5652H67.8924V14.601ZM71.4615 18.7865V18.8223H73.4253V18.7865V18.7507H71.4615V18.7865ZM73.4253 18.7865L73.4556 18.7675L70.7322 14.41L70.7018 14.429L70.6714 14.448L73.3949 18.8055L73.4253 18.7865ZM68.2077 10.4298V10.4657H69.5551V10.4298V10.394H68.2077V10.4298ZM69.7701 12.9239L69.8005 12.9049L68.2381 10.4108L68.2077 10.4298L68.1773 10.4489L69.7397 12.943L69.7701 12.9239ZM68.4667 10.5732V10.609H69.5551V10.5732V10.5373H68.4667V10.5732Z" fill="url(#paint5_linear_17_222)" mask="url(#path-3-outside-1_17_222)"/>
<path d="M36.2163 8.3042C37.6115 8.30431 38.8628 8.86602 39.769 9.78662C39.7759 9.79364 39.776 9.80508 39.769 9.81201L38.5933 10.9868C38.5899 10.9901 38.5853 10.9927 38.5806 10.9927C38.576 10.9926 38.5711 10.9901 38.5679 10.9868C37.9692 10.3883 37.1285 10.0172 36.2163 10.0171C35.296 10.0171 34.4649 10.3382 33.8647 10.9312C33.2647 11.5241 32.894 12.3906 32.894 13.4829C32.8941 14.7046 33.2654 15.5701 33.8647 16.1304C34.4644 16.6908 35.2949 16.9478 36.2163 16.9478C37.2121 16.9476 38.0937 16.5216 38.7065 15.8257V14.4038H37.0474C37.0376 14.4038 37.03 14.3959 37.0298 14.3862V12.7944C37.0299 12.7847 37.0376 12.7769 37.0474 12.7769H40.4019C40.4114 12.7771 40.4193 12.7848 40.4194 12.7944V18.5425C40.4194 18.5522 40.4115 18.5598 40.4019 18.5601H38.939C38.9299 18.5599 38.9223 18.5534 38.9214 18.5444L38.8384 17.6333C38.0257 18.3783 37.1812 18.6606 36.0005 18.6606C34.649 18.6606 33.4439 18.1896 32.5767 17.3062C31.7093 16.4226 31.1812 15.1279 31.1812 13.4829C31.1812 10.4917 33.4398 8.3042 36.2163 8.3042ZM26.3765 8.17236L30.3901 18.4927C30.3922 18.4981 30.3914 18.5044 30.3882 18.5093C30.3849 18.5141 30.3794 18.5171 30.3735 18.5171H28.5679C28.5605 18.5171 28.553 18.5132 28.5503 18.5063L28.1108 17.3569H24.6099L24.1841 18.5054C24.1815 18.5124 24.174 18.5171 24.1665 18.5171H22.3608C22.3549 18.5171 22.3495 18.5142 22.3462 18.5093C22.343 18.5044 22.3421 18.4981 22.3442 18.4927L26.3433 8.17236L26.3599 8.16162C26.3671 8.16162 26.3737 8.16568 26.3765 8.17236ZM49.2808 8.44775C49.2905 8.44797 49.2983 8.45655 49.2983 8.46631V10.1431C49.2983 10.1528 49.2904 10.1604 49.2808 10.1606H44.2817V12.6333H48.4351C48.4448 12.6335 48.4526 12.6421 48.4526 12.6519V14.314C48.4526 14.3237 48.4448 14.3313 48.4351 14.3315H44.2817V16.8042H49.2808C49.2905 16.8044 49.2983 16.813 49.2983 16.8228V18.4995C49.2983 18.5093 49.2905 18.5169 49.2808 18.5171H42.5864C42.5765 18.5171 42.5688 18.5094 42.5688 18.4995V8.46631C42.5688 8.45641 42.5765 8.44775 42.5864 8.44775H49.2808ZM52.6899 8.44775C52.6998 8.44775 52.7085 8.45641 52.7085 8.46631V16.8042H56.4028C56.4127 16.8043 56.4204 16.8129 56.4204 16.8228V18.4995C56.4204 18.5094 56.4127 18.517 56.4028 18.5171H51.0132C51.0033 18.5171 50.9956 18.5094 50.9956 18.4995V8.46631C50.9956 8.45641 51.0033 8.44775 51.0132 8.44775H52.6899ZM61.0776 8.17236L65.0913 18.4927C65.0934 18.498 65.0925 18.5045 65.0894 18.5093C65.0861 18.5141 65.0805 18.517 65.0747 18.5171H63.2681C63.2608 18.517 63.2542 18.5131 63.2515 18.5063L62.812 17.3569H59.311L58.8843 18.5054C58.8817 18.5124 58.8752 18.5171 58.8677 18.5171H57.062C57.0561 18.5171 57.0507 18.5142 57.0474 18.5093C57.0441 18.5044 57.0433 18.4981 57.0454 18.4927L61.0444 8.17236L61.061 8.16162C61.0683 8.16168 61.0749 8.16568 61.0776 8.17236ZM69.5649 8.44775C69.5714 8.44784 69.5809 8.44837 69.5933 8.44873C69.618 8.44945 69.6546 8.45074 69.7007 8.45361C69.7928 8.45936 69.9241 8.47078 70.0815 8.49365C70.397 8.53949 70.8186 8.63135 71.2397 8.81494C71.6608 8.99853 72.0822 9.2748 72.3989 9.68896C72.7159 10.1035 72.9272 10.6554 72.9272 11.3901C72.9272 12.2833 72.6174 12.9081 72.1841 13.3433C71.7578 13.7713 71.2125 14.014 70.729 14.1519L73.4399 18.4897C73.4434 18.4953 73.4441 18.5026 73.4409 18.5083C73.4378 18.514 73.4318 18.5171 73.4253 18.5171H71.4614C71.4553 18.5171 71.4491 18.5145 71.4458 18.5093L68.8423 14.3315H67.9106V18.4995C67.9106 18.5094 67.902 18.5171 67.8921 18.5171H66.2153C66.2054 18.5171 66.1978 18.5094 66.1978 18.4995V12.6519C66.1978 12.642 66.2054 12.6333 66.2153 12.6333H67.7739L66.1997 10.1528L66.1938 10.1431H66.1978V8.46631C66.1978 8.45641 66.2054 8.44775 66.2153 8.44775H69.5649ZM59.8687 15.8726H62.2534L61.061 12.4604L59.8687 15.8726ZM25.1675 15.8726H27.5522L26.3599 12.4604L25.1675 15.8726ZM69.7788 12.6177C70.0008 12.5953 70.3568 12.531 70.6587 12.353C70.9644 12.1728 71.2143 11.8769 71.2144 11.3901C71.2144 11.0828 71.1108 10.8533 70.9565 10.6812C70.8019 10.5087 70.5952 10.3932 70.3872 10.3159C70.1793 10.2386 69.9713 10.1996 69.8149 10.1802C69.737 10.1705 69.672 10.166 69.6265 10.1636C69.6039 10.1624 69.5859 10.1619 69.5737 10.1616C69.5679 10.1615 69.5632 10.1607 69.5601 10.1606H68.2407L69.7788 12.6177Z" fill="url(#paint6_linear_17_222)" stroke="url(#paint7_linear_17_222)" stroke-width="0.0358347" stroke-linejoin="round"/>
<path d="M28.5674 18.213H30.3735L26.36 7.89258L22.3608 18.213H24.1669L24.5969 17.0519H28.1231L28.5674 18.213ZM26.36 12.1211L27.5784 15.6042H25.1416L26.36 12.1211Z" fill="url(#paint8_linear_17_222)"/>
<path d="M37.0473 12.5081V14.0992H38.7243V15.5469C38.108 16.2492 37.2193 16.6793 36.2159 16.6793C34.3668 16.6793 32.8761 15.6472 32.8761 13.1961C32.8761 11.003 34.3668 9.71298 36.2159 9.71298C37.1333 9.71298 37.979 10.0857 38.581 10.6877L39.7564 9.51231C38.8533 8.59494 37.6063 8.03592 36.2159 8.03592C33.4495 8.03592 31.199 10.2147 31.199 13.1961C31.199 16.4786 33.3061 18.3563 36.0009 18.3563C37.1906 18.3563 38.0363 18.0696 38.8533 17.3099L38.9393 18.256H40.4014V12.5081H37.0473Z" fill="url(#paint9_linear_17_222)"/>
<path d="M49.2803 9.85632V8.17926H42.5864V18.213H49.2803V16.5359H44.2635V14.0275H48.4346V12.3648H44.2635V9.85632H49.2803Z" fill="url(#paint10_linear_17_222)"/>
<path d="M52.6902 16.5359V8.17926H51.0132V18.213H56.4027V16.5359H52.6902Z" fill="url(#paint11_linear_17_222)"/>
<path d="M63.2683 18.213H65.0744L61.0609 7.89258L57.0617 18.213H58.8678L59.2978 17.0519H62.824L63.2683 18.213ZM61.0609 12.1211L62.2793 15.6042H59.8425L61.0609 12.1211Z" fill="url(#paint12_linear_17_222)"/>
<path d="M73.4252 18.213L70.7018 13.8555C71.6765 13.5831 72.9092 12.8808 72.9092 11.1034C72.9092 8.17926 69.5551 8.17926 69.5551 8.17926H66.2153V9.85632L67.8063 12.3648H66.2153V18.213H67.8923V14.0275H68.8527L71.4615 18.213H73.4252ZM68.2077 9.85632H69.5551C69.5551 9.85632 71.2321 9.85632 71.2321 11.1034C71.2321 12.0924 70.2144 12.3074 69.7701 12.3504L68.2077 9.85632Z" fill="url(#paint13_linear_17_222)"/>
<path d="M28.5674 18.213H30.3735L26.36 7.89258L22.3608 18.213H24.1669L24.5969 17.0519H28.1231L28.5674 18.213ZM26.36 12.1211L27.5784 15.6042H25.1416L26.36 12.1211Z" stroke="url(#paint14_linear_17_222)" stroke-width="0.0358347" stroke-linejoin="round"/>
<path d="M37.0473 12.5081V14.0992H38.7243V15.5469C38.108 16.2492 37.2193 16.6793 36.2159 16.6793C34.3668 16.6793 32.8761 15.6472 32.8761 13.1961C32.8761 11.003 34.3668 9.71298 36.2159 9.71298C37.1333 9.71298 37.979 10.0857 38.581 10.6877L39.7564 9.51231C38.8533 8.59494 37.6063 8.03592 36.2159 8.03592C33.4495 8.03592 31.199 10.2147 31.199 13.1961C31.199 16.4786 33.3061 18.3563 36.0009 18.3563C37.1906 18.3563 38.0363 18.0696 38.8533 17.3099L38.9393 18.256H40.4014V12.5081H37.0473Z" stroke="url(#paint15_linear_17_222)" stroke-width="0.0358347" stroke-linejoin="round"/>
<path d="M49.2803 9.85632V8.17926H42.5864V18.213H49.2803V16.5359H44.2635V14.0275H48.4346V12.3648H44.2635V9.85632H49.2803Z" stroke="url(#paint16_linear_17_222)" stroke-width="0.0358347" stroke-linejoin="round"/>
<path d="M52.6902 16.5359V8.17926H51.0132V18.213H56.4027V16.5359H52.6902Z" stroke="url(#paint17_linear_17_222)" stroke-width="0.0358347" stroke-linejoin="round"/>
<path d="M63.2683 18.213H65.0744L61.0609 7.89258L57.0617 18.213H58.8678L59.2978 17.0519H62.824L63.2683 18.213ZM61.0609 12.1211L62.2793 15.6042H59.8425L61.0609 12.1211Z" stroke="url(#paint18_linear_17_222)" stroke-width="0.0358347" stroke-linejoin="round"/>
<path d="M73.4252 18.213L70.7018 13.8555C71.6765 13.5831 72.9092 12.8808 72.9092 11.1034C72.9092 8.17926 69.5551 8.17926 69.5551 8.17926H66.2153V9.85632L67.8063 12.3648H66.2153V18.213H67.8923V14.0275H68.8527L71.4615 18.213H73.4252ZM68.2077 9.85632H69.5551C69.5551 9.85632 71.2321 9.85632 71.2321 11.1034C71.2321 12.0924 70.2144 12.3074 69.7701 12.3504L68.2077 9.85632Z" stroke="url(#paint19_linear_17_222)" stroke-width="0.0358347" stroke-linejoin="round"/>
<mask id="mask0_17_222" style="mask-type:alpha" maskUnits="userSpaceOnUse" x="0" y="0" width="29" height="26">
<path d="M14.9073 7.60613L16.3406 4.30933L2.29342 0.58252L0 13.053L5.94857 21.2233L7.38196 18.7866L14.9073 7.60613Z" fill="#828282"/>
<path d="M17.6307 12.5513L17.4157 5.88606H25.9444L28.1661 19.2166L20.7125 25.0218L10.4637 24.0901L12.1121 20.0766L13.1155 19.5033L17.6307 12.5513Z" fill="#828282"/>
</mask>
<g mask="url(#mask0_17_222)">
<path d="M5.75889 14.178L6.14966 13.9339L6.08929 13.0366L5.75889 14.178ZM6.60971 16.6425L6.99212 16.3741L6.60895 15.6105L6.60971 16.6425ZM6.22274 15.8713L6.60895 15.6105L6.32551 14.7945L6.22274 15.8713ZM5.69792 13.2718L6.08929 13.0366L6.14966 12.1393L5.69792 13.2718ZM5.93648 15.0472L6.32551 14.7945L6.14966 13.9339L5.93648 15.0472ZM20.5358 14.3892L20.7813 14.143L20.8558 13.0366L20.5358 14.3892ZM5.75889 12.3656L6.14966 12.1393L6.32551 11.2786L5.75889 12.3656ZM20.611 13.2718L20.8558 13.0366L20.7813 11.9302L20.611 13.2718ZM20.5358 12.1544L20.7813 11.9302L20.5645 10.869L20.5358 12.1544ZM5.93648 11.4965L6.32551 11.2786L6.60895 10.4626L5.93648 11.4965ZM20.3168 11.0827L20.5645 10.869L20.215 9.86276L20.3168 11.0827ZM19.9639 10.0665L20.215 9.86276L19.7425 8.92121L19.9639 10.0665ZM6.22274 10.6723L6.60895 10.4626L6.99212 9.69901L6.22274 10.6723ZM19.4867 9.11562L19.7425 8.92121L19.1568 8.05405L19.4867 9.11562ZM18.8952 8.23985L19.1568 8.05405L18.4676 7.27099L18.8952 8.23985ZM6.60971 9.90113L6.99212 9.69901L7.46714 8.99574L6.60971 9.90113ZM18.1991 7.44902L18.4676 7.27099L17.6845 6.58175L18.1991 7.44902ZM17.4083 6.75293L17.6845 6.58175L16.8174 5.99604L17.4083 6.75293ZM7.08944 9.19088L7.46714 8.99574L8.02611 8.36067L7.08944 9.19088ZM16.5325 6.16141L16.8174 5.99604L15.8758 5.52358L16.5325 6.16141ZM15.5816 5.68426L15.8758 5.52358L14.8696 5.17407L15.5816 5.68426ZM7.65397 8.54951L8.02611 8.36067L8.66118 7.8017L7.65397 8.54951ZM14.5654 5.33128L14.8696 5.17407L13.8084 4.95725L14.5654 5.33128ZM13.4937 5.11231L13.8084 4.95725L12.702 4.88281L13.4937 5.11231ZM8.29534 7.98499L8.66118 7.8017L9.36445 7.32668L8.29534 7.98499ZM12.3763 5.03713L12.702 4.88281L11.5956 4.95725L12.3763 5.03713ZM11.2589 5.11231L11.5956 4.95725L10.5344 5.17407L11.2589 5.11231ZM9.00559 7.50526L9.36445 7.32668L10.128 6.94351L9.00559 7.50526ZM10.1872 5.33128L10.5344 5.17407L9.5282 5.52358L10.1872 5.33128ZM18.1991 19.0946L18.4676 18.8022L19.1568 18.0191L18.1991 19.0946ZM17.0986 17.9941L17.3779 17.7125L16.7429 18.2715L17.0986 17.9941ZM18.8952 18.3038L19.1568 18.0191L19.7425 17.1519L18.8952 18.3038ZM19.4867 17.428L19.7425 17.1519L20.215 16.2104L19.4867 17.428ZM19.9639 16.4771L20.215 16.2104L20.5645 15.2042L19.9639 16.4771ZM16.4572 18.5587L16.7429 18.2715L16.0396 18.7465L16.4572 18.5587ZM20.3168 15.4609L20.5645 15.2042L20.7813 14.143L20.3168 15.4609ZM7.08944 17.3528L7.46714 17.0774L6.99212 16.3741L7.08944 17.3528ZM7.65397 17.9941L8.02611 17.7125L7.46714 17.0774L7.65397 17.9941ZM15.747 19.0384L16.0396 18.7465L15.276 19.1296L15.747 19.0384ZM8.29534 18.5587L8.66118 18.2715L8.02611 17.7125L8.29534 18.5587ZM9.00559 19.0384L9.36445 18.7465L8.66118 18.2715L9.00559 19.0384ZM9.77676 19.4254L10.128 19.1296L9.36445 18.7465L9.77676 19.4254ZM14.9758 19.4254L15.276 19.1296L14.4599 19.4131L14.9758 19.4254ZM10.6009 19.7116L10.9441 19.4131L10.128 19.1296L10.6009 19.7116ZM11.4701 19.8892L11.8047 19.5889L10.9441 19.4131L11.4701 19.8892ZM12.3763 19.9502L12.702 19.6493L11.8047 19.5889L12.3763 19.9502ZM14.1517 19.7116L14.4599 19.4131L13.5993 19.5889L14.1517 19.7116ZM13.2825 19.8892L13.5993 19.5889L12.702 19.6493L13.2825 19.8892ZM8.29534 18.5587L9.00559 19.0384L8.66118 18.2715L8.29534 18.5587ZM6.60971 16.6425L7.08944 17.3528L6.99212 16.3741L6.60971 16.6425ZM12.3763 19.9502L13.2825 19.8892L12.702 19.6493L12.3763 19.9502ZM6.22274 15.8713L6.60971 16.6425L6.60895 15.6105L6.22274 15.8713ZM5.93648 15.0472L6.22274 15.8713L6.32551 14.7945L5.93648 15.0472ZM11.4701 19.8892L12.3763 19.9502L11.8047 19.5889L11.4701 19.8892ZM5.75889 14.178L5.93648 15.0472L6.14966 13.9339L5.75889 14.178ZM10.6009 19.7116L11.4701 19.8892L10.9441 19.4131L10.6009 19.7116ZM14.1517 19.7116L14.9758 19.4254L14.4599 19.4131L14.1517 19.7116ZM9.77676 19.4254L10.6009 19.7116L10.128 19.1296L9.77676 19.4254ZM9.00559 19.0384L9.77676 19.4254L9.36445 18.7465L9.00559 19.0384ZM13.2825 19.8892L14.1517 19.7116L13.5993 19.5889L13.2825 19.8892ZM14.9758 19.4254L15.747 19.0384L15.276 19.1296L14.9758 19.4254ZM7.65397 17.9941L8.29534 18.5587L8.02611 17.7125L7.65397 17.9941ZM7.08944 17.3528L7.65397 17.9941L7.46714 17.0774L7.08944 17.3528ZM20.5358 14.3892L20.3168 15.4609L20.7813 14.143L20.5358 14.3892ZM15.747 19.0384L16.4572 18.5587L16.0396 18.7465L15.747 19.0384ZM20.3168 15.4609L19.9639 16.4771L20.5645 15.2042L20.3168 15.4609ZM18.8952 18.3038L18.1991 19.0946L19.1568 18.0191L18.8952 18.3038ZM16.4572 18.5587L17.0986 17.9941L16.7429 18.2715L16.4572 18.5587ZM19.4867 17.428L18.8952 18.3038L19.7425 17.1519L19.4867 17.428ZM19.9639 16.4771L19.4867 17.428L20.215 16.2104L19.9639 16.4771ZM18.1991 7.44902L18.8952 8.23985L18.4676 7.27099L18.1991 7.44902ZM9.77676 7.11829L9.00559 7.50526L10.128 6.94351L9.77676 7.11829ZM7.08944 9.19088L6.60971 9.90113L7.46714 8.99574L7.08944 9.19088ZM17.4083 6.75293L18.1991 7.44902L17.6845 6.58175L17.4083 6.75293ZM20.5358 12.1544L20.611 13.2718L20.7813 11.9302L20.5358 12.1544ZM20.3168 11.0827L20.5358 12.1544L20.5645 10.869L20.3168 11.0827ZM16.5325 6.16141L17.4083 6.75293L16.8174 5.99604L16.5325 6.16141ZM7.65397 8.54951L7.08944 9.19088L8.02611 8.36067L7.65397 8.54951ZM15.5816 5.68426L16.5325 6.16141L15.8758 5.52358L15.5816 5.68426ZM5.75889 12.3656L5.69792 13.2718L6.14966 12.1393L5.75889 12.3656ZM14.5654 5.33128L15.5816 5.68426L14.8696 5.17407L14.5654 5.33128ZM8.29534 7.98499L7.65397 8.54951L8.66118 7.8017L8.29534 7.98499ZM13.4937 5.11231L14.5654 5.33128L13.8084 4.95725L13.4937 5.11231ZM5.69792 13.2718L5.75889 14.178L6.08929 13.0366L5.69792 13.2718ZM12.3763 5.03713L13.4937 5.11231L12.702 4.88281L12.3763 5.03713ZM9.00559 7.50526L8.29534 7.98499L9.36445 7.32668L9.00559 7.50526ZM11.2589 5.11231L12.3763 5.03713L11.5956 4.95725L11.2589 5.11231ZM20.611 13.2718L20.5358 14.3892L20.8558 13.0366L20.611 13.2718ZM6.22274 10.6723L5.93648 11.4965L6.60895 10.4626L6.22274 10.6723ZM10.1872 5.33128L11.2589 5.11231L10.5344 5.17407L10.1872 5.33128ZM9.17097 5.68426L10.1872 5.33128L9.5282 5.52358L9.17097 5.68426ZM19.9639 10.0665L20.3168 11.0827L20.215 9.86276L19.9639 10.0665ZM19.4867 9.11562L19.9639 10.0665L19.7425 8.92121L19.4867 9.11562ZM5.93648 11.4965L5.75889 12.3656L6.32551 11.2786L5.93648 11.4965ZM6.60971 9.90113L6.22274 10.6723L6.99212 9.69901L6.60971 9.90113ZM18.8952 8.23985L19.4867 9.11562L19.1568 8.05405L18.8952 8.23985ZM16.8137 18.2814L17.0986 17.9941L16.4572 18.5587L16.8137 18.2814ZM13.8372 20.0162L14.1517 19.7116L13.2825 19.8892L13.8372 20.0162ZM18.6283 18.5942L18.8952 18.3038L19.4867 17.428L18.6283 18.5942ZM19.2257 17.7097L19.4867 17.428L19.9639 16.4771L19.2257 17.7097ZM12.9593 20.1955L13.2825 19.8892L12.3763 19.9502L12.9593 20.1955ZM6.21964 16.9163L6.60971 16.6425L6.22274 15.8713L6.21964 16.9163ZM17.9252 19.393L18.1991 19.0946L18.8952 18.3038L17.9252 19.393ZM5.82879 16.1374L6.22274 15.8713L5.93648 15.0472L5.82879 16.1374ZM12.044 20.2571L12.3763 19.9502L11.4701 19.8892L12.044 20.2571ZM5.53965 15.305L5.93648 15.0472L5.75889 14.178L5.53965 15.305ZM19.7077 16.7492L19.9639 16.4771L20.3168 15.4609L19.7077 16.7492ZM14.6696 19.727L14.9758 19.4254L14.1517 19.7116L14.6696 19.727ZM11.1287 20.1955L11.4701 19.8892L10.6009 19.7116L11.1287 20.1955ZM10.2508 20.0162L10.6009 19.7116L9.77676 19.4254L10.2508 20.0162ZM9.41844 19.727L9.77676 19.4254L9.00559 19.0384L9.41844 19.727ZM15.4485 19.3362L15.747 19.0384L14.9758 19.4254L15.4485 19.3362ZM20.0642 15.7228L20.3168 15.4609L20.5358 14.3892L20.0642 15.7228ZM8.63953 19.3362L9.00559 19.0384L8.29534 18.5587L8.63953 19.3362ZM7.92216 18.8516L8.29534 18.5587L7.65397 17.9941L7.92216 18.8516ZM6.70418 17.6337L7.08944 17.3528L6.60971 16.6425L6.70418 17.6337ZM7.27436 18.2814L7.65397 17.9941L7.08944 17.3528L7.27436 18.2814ZM16.1659 18.8516L16.4572 18.5587L15.747 19.0384L16.1659 18.8516ZM20.0642 11.3007L20.3168 11.0827L19.9639 10.0665L20.0642 11.3007ZM14.2551 5.49165L14.5654 5.33128L13.4937 5.11231L14.2551 5.49165ZM15.2815 5.84816L15.5816 5.68426L14.5654 5.33128L15.2815 5.84816ZM7.27436 8.74214L7.65397 8.54951L8.29534 7.98499L7.27436 8.74214ZM6.70418 9.38994L7.08944 9.19088L7.65397 8.54951L6.70418 9.38994ZM16.2419 6.3301L16.5325 6.16141L15.5816 5.68426L16.2419 6.3301ZM5.36028 14.4271L5.75889 14.178L5.69792 13.2718L5.36028 14.4271ZM8.63953 7.68742L9.00559 7.50526L9.77676 7.11829L8.63953 7.68742ZM9.83296 5.49165L10.1872 5.33128L9.17097 5.68426L9.83296 5.49165ZM17.1264 6.92755L17.4083 6.75293L16.5325 6.16141L17.1264 6.92755ZM13.1726 5.27047L13.4937 5.11231L12.3763 5.03713L13.1726 5.27047ZM6.21964 10.1073L6.60971 9.90113L7.08944 9.19088L6.21964 10.1073ZM17.9252 7.63061L18.1991 7.44902L17.4083 6.75293L17.9252 7.63061ZM5.29871 13.5118L5.69792 13.2718L5.75889 12.3656L5.29871 13.5118ZM20.2853 14.6404L20.5358 14.3892L20.611 13.2718L20.2853 14.6404ZM18.6283 8.42937L18.8952 8.23985L18.1991 7.44902L18.6283 8.42937ZM12.044 5.19455L12.3763 5.03713L11.2589 5.11231L12.044 5.19455ZM5.82879 10.8862L6.22274 10.6723L6.60971 9.90113L5.82879 10.8862ZM19.2257 9.31392L19.4867 9.11562L18.8952 8.23985L19.2257 9.31392ZM10.9154 5.27047L11.2589 5.11231L10.1872 5.33128L10.9154 5.27047ZM7.92216 8.17195L8.29534 7.98499L9.00559 7.50526L7.92216 8.17195ZM19.7077 10.2743L19.9639 10.0665L19.4867 9.11562L19.7077 10.2743ZM20.3613 13.5118L20.611 13.2718L20.5358 12.1544L20.3613 13.5118ZM5.53965 11.7186L5.93648 11.4965L6.22274 10.6723L5.53965 11.7186ZM5.36028 12.5965L5.75889 12.3656L5.93648 11.4965L5.36028 12.5965ZM20.2853 12.3832L20.5358 12.1544L20.3168 11.0827L20.2853 12.3832ZM6.21964 16.9163L6.70418 17.6337L6.60971 16.6425L6.21964 16.9163ZM20.0642 15.7228L19.7077 16.7492L20.3168 15.4609L20.0642 15.7228ZM10.2508 20.0162L11.1287 20.1955L10.6009 19.7116L10.2508 20.0162ZM6.70418 17.6337L7.27436 18.2814L7.08944 17.3528L6.70418 17.6337ZM14.6696 19.727L15.4485 19.3362L14.9758 19.4254L14.6696 19.727ZM8.63953 19.3362L9.41844 19.727L9.00559 19.0384L8.63953 19.3362ZM12.9593 20.1955L13.8372 20.0162L13.2825 19.8892L12.9593 20.1955ZM20.2853 14.6404L20.0642 15.7228L20.5358 14.3892L20.2853 14.6404ZM11.1287 20.1955L12.044 20.2571L11.4701 19.8892L11.1287 20.1955ZM19.2257 17.7097L18.6283 18.5942L19.4867 17.428L19.2257 17.7097ZM5.36028 14.4271L5.53965 15.305L5.75889 14.178L5.36028 14.4271ZM9.41844 19.727L10.2508 20.0162L9.77676 19.4254L9.41844 19.727ZM7.27436 18.2814L7.92216 18.8516L7.65397 17.9941L7.27436 18.2814ZM13.8372 20.0162L14.6696 19.727L14.1517 19.7116L13.8372 20.0162ZM5.53965 15.305L5.82879 16.1374L5.93648 15.0472L5.53965 15.305ZM16.1659 18.8516L16.8137 18.2814L16.4572 18.5587L16.1659 18.8516ZM12.044 20.2571L12.9593 20.1955L12.3763 19.9502L12.044 20.2571ZM15.4485 19.3362L16.1659 18.8516L15.747 19.0384L15.4485 19.3362ZM5.82879 16.1374L6.21964 16.9163L6.22274 15.8713L5.82879 16.1374ZM18.6283 18.5942L17.9252 19.393L18.8952 18.3038L18.6283 18.5942ZM19.7077 16.7492L19.2257 17.7097L19.9639 16.4771L19.7077 16.7492ZM7.92216 18.8516L8.63953 19.3362L8.29534 18.5587L7.92216 18.8516ZM5.29871 13.5118L5.36028 14.4271L5.69792 13.2718L5.29871 13.5118ZM16.2419 6.3301L17.1264 6.92755L16.5325 6.16141L16.2419 6.3301ZM20.0642 11.3007L20.2853 12.3832L20.3168 11.0827L20.0642 11.3007ZM8.63953 7.68742L7.92216 8.17195L9.00559 7.50526L8.63953 7.68742ZM12.044 5.19455L13.1726 5.27047L12.3763 5.03713L12.044 5.19455ZM6.21964 10.1073L5.82879 10.8862L6.60971 9.90113L6.21964 10.1073ZM20.2853 12.3832L20.3613 13.5118L20.5358 12.1544L20.2853 12.3832ZM17.1264 6.92755L17.9252 7.63061L17.4083 6.75293L17.1264 6.92755ZM7.27436 8.74214L6.70418 9.38994L7.65397 8.54951L7.27436 8.74214ZM8.80657 5.84816L9.83296 5.49165L9.17097 5.68426L8.80657 5.84816ZM20.3613 13.5118L20.2853 14.6404L20.611 13.2718L20.3613 13.5118ZM13.1726 5.27047L14.2551 5.49165L13.4937 5.11231L13.1726 5.27047ZM17.9252 7.63061L18.6283 8.42937L18.1991 7.44902L17.9252 7.63061ZM5.36028 12.5965L5.29871 13.5118L5.75889 12.3656L5.36028 12.5965ZM9.41844 7.29657L8.63953 7.68742L9.77676 7.11829L9.41844 7.29657ZM5.82879 10.8862L5.53965 11.7186L6.22274 10.6723L5.82879 10.8862ZM18.6283 8.42937L19.2257 9.31392L18.8952 8.23985L18.6283 8.42937ZM14.2551 5.49165L15.2815 5.84816L14.5654 5.33128L14.2551 5.49165ZM9.83296 5.49165L10.9154 5.27047L10.1872 5.33128L9.83296 5.49165ZM5.53965 11.7186L5.36028 12.5965L5.93648 11.4965L5.53965 11.7186ZM19.2257 9.31392L19.7077 10.2743L19.4867 9.11562L19.2257 9.31392ZM7.92216 8.17195L7.27436 8.74214L8.29534 7.98499L7.92216 8.17195ZM15.2815 5.84816L16.2419 6.3301L15.5816 5.68426L15.2815 5.84816ZM6.70418 9.38994L6.21964 10.1073L7.08944 9.19088L6.70418 9.38994ZM19.7077 10.2743L20.0642 11.3007L19.9639 10.0665L19.7077 10.2743ZM10.9154 5.27047L12.044 5.19455L11.2589 5.11231L10.9154 5.27047Z" fill="url(#paint20_linear_17_222)"/>
<path d="M5.82883 16.1372L3.72681 13.5116L7.84618 20.6933L5.82883 16.1372ZM19.2258 17.7095L19.7077 16.749L20.0642 15.7226L19.2258 17.7095ZM18.7894 13.5116L18.7278 14.4269L20.3613 13.5116H18.7894ZM20.3613 13.5116L18.5484 11.7184L18.7278 12.5963L20.3613 13.5116ZM18.7278 14.4269L18.5484 15.3048L20.3613 13.5116L18.7278 14.4269ZM20.3613 13.5116L18.2593 10.886L18.5484 11.7184L20.3613 13.5116ZM18.5484 15.3048L18.2593 16.1372L20.3613 13.5116L18.5484 15.3048ZM20.3613 13.5116L16.2419 6.32988L18.2593 10.886L20.3613 13.5116ZM18.2593 16.1372L17.8684 16.9161L20.3613 13.5116L18.2593 16.1372ZM16.2419 6.32988L17.8684 10.1071L18.2593 10.886L16.2419 6.32988ZM17.8684 16.9161L17.3839 17.6334L20.3613 13.5116L17.8684 16.9161ZM16.2419 6.32988L17.3839 9.38973L17.8684 10.1071L16.2419 6.32988ZM17.3839 17.6334L16.2419 20.6933L20.3613 13.5116L17.3839 17.6334ZM16.2419 6.32988L16.8137 8.74193L17.3839 9.38973L16.2419 6.32988ZM17.3839 17.6334L16.8137 18.2812L16.2419 20.6933L17.3839 17.6334ZM16.2419 6.32988L16.1659 8.17174L16.8137 8.74193L16.2419 6.32988ZM16.8137 18.2812L16.1659 18.8514L16.2419 20.6933L16.8137 18.2812ZM16.2419 6.32988L15.4485 7.68721L16.1659 8.17174L16.2419 6.32988ZM16.1659 18.8514L15.4485 19.336L16.2419 20.6933L16.1659 18.8514ZM16.2419 6.32988L14.6696 7.29635L15.4485 7.68721L16.2419 6.32988ZM15.4485 19.336L14.6696 19.7268L16.2419 20.6933L15.4485 19.336ZM16.2419 6.32988L13.8372 7.00722L14.6696 7.29635L16.2419 6.32988ZM14.6696 19.7268L13.8372 20.0159L16.2419 20.6933L14.6696 19.7268ZM16.2419 6.32988L12.9594 6.82785L13.8372 7.00722L16.2419 6.32988ZM13.8372 20.0159L12.9594 20.1953L16.2419 20.6933L13.8372 20.0159ZM16.2419 6.32988H7.84618L12.9594 6.82785L16.2419 6.32988ZM12.9594 20.1953L12.0441 20.2569L16.2419 20.6933L12.9594 20.1953ZM7.84618 6.32988L12.0441 6.76627L12.9594 6.82785L7.84618 6.32988ZM12.0441 20.2569L11.1288 20.1953L16.2419 20.6933L12.0441 20.2569ZM7.84618 6.32988L11.1288 6.82785L12.0441 6.76627L7.84618 6.32988ZM11.1288 20.1953L7.84618 20.6933H16.2419L11.1288 20.1953ZM7.84618 6.32988L10.2509 7.00722L11.1288 6.82785L7.84618 6.32988ZM11.1288 20.1953L10.2509 20.0159L7.84618 20.6933L11.1288 20.1953ZM7.84618 6.32988L9.41848 7.29635L10.2509 7.00722L7.84618 6.32988ZM10.2509 20.0159L9.41848 19.7268L7.84618 20.6933L10.2509 20.0159ZM7.84618 6.32988L8.63957 7.68721L9.41848 7.29635L7.84618 6.32988ZM9.41848 19.7268L8.63957 19.336L7.84618 20.6933L9.41848 19.7268ZM7.84618 6.32988L7.9222 8.17174L8.63957 7.68721L7.84618 6.32988ZM8.63957 19.336L7.9222 18.8514L7.84618 20.6933L8.63957 19.336ZM7.84618 6.32988L7.2744 8.74193L7.9222 8.17174L7.84618 6.32988ZM7.9222 18.8514L7.2744 18.2812L7.84618 20.6933L7.9222 18.8514ZM7.84618 6.32988L6.70422 9.38973L7.2744 8.74193L7.84618 6.32988ZM7.2744 18.2812L6.70422 17.6334L7.84618 20.6933L7.2744 18.2812ZM7.84618 6.32988L3.72681 13.5116L6.70422 9.38973L7.84618 6.32988ZM6.70422 17.6334L6.21968 16.9161L7.84618 20.6933L6.70422 17.6334ZM3.72681 13.5116L6.21968 10.1071L6.70422 9.38973L3.72681 13.5116ZM6.21968 16.9161L5.82883 16.1372L7.84618 20.6933L6.21968 16.9161ZM3.72681 13.5116L5.82883 10.886L6.21968 10.1071L3.72681 13.5116ZM20.3613 13.5116L18.7278 12.5963L18.7894 13.5116H20.3613ZM20.3613 13.5116L19.2258 9.31371L16.2419 6.32988L20.3613 13.5116ZM16.2419 6.32988L12.0441 5.19434L7.84618 6.32988H16.2419ZM7.84618 6.32988L4.86235 9.31371L3.72681 13.5116L7.84618 6.32988ZM3.72681 13.5116L5.53969 11.7184L5.82883 10.886L3.72681 13.5116ZM5.82883 16.1372L5.53969 15.3048L3.72681 13.5116L5.82883 16.1372ZM3.72681 13.5116L4.86235 17.7095L7.84618 20.6933L3.72681 13.5116ZM7.84618 20.6933L12.0441 21.8288L16.2419 20.6933H7.84618ZM16.2419 20.6933L19.2258 17.7095L20.3613 13.5116L16.2419 20.6933ZM20.3613 13.5116L20.0642 11.3005L19.2258 9.31371L20.3613 13.5116ZM19.2258 9.31371L17.9252 7.6304L16.2419 6.32988L19.2258 9.31371ZM16.2419 6.32988L14.2551 5.49144L12.0441 5.19434L16.2419 6.32988ZM12.0441 5.19434L9.833 5.49144L7.84618 6.32988L12.0441 5.19434ZM7.84618 6.32988L6.16287 7.6304L4.86235 9.31371L7.84618 6.32988ZM4.86235 9.31371L4.02391 11.3005L3.72681 13.5116L4.86235 9.31371ZM3.72681 13.5116L5.36032 12.5963L5.53969 11.7184L3.72681 13.5116ZM5.53969 15.3048L5.36032 14.4269L3.72681 13.5116L5.53969 15.3048ZM3.72681 13.5116L4.02391 15.7226L4.86235 17.7095L3.72681 13.5116ZM4.86235 17.7095L6.16287 19.3928L7.84618 20.6933L4.86235 17.7095ZM7.84618 20.6933L9.833 21.5317L12.0441 21.8288L7.84618 20.6933ZM12.0441 21.8288L14.2551 21.5317L16.2419 20.6933L12.0441 21.8288ZM16.2419 20.6933L17.9252 19.3928L19.2258 17.7095L16.2419 20.6933ZM19.2258 17.7095L20.0642 15.7226L20.3613 13.5116L19.2258 17.7095ZM20.3613 13.5116L20.2854 12.383L20.0642 11.3005L20.3613 13.5116ZM20.0642 11.3005L19.7077 10.2741L19.2258 9.31371L20.0642 11.3005ZM19.2258 9.31371L18.6283 8.42916L17.9252 7.6304L19.2258 9.31371ZM17.9252 7.6304L17.1265 6.92734L16.2419 6.32988L17.9252 7.6304ZM16.2419 6.32988L15.2815 5.84795L14.2551 5.49144L16.2419 6.32988ZM14.2551 5.49144L13.1727 5.27026L12.0441 5.19434L14.2551 5.49144ZM12.0441 5.19434L10.9155 5.27026L9.833 5.49144L12.0441 5.19434ZM9.833 5.49144L8.80661 5.84795L7.84618 6.32988L9.833 5.49144ZM7.84618 6.32988L6.96163 6.92734L6.16287 7.6304L7.84618 6.32988ZM6.16287 7.6304L5.45981 8.42916L4.86235 9.31371L6.16287 7.6304ZM4.86235 9.31371L4.38042 10.2741L4.02391 11.3005L4.86235 9.31371ZM4.02391 11.3005L3.80273 12.383L3.72681 13.5116L4.02391 11.3005ZM3.72681 13.5116H5.29875L5.36032 12.5963L3.72681 13.5116ZM5.36032 14.4269L5.29875 13.5116H3.72681L5.36032 14.4269ZM3.72681 13.5116L3.80273 14.6402L4.02391 15.7226L3.72681 13.5116ZM4.02391 15.7226L4.38042 16.749L4.86235 17.7095L4.02391 15.7226ZM4.86235 17.7095L5.45981 18.594L6.16287 19.3928L4.86235 17.7095ZM6.16287 19.3928L6.96163 20.0958L7.84618 20.6933L6.16287 19.3928ZM7.84618 20.6933L8.80661 21.1752L9.833 21.5317L7.84618 20.6933ZM9.833 21.5317L10.9155 21.7529L12.0441 21.8288L9.833 21.5317ZM12.0441 21.8288L13.1727 21.7529L14.2551 21.5317L12.0441 21.8288ZM14.2551 21.5317L15.2815 21.1752L16.2419 20.6933L14.2551 21.5317ZM16.2419 20.6933L17.1265 20.0958L17.9252 19.3928L16.2419 20.6933ZM17.9252 19.3928L18.6283 18.594L19.2258 17.7095L17.9252 19.3928ZM20.0642 15.7226L20.2854 14.6402L20.3613 13.5116L20.0642 15.7226Z" fill="url(#paint21_linear_17_222)"/>
</g>
<path fill-rule="evenodd" clip-rule="evenodd" d="M17.3315 16.5908L16.6572 2.66162L15.2189 4.44929L15.8023 18.2707C16.1895 17.9725 16.9907 17.1303 17.3315 16.5908Z" fill="url(#paint22_linear_17_222)"/>
<path fill-rule="evenodd" clip-rule="evenodd" d="M13.6491 16.745C13.6176 16.7688 13.5804 16.7825 13.5408 16.7825H13.4914H10.4692C10.3563 16.7825 10.2631 16.6702 10.2631 16.5329V15.0421C10.2631 14.9048 10.3559 14.7925 10.4692 14.7925H13.5408C13.5925 14.7925 13.64 14.8159 13.6763 14.8545C13.6825 14.8581 13.6884 14.8619 13.6941 14.866L14.8006 15.658C14.9023 15.7309 14.9023 15.8505 14.8006 15.9234L13.6766 16.7279C13.6679 16.7342 13.6587 16.7398 13.6491 16.745Z" fill="#B2230C"/>
<path fill-rule="evenodd" clip-rule="evenodd" d="M10.8649 16.7753H9.96201C9.84994 16.7753 9.75586 16.663 9.75586 16.5257V15.0765C9.75586 14.9392 9.84866 14.8286 9.96201 14.8269L11.6924 14.7993C11.9842 14.7947 11.3083 16.7753 10.8649 16.7753Z" fill="#962212"/>
<path fill-rule="evenodd" clip-rule="evenodd" d="M15.3872 7.73152H14.4843C14.3731 7.73152 14.2552 7.63641 14.2782 7.52537L14.7248 5.36661C14.7478 5.25557 14.8177 5.16193 14.931 5.16045L16.6614 5.1377C16.9532 5.13385 15.8306 7.73152 15.3872 7.73152Z" fill="#962212"/>
<path fill-rule="evenodd" clip-rule="evenodd" d="M13.5286 3.69643L16.0956 1.70482L16.0958 1.70476C16.3551 1.44702 16.7214 1.64051 16.7253 1.97968L16.7614 5.15406L8.25877 21.8241C8.21087 21.918 8.09326 21.9959 7.99927 21.9959H5.57094C5.47713 21.9959 5.43849 21.9184 5.48683 21.8241L14.3792 4.46865L13.5569 4.2033C13.2973 4.11952 13.3467 3.83753 13.5286 3.69643Z" fill="#FC3110"/>
<path fill-rule="evenodd" clip-rule="evenodd" d="M13.5096 3.70717L16.0767 1.71557L16.0769 1.71551C16.3362 1.45776 16.7025 1.65126 16.7064 1.99042L16.7424 5.1648L8.23985 21.8348C8.19195 21.9287 8.07434 22.0066 7.98035 22.0066H5.55202C5.45821 22.0066 5.41957 21.9292 5.46791 21.8348L14.3602 4.47939L13.538 4.21404C13.2784 4.13027 13.3277 3.84827 13.5096 3.70717Z" fill="#FC3110"/>
<mask id="mask1_17_222" style="mask-type:alpha" maskUnits="userSpaceOnUse" x="5" y="1" width="12" height="22">
<path fill-rule="evenodd" clip-rule="evenodd" d="M13.5096 3.70717L16.0767 1.71557L16.0769 1.71551C16.3362 1.45776 16.7025 1.65126 16.7064 1.99042L16.7424 5.1648L8.23985 21.8348C8.19195 21.9287 8.07434 22.0066 7.98035 22.0066H5.55202C5.45821 22.0066 5.41957 21.9292 5.46791 21.8348L14.3602 4.47939L13.538 4.21404C13.2784 4.13027 13.3277 3.84827 13.5096 3.70717Z" fill="#FC3110"/>
</mask>
<g mask="url(#mask1_17_222)">
<path d="M17.3977 3.4102L7.06892 23.5562L7.03442 23.5386L17.3632 3.39258L17.3977 3.4102Z" fill="#F8B670"/>
<path d="M18.0045 1.67143L6.0146 25.0574L5.9801 25.0398L17.97 1.65381L18.0045 1.67143Z" fill="#E5097F"/>
<path d="M18.6115 -0.0673422L4.9604 26.5587L4.9259 26.541L18.577 -0.0849609L18.6115 -0.0673422Z" fill="#009846"/>
<path d="M19.2183 -1.8066L3.90608 28.0594L3.87158 28.0418L19.1838 -1.82422L19.2183 -1.8066Z" fill="#9089B0"/>
<path d="M19.8252 -3.54537L2.85188 29.5606L2.81738 29.543L19.7907 -3.56299L19.8252 -3.54537Z" fill="#CB5499"/>
<path d="M20.4322 -5.28414L1.79768 31.0618L1.76318 31.0442L20.3977 -5.30176L20.4322 -5.28414Z" fill="#F08683"/>
<path d="M21.039 -7.02291L0.74336 32.563L0.708862 32.5454L21.0045 -7.04053L21.039 -7.02291Z" fill="#A8D4AF"/>
<path d="M21.6459 -8.76168L-0.310839 34.0643L-0.345337 34.0467L21.6114 -8.7793L21.6459 -8.76168Z" fill="#F08143"/>
<path d="M22.2527 -10.5004L-1.36516 35.5655L-1.39966 35.5479L22.2182 -10.5181L22.2527 -10.5004Z" fill="#A79ECD"/>
<path d="M22.8597 -12.2392L-2.41936 37.0667L-2.45386 37.0491L22.8252 -12.2568L22.8597 -12.2392Z" fill="#57A7B3"/>
<path d="M23.4666 -13.9785L-3.47356 38.5674L-3.50806 38.5498L23.4321 -13.9961L23.4666 -13.9785Z" fill="#CE82B5"/>
<path d="M24.0734 -15.7172L-4.52788 40.0687L-4.56238 40.0511L24.0389 -15.7349L24.0734 -15.7172Z" fill="#A79ECD"/>
<path d="M24.6803 -17.456L-5.58208 41.5699L-5.61658 41.5523L24.6458 -17.4736L24.6803 -17.456Z" fill="#F8B670"/>
<path d="M25.2872 -19.1948L-6.6364 43.0711L-6.6709 43.0535L25.2527 -19.2124L25.2872 -19.1948Z" fill="#A79ECD"/>
</g>
<defs>
<linearGradient id="paint0_linear_17_222" x1="68.0464" y1="18.9295" x2="67.6092" y2="7.10642" gradientUnits="userSpaceOnUse">
<stop stop-color="#6B4500"/>
<stop offset="0.322917" stop-color="#D5B26B"/>
<stop offset="0.546875" stop-color="#F8F9D0"/>
<stop offset="1" stop-color="#997A3D"/>
</linearGradient>
<linearGradient id="paint1_linear_17_222" x1="79.5531" y1="23.2297" x2="79.3923" y2="8.0881" gradientUnits="userSpaceOnUse">
<stop stop-color="#6B4500"/>
<stop offset="0.322917" stop-color="#D5B26B"/>
<stop offset="0.546875" stop-color="#F8F9D0"/>
<stop offset="1" stop-color="#997A3D"/>
</linearGradient>
<linearGradient id="paint2_linear_17_222" x1="53.9671" y1="8.96751" x2="51.8205" y2="17.7276" gradientUnits="userSpaceOnUse">
<stop stop-color="#202020"/>
<stop offset="1" stop-color="#616161"/>
</linearGradient>
<linearGradient id="paint3_linear_17_222" x1="68.0669" y1="16.1279" x2="63.9577" y2="0.940057" gradientUnits="userSpaceOnUse">
<stop stop-color="#202020"/>
<stop offset="1" stop-color="#616161"/>
</linearGradient>
<linearGradient id="paint4_linear_17_222" x1="77.6573" y1="20.6312" x2="68.98" y2="-2.97267" gradientUnits="userSpaceOnUse">
<stop stop-color="#202020"/>
<stop offset="1" stop-color="#616161"/>
</linearGradient>
<linearGradient id="paint5_linear_17_222" x1="68.1802" y1="16.1947" x2="63.8798" y2="0.637278" gradientUnits="userSpaceOnUse">
<stop stop-color="#202020"/>
<stop offset="1" stop-color="#616161"/>
</linearGradient>
<linearGradient id="paint6_linear_17_222" x1="58.4969" y1="24.0056" x2="31.0076" y2="0.710258" gradientUnits="userSpaceOnUse">
<stop stop-color="#FF0000"/>
<stop offset="1"/>
</linearGradient>
<linearGradient id="paint7_linear_17_222" x1="58.4969" y1="24.0056" x2="31.0076" y2="0.710258" gradientUnits="userSpaceOnUse">
<stop stop-color="#FF0000"/>
<stop offset="1"/>
</linearGradient>
<linearGradient id="paint8_linear_17_222" x1="50.742" y1="6.31585" x2="53.3221" y2="27.8167" gradientUnits="userSpaceOnUse">
<stop stop-color="#FC3110"/>
<stop offset="0.979167"/>
</linearGradient>
<linearGradient id="paint9_linear_17_222" x1="50.742" y1="6.31585" x2="53.3221" y2="27.8167" gradientUnits="userSpaceOnUse">
<stop stop-color="#FC3110"/>
<stop offset="0.979167"/>
</linearGradient>
<linearGradient id="paint10_linear_17_222" x1="50.742" y1="6.31585" x2="53.3221" y2="27.8167" gradientUnits="userSpaceOnUse">
<stop stop-color="#FC3110"/>
<stop offset="0.979167"/>
</linearGradient>
<linearGradient id="paint11_linear_17_222" x1="50.742" y1="6.31585" x2="53.3221" y2="27.8167" gradientUnits="userSpaceOnUse">
<stop stop-color="#FC3110"/>
<stop offset="0.979167"/>
</linearGradient>
<linearGradient id="paint12_linear_17_222" x1="50.742" y1="6.31585" x2="53.3221" y2="27.8167" gradientUnits="userSpaceOnUse">
<stop stop-color="#FC3110"/>
<stop offset="0.979167"/>
</linearGradient>
<linearGradient id="paint13_linear_17_222" x1="50.742" y1="6.31585" x2="53.3221" y2="27.8167" gradientUnits="userSpaceOnUse">
<stop stop-color="#FC3110"/>
<stop offset="0.979167"/>
</linearGradient>
<linearGradient id="paint14_linear_17_222" x1="50.742" y1="6.31585" x2="53.3221" y2="27.8167" gradientUnits="userSpaceOnUse">
<stop stop-color="#FC3110"/>
<stop offset="0.979167"/>
</linearGradient>
<linearGradient id="paint15_linear_17_222" x1="50.742" y1="6.31585" x2="53.3221" y2="27.8167" gradientUnits="userSpaceOnUse">
<stop stop-color="#FC3110"/>
<stop offset="0.979167"/>
</linearGradient>
<linearGradient id="paint16_linear_17_222" x1="50.742" y1="6.31585" x2="53.3221" y2="27.8167" gradientUnits="userSpaceOnUse">
<stop stop-color="#FC3110"/>
<stop offset="0.979167"/>
</linearGradient>
<linearGradient id="paint17_linear_17_222" x1="50.742" y1="6.31585" x2="53.3221" y2="27.8167" gradientUnits="userSpaceOnUse">
<stop stop-color="#FC3110"/>
<stop offset="0.979167"/>
</linearGradient>
<linearGradient id="paint18_linear_17_222" x1="50.742" y1="6.31585" x2="53.3221" y2="27.8167" gradientUnits="userSpaceOnUse">
<stop stop-color="#FC3110"/>
<stop offset="0.979167"/>
</linearGradient>
<linearGradient id="paint19_linear_17_222" x1="50.742" y1="6.31585" x2="53.3221" y2="27.8167" gradientUnits="userSpaceOnUse">
<stop stop-color="#FC3110"/>
<stop offset="0.979167"/>
</linearGradient>
<linearGradient id="paint20_linear_17_222" x1="19.2171" y1="20.257" x2="16.2098" y2="3.39812" gradientUnits="userSpaceOnUse">
<stop stop-color="#6B4500"/>
<stop offset="0.322917" stop-color="#D5B26B"/>
<stop offset="0.546875" stop-color="#F8F9D0"/>
<stop offset="1" stop-color="#997A3D"/>
</linearGradient>
<linearGradient id="paint21_linear_17_222" x1="18.6158" y1="17.3749" x2="6.1446" y2="7.92977" gradientUnits="userSpaceOnUse">
<stop stop-color="#110303"/>
<stop offset="1" stop-color="#616161"/>
</linearGradient>
<linearGradient id="paint22_linear_17_222" x1="16.2724" y1="2.66162" x2="16.2724" y2="18.2706" gradientUnits="userSpaceOnUse">
<stop stop-color="#FF0000"/>
<stop offset="1"/>
</linearGradient>
</defs>
</svg>
