<svg width="1006" height="335" viewBox="0 0 1006 335" fill="none" xmlns="http://www.w3.org/2000/svg">
<path d="M921.994 301.962V243.658C933.696 253.407 948.354 259.274 964.302 259.274V230.745C943.512 230.745 926.211 214.618 922.688 193.462C934.276 202.871 948.667 208.52 964.302 208.52V179.99C940.971 179.99 921.994 159.709 921.994 134.775H895.299C895.299 159.709 876.322 179.99 852.992 179.99V208.52C868.627 208.52 883.017 202.865 894.606 193.462C891.082 214.618 873.787 230.745 852.992 230.745V259.274C868.939 259.274 883.597 253.407 895.299 243.664V298.786C795.265 284.785 737.413 252.441 684.898 223.055C658.215 208.119 632.27 193.657 602.847 183.167V100.257L615.765 109.21L630.985 84.1364L510.957 0.928528L390.94 84.1303L406.16 109.204L419.073 100.251V181.837C388.729 192.327 362.608 207.232 335.72 222.642C324.347 229.159 312.707 235.817 300.403 242.395C283.557 226.888 257.72 208.417 220.34 193.948H221.426V141.384C233.122 151.133 247.785 156.994 263.733 156.994V128.464C242.943 128.464 225.643 112.338 222.119 91.1822C233.702 100.585 248.092 106.24 263.733 106.24V77.7101C240.403 77.7101 221.426 57.429 221.426 32.4951H194.73C194.73 57.429 175.748 77.7101 152.423 77.7101V106.24C168.058 106.24 182.454 100.585 194.037 91.1822C190.513 112.338 173.213 128.464 152.423 128.464V156.994C168.371 156.994 183.034 151.127 194.73 141.378V185.275C163.619 176.164 125.978 170.029 80.8174 169.573V169.513C80.1581 169.513 79.5499 169.549 78.8907 169.555C77.7483 169.549 76.64 169.513 75.4863 169.513V169.622C47.7057 169.907 22.6758 172.264 0.362671 176.224V205.191C23.0623 200.891 48.8651 198.255 78.1177 198.097C180.846 198.638 241.039 229.712 273.554 255.928C215.748 283.169 139.84 305.898 11.8147 305.898V334.428C197.135 334.428 280.965 286.383 348.325 247.782C397.095 219.83 439.209 195.692 508.911 195.692C578.612 195.692 622.051 220.079 672.503 248.317C741.051 286.68 826.365 334.428 1006 334.428V305.898C975.14 305.898 947.325 304.477 921.983 301.956L921.994 301.962ZM445.768 81.7493L510.957 36.5526L576.146 81.7432V175.119C562.142 171.669 547.183 169.221 530.974 168.031V110.728H490.934V167.751C474.645 168.705 459.675 170.891 445.762 174.111V81.7493H445.768Z" fill="white"/>
<path d="M752.918 197.866C803.87 197.866 845.319 153.562 845.319 99.1148C845.319 44.6673 803.87 0.363525 752.918 0.363525C701.966 0.363525 660.516 44.6613 660.516 99.1148C660.516 153.568 701.971 197.866 752.918 197.866ZM752.918 24.5745C791.377 24.5745 822.665 58.0119 822.665 99.1148C822.665 140.218 791.377 173.655 752.918 173.655C714.458 173.655 683.17 140.218 683.17 99.1148C683.17 58.0119 714.458 24.5745 752.918 24.5745Z" fill="white"/>
</svg>
