<svg width="124" height="125" viewBox="0 0 124 125" fill="none" xmlns="http://www.w3.org/2000/svg">
<g id="cash" clip-path="url(#clip0_15_42)">
<g id="Group">
<g id="Group_2">
<path id="Vector" d="M95.454 67.8688L92.6251 65.0399C94.0515 63.6134 94.0515 61.2928 92.6251 59.8663C91.2428 58.4841 88.8341 58.4841 87.4515 59.8663L84.6225 57.0374L86.623 55.0369C88.0494 53.6105 88.0494 51.2898 86.623 49.8633C85.2407 48.4811 82.832 48.4811 81.4494 49.8633L79.4489 51.8638L76.62 49.0348L80.6213 45.0336C82.0477 43.6071 82.0477 41.2864 80.6213 39.86C79.1948 38.4335 76.8741 38.4335 75.4477 39.86L71.4464 43.8612L68.6175 41.0323L70.6179 39.0319C71.31 38.3397 71.6881 37.4215 71.6881 36.4451C71.6881 35.4686 71.31 34.5504 70.6179 33.8583C69.1914 32.4318 66.8708 32.4318 65.4443 33.8583L63.4439 35.8587L60.6149 33.0297L62.6154 31.0293C65.6001 28.0446 70.4617 28.0446 73.4464 31.0293C74.6208 32.2037 75.3307 33.6661 75.5828 35.1905C78.2514 34.2963 81.3242 34.9066 83.449 37.031C85.5734 39.1554 86.1858 42.2265 85.2895 44.8972C86.8139 45.1493 88.2763 45.8596 89.4507 47.0336C91.5751 49.158 92.1875 52.2291 91.2912 54.8997C92.8156 55.1518 94.278 55.8621 95.4524 57.0361C98.4408 60.0225 98.4408 64.8841 95.454 67.8688Z" fill="#072D15"/>
<path id="Vector_2" d="M64.6177 91.0468L58.8883 96.7745L44.9341 102.756L24.6827 120.981L27.3596 123.954L34.1613 117.832C34.9737 118.242 35.7815 118.664 36.6001 119.03L38.2365 115.381C37.9443 115.249 37.6543 115.089 37.3621 114.951L47.1167 106.171L61.1706 100.149L67.4442 93.8736L64.6177 91.0468Z" fill="#072D15"/>
<path id="Vector_3" d="M51.518 21.6141L21.1917 51.9404L28.1637 58.9123L35.0175 52.2846L35.0414 52.2606C36.6861 50.616 39.3625 50.616 41.0072 52.2606C42.4237 53.6772 42.6456 55.9156 41.5353 57.5821L35.6538 66.4004L72.5458 103.292L102.872 72.9661L51.518 21.6141ZM69.3107 69.7331C65.2916 73.7521 58.7738 73.7521 54.7527 69.7331C50.7337 65.714 50.7337 59.1962 54.7527 55.1751C58.7718 51.1561 65.2896 51.1561 69.3107 55.1751C73.3297 59.1941 73.3297 65.712 69.3107 69.7331Z" fill="#CAA44C"/>
<path id="Vector_4" d="M62.0328 74.7483C58.7481 74.7483 55.6592 73.4681 53.3385 71.1454C51.0158 68.8247 49.7356 65.7359 49.7356 62.4532C49.7356 59.1664 51.0158 56.0796 53.3385 53.7589C55.6592 51.4362 58.746 50.156 62.0328 50.156C65.3176 50.156 68.4048 51.4362 70.7251 53.7589C73.0478 56.0796 74.328 59.1664 74.328 62.4532C74.328 65.7379 73.0478 68.8247 70.7251 71.1454C68.4044 73.4698 65.3176 74.7483 62.0328 74.7483ZM62.0328 54.1589C59.8184 54.1589 57.7357 55.023 56.1671 56.5895C54.5985 58.1561 53.7365 60.2383 53.7365 62.4553C53.7365 64.6677 54.6005 66.7503 56.1671 68.3189C57.7336 69.8855 59.8163 70.7495 62.0328 70.7495C64.2452 70.7495 66.3279 69.8855 67.8965 68.3189C69.4651 66.7524 70.3271 64.6697 70.3271 62.4553C70.3271 60.2408 69.4631 58.1581 67.8965 56.5895C66.33 55.0209 64.2452 54.1589 62.0328 54.1589Z" fill="#072D15"/>
<path id="Vector_5" d="M32.3589 71.3456L35.6878 73.5642L44.8643 59.8005C47.0288 56.5517 46.597 52.1905 43.8362 49.4297C40.6312 46.2248 35.4159 46.2248 32.2109 49.4297L20.1757 61.4649L16.1745 81.4704L9.85668 87.792C9.68643 87.442 9.49469 87.1019 9.33271 86.7498L5.69963 88.4263C6.06574 89.2164 6.47773 89.9907 6.8798 90.7689L0.600006 97.0487L3.42895 99.8776L19.8613 83.4453L23.8626 63.4397L35.0415 52.2603C36.6862 50.6157 39.3626 50.6157 41.0073 52.2603C42.4238 53.6769 42.6457 55.9153 41.5354 57.5819L32.3589 71.3456Z" fill="#072D15"/>
<path id="Vector_6" d="M8.18645 40.8113L4.47526 39.3187C3.43104 41.9175 2.55459 44.6121 1.87442 47.3229L5.75337 48.2952C6.39181 45.7584 7.20999 43.2398 8.18645 40.8113Z" fill="#072D15"/>
<path id="Vector_7" d="M15.9702 27.1731L12.7974 24.7346C11.0929 26.9512 9.52633 29.3099 8.13995 31.7425L11.6127 33.7231C12.9115 31.4524 14.3776 29.2458 15.9702 27.1731Z" fill="#072D15"/>
<path id="Vector_8" d="M0.804108 72.3721C1.24626 75.1308 1.88428 77.8894 2.70247 80.5684L6.5277 79.4002C5.76364 76.8956 5.16736 74.3188 4.75331 71.7402L0.804108 72.3721Z" fill="#072D15"/>
<path id="Vector_9" d="M4.0148 62.4532C4.0148 60.3107 4.13463 58.152 4.36687 56.0354L0.389982 55.5974C0.13998 57.8582 0.0139465 60.1627 0.0139465 62.4611C0.0160127 62.9772 0.0217978 63.4876 0.0337814 63.9975L4.03505 63.9033C4.02306 63.4194 4.01687 62.933 4.0148 62.4532Z" fill="#072D15"/>
<path id="Vector_10" d="M113.619 28.0258C112.064 25.701 110.336 23.4626 108.488 21.37L105.491 24.0188C107.224 25.9775 108.84 28.0737 110.294 30.2485L113.619 28.0258Z" fill="#072D15"/>
<path id="Vector_11" d="M27.1175 16.1123L24.7067 12.9193C22.4782 14.602 20.3393 16.4561 18.3529 18.4247L21.1699 21.2656C23.0302 19.421 25.0307 17.6888 27.1175 16.1123Z" fill="#072D15"/>
<path id="Vector_12" d="M119.989 59.7962L123.986 59.6124C123.86 56.8136 123.54 54.0008 123.04 51.2603L119.104 51.9743C119.573 54.5429 119.868 57.1718 119.989 59.7962Z" fill="#072D15"/>
<path id="Vector_13" d="M120.967 43.1055C120.095 40.4489 119.032 37.8262 117.808 35.3113L114.209 37.0617C115.356 39.4163 116.35 41.8671 117.166 44.3518L120.967 43.1055Z" fill="#072D15"/>
<path id="Vector_14" d="M40.8032 8.44411L39.3387 4.72095C36.7399 5.74327 34.1853 6.95567 31.7444 8.32386L33.7031 11.8127C35.9816 10.533 38.3726 9.39867 40.8032 8.44411Z" fill="#072D15"/>
<path id="Vector_15" d="M63.9131 4.46735C66.5338 4.55124 69.1665 4.81529 71.7413 5.24959L72.4053 1.30245C69.6549 0.840465 66.84 0.558232 64.0412 0.470215L63.9131 4.46735Z" fill="#072D15"/>
<path id="Vector_16" d="M91.413 112.493L93.4457 115.94C95.8502 114.523 98.185 112.927 100.384 111.195L97.9073 108.054C95.8482 109.672 93.6655 111.166 91.413 112.493Z" fill="#072D15"/>
<path id="Vector_17" d="M93.5957 13.768C95.7903 15.1924 97.9069 16.7829 99.8895 18.4932L102.504 15.4606C100.382 13.6341 98.1213 11.9337 95.7767 10.4114L93.5957 13.768Z" fill="#072D15"/>
<path id="Vector_18" d="M79.3912 7.07808C81.89 7.86031 84.3545 8.82272 86.7231 9.93677L88.4277 6.31774C85.8971 5.12352 83.2582 4.09706 80.5875 3.26111L79.3912 7.07808Z" fill="#072D15"/>
<path id="Vector_19" d="M113.039 90.1167L116.556 92.0271C117.892 89.5684 119.072 86.9936 120.061 84.3791L116.318 82.9646C115.393 85.4113 114.291 87.8179 113.039 90.1167Z" fill="#072D15"/>
<path id="Vector_20" d="M118.588 75.4305L122.487 76.3206C123.111 73.5978 123.552 70.8032 123.8 68.0143L119.815 67.6581C119.585 70.2689 119.171 72.8838 118.588 75.4305Z" fill="#072D15"/>
<path id="Vector_21" d="M103.742 102.776L106.619 105.559C108.562 103.552 110.386 101.392 112.045 99.1309L108.822 96.7623C107.265 98.8772 105.558 100.9 103.742 102.776Z" fill="#072D15"/>
<path id="Vector_22" d="M76.9368 118.536L77.9649 122.405C80.6678 121.689 83.3443 120.779 85.9249 119.699L84.3823 116.006C81.9703 117.014 79.4658 117.866 76.9368 118.536Z" fill="#072D15"/>
<path id="Vector_23" d="M44.7103 122.017C47.4012 122.796 50.1657 123.396 52.9285 123.806L53.5108 119.847C50.9261 119.467 48.3393 118.903 45.8227 118.172L44.7103 122.017Z" fill="#072D15"/>
<path id="Vector_24" d="M47.3549 2.18472L48.297 6.07194C50.8338 5.45788 53.4405 5.00953 56.0513 4.74176L55.6413 0.760742C52.8504 1.04835 50.0636 1.52852 47.3549 2.18472Z" fill="#072D15"/>
<path id="Vector_25" d="M62.0308 120.469L61.3506 120.465L61.3147 124.466L62.0308 124.47C64.5973 124.47 67.18 124.313 69.7069 124L69.2147 120.031C66.8519 120.321 64.4353 120.469 62.0308 120.469Z" fill="#072D15"/>
</g>
</g>
</g>
<defs>
<clipPath id="clip0_15_42">
<rect width="124" height="124" fill="white" transform="translate(0 0.470215)"/>
</clipPath>
</defs>
</svg>
