<svg width="68" height="66" viewBox="0 0 68 66" fill="none" xmlns="http://www.w3.org/2000/svg">
<g id="Black">
<path id="Vector" d="M11.4876 1.0864C8.97648 1.74504 7.01427 3.74843 6.3419 6.30068C6.08118 7.31609 6.08118 9.49786 6.3419 10.5133C7.01427 13.093 9.00393 15.0826 11.5699 15.755C12.599 16.0157 14.7671 16.0157 15.8099 15.755C18.3759 15.0963 20.3381 13.1204 21.0242 10.527C21.2987 9.47041 21.2987 7.35726 21.0242 6.30068C20.3381 3.69354 18.3759 1.73132 15.8099 1.07268C14.7808 0.811963 12.503 0.811963 11.4876 1.0864ZM15.3708 4.24241C16.1941 4.51685 17.1684 5.39504 17.6349 6.27324C17.9643 6.90444 18.0054 7.11027 18.0054 8.41384C18.0054 9.71741 17.9643 9.92323 17.6349 10.5544C17.1684 11.4326 16.1941 12.3108 15.3708 12.5853C15.0003 12.7088 14.2731 12.8048 13.6831 12.8048C13.093 12.8048 12.3658 12.7088 11.9953 12.5853C11.172 12.3108 10.1977 11.4326 9.73118 10.5544C9.40186 9.92323 9.36069 9.71741 9.36069 8.41384C9.36069 7.11027 9.40186 6.90444 9.73118 6.27324C10.184 5.42249 11.1582 4.53057 11.9404 4.24241C12.7225 3.96798 14.575 3.96798 15.3708 4.24241Z" fill="white"/>
<path id="Vector_2" d="M40.0838 11.8306C39.5898 12.1324 39.7819 11.6522 37.5041 18.0191C36.1045 21.8886 35.5693 23.2197 35.3498 23.3706C35.1851 23.4804 33.4836 24.4546 31.5763 25.5112L28.1047 27.4597L25.1682 24.0018C22.0259 20.3106 21.477 19.7618 20.2009 18.8836C18.3348 17.6212 17.1135 17.2644 14.9866 17.3742C12.7637 17.4839 11.1583 18.2112 9.6763 19.7755C8.81183 20.6811 8.2904 21.5181 7.90619 22.6159C7.32988 24.2762 7.3436 26.5129 7.94736 28.1321C8.31785 29.1612 18.9111 47.6582 19.5697 48.4403C20.2146 49.2224 21.628 50.183 22.6708 50.5535C24.3723 51.1435 24.6468 51.1161 36.2829 49.4969L46.9859 48.0149L53.2842 52.7352C56.7558 55.3149 59.9255 57.6065 60.3372 57.7986C60.9958 58.1004 61.2702 58.1553 62.464 58.1553C63.7264 58.1553 63.9186 58.1142 64.7556 57.7162C65.8671 57.1948 66.759 56.3166 67.2941 55.2326C67.6509 54.5191 67.6783 54.3132 67.6783 52.9411C67.6783 51.5826 67.6372 51.363 67.3078 50.677C67.102 50.2653 66.7315 49.6753 66.4845 49.3734C65.8945 48.6736 51.5827 37.9843 50.6496 37.5452C50.2516 37.3668 49.5381 37.1884 49.0578 37.1473C48.5913 37.1061 44.7492 37.2296 40.5366 37.4217C36.324 37.6138 32.6191 37.7785 32.3035 37.7785C31.7684 37.7785 31.6998 37.7373 31.3567 37.161L30.9862 36.5572L32.5231 35.6653C33.3738 35.1851 35.6379 33.8815 37.559 32.77C39.48 31.6723 41.2501 30.5745 41.4834 30.3413L41.9225 29.9296L42.9791 30.1492C44.5297 30.4785 45.0236 30.4373 45.5039 29.9845C46.0253 29.518 52.1041 17.6074 52.2001 16.8939C52.2962 16.2215 52.0218 15.5903 51.5278 15.3296C50.7593 14.9317 41.2364 11.5698 40.8797 11.5698C40.6738 11.5698 40.3171 11.6933 40.0838 11.8306ZM45.2295 16.3862C46.931 16.99 48.3443 17.5114 48.3718 17.5388C48.4266 17.58 45.9018 22.6571 44.5434 25.2368C43.6652 26.8971 43.5691 27.0343 43.2535 26.9657C42.9791 26.9245 42.9105 26.8285 42.9105 26.4717C42.9105 24.9212 41.7167 23.3569 40.0564 22.7394C39.6996 22.6022 39.384 22.4787 39.3565 22.465C39.2605 22.3826 41.8676 15.2747 42.0048 15.2747C42.0735 15.2747 43.528 15.7687 45.2295 16.3862ZM17.6761 21.0653C19.0208 21.82 19.5697 22.3826 23.302 26.7462C25.3329 29.1475 26.8972 30.849 27.1167 30.945C27.3088 31.0136 27.693 31.0411 27.9537 31.0136C28.2282 30.9725 30.506 29.7787 33.2366 28.2555C36.5299 26.4168 38.1765 25.5661 38.4509 25.5661C38.9861 25.5661 39.4663 25.8954 39.6859 26.4443C39.9191 27.0069 39.8094 27.5146 39.3703 27.9399C38.7939 28.4614 27.6793 34.7871 27.0893 34.9243C25.9366 35.1851 25.8269 35.089 22.3964 31.096C18.3896 26.4305 18.0054 26.0189 17.5114 25.9091C16.9763 25.7856 16.2216 26.0601 15.8786 26.4854C15.563 26.8834 15.5081 27.8027 15.7825 28.2555C15.8786 28.4065 17.6349 30.4922 19.6932 32.8798C22.9453 36.6396 23.5353 37.2708 24.1528 37.5726C25.1408 38.0529 26.3757 38.2587 27.3225 38.0941L28.0772 37.9569L28.8319 39.1369C29.2436 39.7819 29.7376 40.4679 29.9434 40.66C30.3825 41.0717 29.422 41.0717 40.5503 40.5777C47.7543 40.2621 48.756 40.2347 49.1951 40.4131C49.8949 40.6875 63.8225 51.1435 64.2067 51.6786C64.6733 52.3236 64.7144 53.4899 64.289 54.0937C63.6578 55.013 62.368 55.3424 61.4761 54.7935C61.2291 54.6563 58.1828 52.3922 54.6838 49.7713C51.1984 47.1505 48.1797 44.9412 47.9738 44.8726C47.6994 44.7629 45.0099 45.0922 36.5161 46.2723C29.6278 47.2328 25.1545 47.7954 24.7154 47.7679C23.8509 47.6993 22.8355 47.2191 22.2043 46.5741C21.6692 46.039 11.1171 27.6792 10.8015 26.7324C10.6917 26.4305 10.6094 25.7445 10.6094 25.2093C10.6231 24.0155 11.0896 22.904 11.9404 22.0259C13.0793 20.8458 14.0398 20.4753 15.6865 20.5302C16.6607 20.5713 16.894 20.64 17.6761 21.0653Z" fill="white"/>
<path id="Vector_3" d="M1.11391 26.0326C0.7297 26.4168 0.647369 26.5952 0.647369 27.1029C0.647369 27.6381 1.08647 28.4888 4.92857 35.185C7.275 39.2879 10.8838 45.5724 12.9284 49.1538L16.6607 55.6717L13.7105 59.5687C12.0502 61.7779 10.7192 63.6578 10.6368 63.9322C10.4585 64.6046 10.8289 65.3455 11.5425 65.6886C12.0365 65.9219 12.1325 65.9356 12.6402 65.7572C13.1342 65.5788 13.4772 65.1809 16.0158 61.8328C17.5663 59.7745 18.8974 58.0318 18.9797 57.9495C19.0757 57.8534 20.64 57.579 22.4787 57.3183C24.3175 57.0713 30.1355 56.2754 35.3909 55.5482L44.955 54.2309L52.3374 59.9666C57.1263 63.6852 59.8843 65.7298 60.2 65.8121C61.133 66.0728 62.121 65.2495 62.121 64.2204C62.121 64.042 61.9838 63.6989 61.8191 63.4519C61.3937 62.8756 46.2586 51.1298 45.8058 51.0474C45.6137 51.0063 39.6721 51.761 32.6191 52.7352C22.712 54.1074 19.7481 54.4642 19.6383 54.3407C19.5423 54.2446 15.9197 47.9326 11.5562 40.317C6.68496 31.7958 3.46034 26.2796 3.17218 26.0052C2.51353 25.374 1.75883 25.3877 1.11391 26.0326Z" fill="white"/>
</g>
</svg>
