<svg width="180" height="105" viewBox="0 0 180 105" fill="none" xmlns="http://www.w3.org/2000/svg">
<path d="M84.7764 28.6056C95.6628 28.6056 102.481 32.1768 110.38 36.3132C121.108 41.9328 134.46 48.924 162.572 48.924V44.748C157.741 44.748 153.389 44.5392 149.425 44.172V35.6292C151.258 37.0584 153.551 37.9152 156.046 37.9152V33.7392C152.791 33.7392 150.084 31.3776 149.533 28.278C151.348 29.6568 153.598 30.4848 156.046 30.4848V26.3088C152.395 26.3088 149.425 23.3388 149.425 19.6884H145.249C145.249 23.3388 142.279 26.3088 138.629 26.3088V30.4848C141.077 30.4848 143.327 29.6568 145.141 28.278C144.59 31.374 141.883 33.7392 138.629 33.7392V37.9152C141.124 37.9152 143.42 37.0548 145.249 35.6292V43.7004C129.593 41.6484 120.539 36.9144 112.32 32.6088C108.144 30.4236 104.083 28.3032 99.4788 26.7696V14.6268L101.498 15.9372L103.882 12.2652L85.0968 0.0792003L66.312 12.2652L68.6952 15.9372L70.7148 14.6268V26.5716C65.9664 28.1088 61.8768 30.2904 57.6684 32.5476C55.89 33.5016 54.0684 34.4772 52.1424 35.4384C49.5072 33.1668 45.4608 30.4632 39.6144 28.3428H39.7836V20.6532C41.616 22.0788 43.9092 22.9392 46.404 22.9392V18.7632C43.1496 18.7632 40.4424 16.4016 39.8916 13.3056C41.706 14.6844 43.956 15.5124 46.404 15.5124V11.3364C42.7536 11.3364 39.7836 8.3664 39.7836 4.716H35.6076C35.6076 8.3664 32.6376 11.3364 28.9872 11.3364V15.5124C31.4352 15.5124 33.6888 14.6844 35.4996 13.3056C34.9488 16.4052 32.2416 18.7668 28.9872 18.7668V22.9428C31.482 22.9428 33.7788 22.0824 35.6076 20.6568V27.0864C30.546 25.7004 24.39 24.7788 16.9452 24.7788V28.9548C33.282 28.9548 42.8112 33.5592 47.9448 37.4328C38.898 41.4216 27.018 44.7516 6.98401 44.7516V48.9276C35.9856 48.9276 49.1076 41.8932 59.6484 36.2412C67.2804 32.1408 73.872 28.6056 84.7764 28.6056ZM74.8944 11.9196L85.0968 5.2992L95.2992 11.916V25.5888C93.1068 25.0848 90.7668 24.7248 88.2288 24.552V16.1604H81.9612V24.5088C79.4124 24.6492 77.0688 24.9696 74.8908 25.4412V11.9196H74.8944Z" fill="white"/>
<path d="M35.208 80.388C32.67 78.1488 28.9872 77.0256 24.1632 77.0256H15.516V68.0112H27.3384L29.2608 73.6992L37.0944 71.0388L33.2532 59.7348H0V68.0112H5.9868V94.9824H0V103.259H24.1632C28.9908 103.259 32.67 102.139 35.208 99.8964C37.746 97.6572 39.0132 94.4424 39.0132 90.252C39.0132 85.9176 37.746 82.6308 35.208 80.388ZM27.45 93.726C26.2908 94.5648 24.6312 94.9824 22.464 94.9824H15.516V85.23H22.9068C24.9264 85.23 26.478 85.6368 27.5616 86.4504C28.6452 87.264 29.1852 88.4592 29.1852 90.0324C29.1852 91.656 28.6056 92.8872 27.45 93.726Z" fill="white"/>
<path d="M70.4988 59.7348H52.7652V68.0112H58.5288L47.7396 94.9824H40.428V103.259H60.084V94.9824H56.016L58.2336 88.7004H72.4932L74.7108 94.9824H71.0892V103.259H90.6696V94.9824H84.168L70.4988 59.7348ZM60.4512 82.6416L65.4768 68.5296L70.4268 82.6416H60.4512Z" fill="white"/>
<path d="M119.34 80.7948C121.95 80.0568 123.894 78.8616 125.176 77.2128C126.457 75.564 127.098 73.6056 127.098 71.3376C127.098 68.3352 126.31 65.8584 124.733 63.9108C123.156 61.9668 121.075 60.5232 118.49 59.5872C115.906 58.6512 113.058 58.1832 109.955 58.1832C107.442 58.1832 104.857 58.4928 102.197 59.1084C99.5364 59.724 97.0236 60.624 94.6584 61.8048L92.5884 70.3008L100.642 72.1476L102.121 67.5648C103.255 67.0248 104.461 66.6288 105.743 66.384C107.024 66.1392 108.281 66.0132 109.512 66.0132C111.679 66.0132 113.551 66.456 115.128 67.3416C116.705 68.2272 117.493 69.6564 117.493 71.6292C117.493 73.5516 117.036 75.0024 116.125 75.9888C115.214 76.9752 113.724 77.4684 111.654 77.4684H105.005V84.9312H111.877C114.34 84.9312 116.125 85.4748 117.234 86.5584C118.343 87.642 118.897 88.9704 118.897 90.5472C118.897 92.862 118.012 94.5504 116.237 95.6088C114.462 96.6708 112.421 97.1964 110.106 97.1964C107.986 97.1964 106.276 96.9768 104.969 96.5304C103.662 96.0876 102.395 95.4 101.164 94.4604L99.612 89.1396L91.5588 91.2096L93.6288 99.2628C95.5512 101.135 97.9632 102.539 100.868 103.475C103.774 104.411 106.754 104.879 109.807 104.879C113.256 104.879 116.395 104.375 119.228 103.363C122.062 102.355 124.337 100.814 126.065 98.7444C127.789 96.6744 128.65 94.0896 128.65 90.9864C128.65 88.4268 127.948 86.256 126.544 84.4848C125.14 82.7136 122.738 81.4824 119.34 80.7948Z" fill="white"/>
<path d="M173.498 94.9824L159.829 59.7384H142.096V68.0148H147.859L137.074 94.986H129.758V103.262H149.414V94.986H145.35L147.568 88.704H161.827L164.045 94.986H160.423V103.262H180V94.986H173.498V94.9824ZM149.782 82.6416L154.807 68.5296L159.757 82.6416H149.782Z" fill="white"/>
<path d="M70.7364 47.9484C69.966 47.9484 69.3 47.862 68.7348 47.6928C68.1696 47.52 67.6512 47.304 67.176 47.0412L66.4632 48.7116C67.104 49.0572 67.7664 49.3308 68.454 49.536C69.1416 49.7412 69.912 49.8456 70.7652 49.8456C71.91 49.8456 72.9 49.608 73.7244 49.1328C74.5524 48.6576 75.1932 47.9916 75.654 47.1312C76.1112 46.2708 76.3416 45.2592 76.3416 44.0964C76.3416 42.3108 75.8664 40.8888 74.916 39.834C73.9656 38.7756 72.6372 38.25 70.9344 38.25C70.4448 38.25 69.9696 38.2788 69.5088 38.3364C69.0516 38.394 68.6268 38.4696 68.2416 38.556C67.8564 38.646 67.4928 38.7576 67.1472 38.8872L66.582 41.8104L68.5476 42.228L68.8896 40.4568C69.0876 40.374 69.3468 40.3092 69.6744 40.2624C70.002 40.212 70.3548 40.1868 70.7328 40.1868C71.6976 40.1868 72.45 40.446 72.9828 40.9608C73.5156 41.4756 73.8216 42.2676 73.9044 43.3332L72.234 43.1856H69.9228V44.9532H72.2088L73.9044 44.8056C73.8072 45.8208 73.4868 46.5984 72.9468 47.1384C72.4068 47.6784 71.6688 47.9484 70.7364 47.9484Z" fill="white"/>
<path d="M90.6624 42.6888V38.6604H79.5312V42.6888H81.3024V40.5252H83.9304V47.556H81.792V49.4208H88.4016V47.556H86.2632V40.5252H88.8948V42.6888H90.6624Z" fill="white"/>
<path d="M102.557 38.9412C101.722 38.4732 100.721 38.2392 99.558 38.2392C98.442 38.2392 97.47 38.4732 96.6348 38.9412C95.7996 39.4092 95.1552 40.0752 94.7052 40.9428C94.2552 41.8104 94.0284 42.8508 94.0284 44.064C94.0284 45.2592 94.2516 46.2924 94.7052 47.16C95.1552 48.0276 95.7996 48.6936 96.6348 49.1508C97.47 49.608 98.4456 49.8384 99.558 49.8384C101.293 49.8384 102.665 49.3272 103.673 48.3012C104.681 47.2788 105.185 45.864 105.185 44.064C105.185 42.8508 104.954 41.8104 104.497 40.9428C104.04 40.0752 103.392 39.4092 102.557 38.9412ZM102.042 46.9404C101.502 47.61 100.681 47.9484 99.5832 47.9484C98.5356 47.9484 97.74 47.6136 97.2 46.9404C96.66 46.2672 96.39 45.3096 96.39 44.064C96.39 42.8184 96.66 41.8572 97.2 41.1768C97.74 40.4964 98.5356 40.158 99.5832 40.158C100.681 40.158 101.502 40.5 102.042 41.1768C102.582 41.8572 102.852 42.8184 102.852 44.064C102.852 45.3096 102.582 46.2672 102.042 46.9404Z" fill="white"/>
<path d="M122.965 28.9224C130.939 28.9224 137.426 22.4352 137.426 14.4612C137.426 6.4872 130.939 0 122.965 0C114.991 0 108.504 6.4872 108.504 14.4612C108.504 22.4352 114.991 28.9224 122.965 28.9224ZM122.965 3.546C128.984 3.546 133.88 8.442 133.88 14.4612C133.88 20.4804 128.984 25.3764 122.965 25.3764C116.946 25.3764 112.05 20.4804 112.05 14.4612C112.05 8.442 116.946 3.546 122.965 3.546Z" fill="white"/>
</svg>
