<svg width="46" height="66" viewBox="0 0 46 66" fill="none" xmlns="http://www.w3.org/2000/svg">
<g id="Black">
<path id="Vector" d="M18.3166 1.22089C17.3408 1.74945 15.9585 2.84721 15.3079 3.70102L14.0476 5.28667L13.8443 11.7513L13.641 18.2565L11.2422 19.2323C7.01376 20.9399 3.31391 24.7211 1.60628 29.0714C0.75247 31.2263 0.671155 32.2428 0.508524 40.2523C0.345893 50.0508 0.630497 52.2057 2.50075 55.9462C3.84246 58.6296 7.13574 62.0042 9.69717 63.3053C13.1531 65.0536 15.5112 65.3788 25.3097 65.3788C35.5555 65.3788 36.45 65.2162 38.3609 62.98C39.7026 61.3537 40.1092 59.2802 39.4993 57.166C39.0114 55.5803 39.0521 55.5396 40.5564 54.076C42.1014 52.5716 43.1178 50.2135 43.1178 48.2619C43.1178 47.7334 42.7519 46.5543 42.3453 45.6192L41.5728 43.9522L42.9959 42.8138C44.9881 41.2688 46.1265 38.5447 45.8013 36.1866C45.5166 34.113 44.2563 31.8768 42.9146 30.9824L41.9794 30.3725L42.7926 28.5022C44.5002 24.6804 42.9552 20.7366 39.0521 18.7037C37.5884 17.9719 36.5719 17.8093 33.6852 17.8093H30.1074V13.3369C30.1074 7.72614 29.6195 5.36798 27.9932 3.37576C25.513 0.407738 21.6505 -0.446075 18.3166 1.22089ZM24.3746 4.63615C26.0009 5.77456 26.4482 7.60416 26.4482 12.9303V17.8093H21.7725H17.0969V12.9303C17.0969 5.97785 18.154 3.98562 21.7725 3.98562C22.667 3.98562 23.8461 4.27023 24.3746 4.63615ZM38.6861 22.6475C40.5564 24.5178 40.3125 27.0386 38.0763 28.7868C37.4664 29.2747 35.5555 29.4374 29.1316 29.6L20.9594 29.8033L20.8374 30.9824C20.7561 31.6329 20.9187 32.2834 21.244 32.4867C21.5286 32.69 25.5944 32.8526 30.2293 32.8526C37.0598 32.8526 38.9707 32.9746 40.0685 33.4625C42.5486 34.6822 43.0772 37.8129 41.1256 39.8051L39.9465 40.9842H30.8392C21.2846 40.9842 20.7561 41.0655 20.7561 42.8138C20.7561 44.5214 21.3659 44.6434 29.3349 44.6434C36.6533 44.6434 37.0192 44.684 38.0356 45.5785C38.7268 46.1477 39.174 47.0422 39.3367 48.1399C39.54 49.6036 39.3773 50.0102 38.3202 51.1893L37.1005 52.5716L29.4568 52.6936C24.6592 52.7749 21.6099 52.9782 21.244 53.2628C20.9594 53.5068 20.7561 54.1979 20.8374 54.7671L20.9594 55.8242L27.7086 56.0275C33.6446 56.1902 34.6204 56.3121 35.3522 57.0033C36.45 57.9791 36.45 59.8494 35.3522 60.9471C34.5391 61.7603 34.1731 61.7603 24.2933 61.6383C14.8201 61.5163 13.9256 61.435 12.1366 60.6219C9.45323 59.4021 6.72916 56.7187 5.42811 54.0353C4.28969 51.7991 4.28969 51.6365 4.16772 42.8138C4.04575 37.1623 4.16772 33.0966 4.49298 31.7955C5.38745 27.6484 9.00599 23.664 13.1531 22.2409C14.9827 21.5904 16.7716 21.5091 26.3668 21.4685H37.5071L38.6861 22.6475Z" fill="white"/>
</g>
</svg>
