<svg width="31" height="46" viewBox="0 0 31 46" fill="none" xmlns="http://www.w3.org/2000/svg">
<path id="Vector" d="M30.6665 12.3529C24.116 12.3529 18.7889 7.02302 18.7889 0.470215H12.21C12.21 7.02302 6.88284 12.3529 0.333466 12.3529V18.9353C4.82332 18.9353 8.94354 17.3201 12.1474 14.6427C11.5321 20.6213 6.46952 25.3014 0.333466 25.3014V31.8837C4.85402 31.8837 8.99787 30.2461 12.21 27.5369V45.4702H18.7889V27.5369C22.001 30.2461 26.1448 31.8837 30.6665 31.8837V25.3014C24.5305 25.3014 19.4679 20.6225 18.8526 14.6427C22.0553 17.3201 26.1755 18.9353 30.6665 18.9353V12.3529Z" fill="#CAA44C"/>
</svg>
